<?xml version="1.0" encoding="UTF-8" standalone="no"?>
<!DOCTYPE svg PUBLIC "-//W3C//DTD SVG 1.1//EN"
 "http://www.w3.org/Graphics/SVG/1.1/DTD/svg11.dtd">
<!-- Generated by graphviz version 12.2.1 (0)
 -->
<!-- Pages: 1 -->
<svg width="419pt" height="260pt"
 viewBox="0.00 0.00 419.38 260.00" xmlns="http://www.w3.org/2000/svg" xmlns:xlink="http://www.w3.org/1999/xlink">
<g id="graph0" class="graph" transform="scale(1 1) rotate(0) translate(4 256)">
<polygon fill="white" stroke="none" points="-4,4 -4,-256 415.38,-256 415.38,4 -4,4"/>
<!-- 0 -->
<g id="node1" class="node">
<title>0</title>
<polygon fill="none" stroke="black" points="105.25,-180 0,-180 0,-144 105.25,-144 105.25,-180"/>
<text text-anchor="middle" x="52.62" y="-157.32" font-family="Times,serif" font-size="14.00">auth&#45;domain</text>
</g>
<!-- 1 -->
<g id="node2" class="node">
<title>1</title>
<polygon fill="none" stroke="black" points="159.12,-36 92.12,-36 92.12,0 159.12,0 159.12,-36"/>
<text text-anchor="middle" x="125.62" y="-13.32" font-family="Times,serif" font-size="14.00">models</text>
</g>
<!-- 0&#45;&gt;1 -->
<g id="edge1" class="edge">
<title>0&#45;&gt;1</title>
<path fill="none" stroke="black" d="M61.58,-143.59C74.07,-119.29 96.85,-74.97 111.6,-46.27"/>
<polygon fill="black" stroke="black" points="114.68,-47.95 116.14,-37.46 108.45,-44.75 114.68,-47.95"/>
</g>
<!-- 2 -->
<g id="node3" class="node">
<title>2</title>
<polygon fill="none" stroke="black" points="59.62,-108 5.62,-108 5.62,-72 59.62,-72 59.62,-108"/>
<text text-anchor="middle" x="32.62" y="-85.33" font-family="Times,serif" font-size="14.00">cli</text>
</g>
<!-- 2&#45;&gt;1 -->
<g id="edge2" class="edge">
<title>2&#45;&gt;1</title>
<path fill="none" stroke="black" d="M55.61,-71.7C67.02,-63.11 80.98,-52.61 93.42,-43.24"/>
<polygon fill="black" stroke="black" points="95.48,-46.07 101.37,-37.26 91.27,-40.47 95.48,-46.07"/>
</g>
<!-- 3 -->
<g id="node4" class="node">
<title>3</title>
<polygon fill="none" stroke="black" points="143.62,-252 89.62,-252 89.62,-216 143.62,-216 143.62,-252"/>
<text text-anchor="middle" x="116.62" y="-229.32" font-family="Times,serif" font-size="14.00">grid</text>
</g>
<!-- 3&#45;&gt;0 -->
<g id="edge3" class="edge">
<title>3&#45;&gt;0</title>
<path fill="none" stroke="black" d="M100.8,-215.7C93.29,-207.47 84.15,-197.48 75.87,-188.42"/>
<polygon fill="black" stroke="black" points="78.62,-186.24 69.28,-181.22 73.45,-190.96 78.62,-186.24"/>
</g>
<!-- 4 -->
<g id="node5" class="node">
<title>4</title>
<polygon fill="none" stroke="black" points="238.12,-180 123.12,-180 123.12,-144 238.12,-144 238.12,-180"/>
<text text-anchor="middle" x="180.62" y="-157.32" font-family="Times,serif" font-size="14.00">prime&#45;domain</text>
</g>
<!-- 3&#45;&gt;4 -->
<g id="edge4" class="edge">
<title>3&#45;&gt;4</title>
<path fill="none" stroke="black" d="M132.45,-215.7C139.96,-207.47 149.1,-197.48 157.38,-188.42"/>
<polygon fill="black" stroke="black" points="159.8,-190.96 163.97,-181.22 154.63,-186.24 159.8,-190.96"/>
</g>
<!-- 4&#45;&gt;1 -->
<g id="edge5" class="edge">
<title>4&#45;&gt;1</title>
<path fill="none" stroke="black" d="M166.46,-143.85C158.93,-133.93 150.13,-120.89 144.62,-108 136.37,-88.66 131.56,-65.38 128.85,-47.48"/>
<polygon fill="black" stroke="black" points="132.35,-47.26 127.53,-37.83 125.42,-48.21 132.35,-47.26"/>
</g>
<!-- 5 -->
<g id="node6" class="node">
<title>5</title>
<polygon fill="none" stroke="black" points="207.62,-108 153.62,-108 153.62,-72 207.62,-72 207.62,-108"/>
<text text-anchor="middle" x="180.62" y="-85.33" font-family="Times,serif" font-size="14.00">owl</text>
</g>
<!-- 4&#45;&gt;5 -->
<g id="edge6" class="edge">
<title>4&#45;&gt;5</title>
<path fill="none" stroke="black" d="M180.62,-143.7C180.62,-136.41 180.62,-127.73 180.62,-119.54"/>
<polygon fill="black" stroke="black" points="184.13,-119.62 180.63,-109.62 177.13,-119.62 184.13,-119.62"/>
</g>
<!-- 5&#45;&gt;1 -->
<g id="edge7" class="edge">
<title>5&#45;&gt;1</title>
<path fill="none" stroke="black" d="M167.03,-71.7C160.7,-63.64 153.04,-53.89 146.04,-44.98"/>
<polygon fill="black" stroke="black" points="148.93,-43 140,-37.29 143.43,-47.32 148.93,-43"/>
</g>
<!-- 6 -->
<g id="node7" class="node">
<title>6</title>
<polygon fill="none" stroke="black" points="411.38,-108 225.88,-108 225.88,-72 411.38,-72 411.38,-108"/>
<text text-anchor="middle" x="318.62" y="-85.33" font-family="Times,serif" font-size="14.00">tower&#45;sessions&#45;db&#45;store</text>
</g>
<!-- 6&#45;&gt;1 -->
<g id="edge8" class="edge">
<title>6&#45;&gt;1</title>
<path fill="none" stroke="black" d="M270.42,-71.52C239.69,-60.37 200.17,-46.04 170.17,-35.16"/>
<polygon fill="black" stroke="black" points="171.61,-31.95 161.01,-31.84 169.22,-38.54 171.61,-31.95"/>
</g>
</g>
</svg>
