<?xml version="1.0" encoding="UTF-8" standalone="no"?>
<!DOCTYPE svg PUBLIC "-//W3C//DTD SVG 1.1//EN"
 "http://www.w3.org/Graphics/SVG/1.1/DTD/svg11.dtd">
<!-- Generated by graphviz version 12.2.1 (0)
 -->
<!-- Pages: 1 -->
<svg width="627pt" height="404pt"
 viewBox="0.00 0.00 626.61 404.00" xmlns="http://www.w3.org/2000/svg" xmlns:xlink="http://www.w3.org/1999/xlink">
<g id="graph0" class="graph" transform="scale(1 1) rotate(0) translate(4 400)">
<polygon fill="white" stroke="none" points="-4,4 -4,-400 622.61,-400 622.61,4 -4,4"/>
<!-- 0 -->
<g id="node1" class="node">
<title>0</title>
<polygon fill="none" stroke="black" points="424.36,-252 319.11,-252 319.11,-216 424.36,-216 424.36,-252"/>
<text text-anchor="middle" x="371.74" y="-229.32" font-family="Times,serif" font-size="14.00">auth&#45;domain</text>
</g>
<!-- 1 -->
<g id="node2" class="node">
<title>1</title>
<polygon fill="none" stroke="black" points="456.24,-180 347.24,-180 347.24,-144 456.24,-144 456.24,-180"/>
<text text-anchor="middle" x="401.74" y="-157.32" font-family="Times,serif" font-size="14.00">meta&#45;domain</text>
</g>
<!-- 0&#45;&gt;1 -->
<g id="edge1" class="edge">
<title>0&#45;&gt;1</title>
<path fill="none" stroke="black" d="M379.16,-215.7C382.39,-208.15 386.26,-199.12 389.88,-190.68"/>
<polygon fill="black" stroke="black" points="393.09,-192.07 393.81,-181.5 386.66,-189.31 393.09,-192.07"/>
</g>
<!-- 2 -->
<g id="node3" class="node">
<title>2</title>
<polygon fill="none" stroke="black" points="300.24,-108 233.24,-108 233.24,-72 300.24,-72 300.24,-108"/>
<text text-anchor="middle" x="266.74" y="-85.33" font-family="Times,serif" font-size="14.00">models</text>
</g>
<!-- 0&#45;&gt;2 -->
<g id="edge2" class="edge">
<title>0&#45;&gt;2</title>
<path fill="none" stroke="black" d="M423.88,-215.72C440.21,-207.57 456.38,-196.01 465.74,-180 473.81,-166.18 475.49,-156.69 465.74,-144 447.07,-119.7 364.17,-104.18 311.44,-96.58"/>
<polygon fill="black" stroke="black" points="312.24,-93.15 301.85,-95.24 311.27,-100.09 312.24,-93.15"/>
</g>
<!-- 4 -->
<g id="node5" class="node">
<title>4</title>
<polygon fill="none" stroke="black" points="328.74,-180 204.74,-180 204.74,-144 328.74,-144 328.74,-180"/>
<text text-anchor="middle" x="266.74" y="-157.32" font-family="Times,serif" font-size="14.00">mutate&#45;domain</text>
</g>
<!-- 0&#45;&gt;4 -->
<g id="edge3" class="edge">
<title>0&#45;&gt;4</title>
<path fill="none" stroke="black" d="M345.51,-215.52C332.39,-206.76 316.31,-196.04 302.1,-186.58"/>
<polygon fill="black" stroke="black" points="304.15,-183.73 293.89,-181.1 300.27,-189.56 304.15,-183.73"/>
</g>
<!-- 1&#45;&gt;2 -->
<g id="edge4" class="edge">
<title>1&#45;&gt;2</title>
<path fill="none" stroke="black" d="M368.02,-143.52C350.49,-134.43 328.87,-123.22 310.11,-113.49"/>
<polygon fill="black" stroke="black" points="311.86,-110.45 301.37,-108.96 308.64,-116.67 311.86,-110.45"/>
</g>
<!-- 3 -->
<g id="node4" class="node">
<title>3</title>
<polygon fill="none" stroke="black" points="318.24,-36 215.24,-36 215.24,0 318.24,0 318.24,-36"/>
<text text-anchor="middle" x="266.74" y="-13.32" font-family="Times,serif" font-size="14.00">model&#45;types</text>
</g>
<!-- 2&#45;&gt;3 -->
<g id="edge5" class="edge">
<title>2&#45;&gt;3</title>
<path fill="none" stroke="black" d="M266.74,-71.7C266.74,-64.41 266.74,-55.73 266.74,-47.54"/>
<polygon fill="black" stroke="black" points="270.24,-47.62 266.74,-37.62 263.24,-47.62 270.24,-47.62"/>
</g>
<!-- 4&#45;&gt;2 -->
<g id="edge6" class="edge">
<title>4&#45;&gt;2</title>
<path fill="none" stroke="black" d="M266.74,-143.7C266.74,-136.41 266.74,-127.73 266.74,-119.54"/>
<polygon fill="black" stroke="black" points="270.24,-119.62 266.74,-109.62 263.24,-119.62 270.24,-119.62"/>
</g>
<!-- 5 -->
<g id="node6" class="node">
<title>5</title>
<polygon fill="none" stroke="black" points="186.74,-180 132.74,-180 132.74,-144 186.74,-144 186.74,-180"/>
<text text-anchor="middle" x="159.74" y="-157.32" font-family="Times,serif" font-size="14.00">cli</text>
</g>
<!-- 5&#45;&gt;2 -->
<g id="edge7" class="edge">
<title>5&#45;&gt;2</title>
<path fill="none" stroke="black" d="M186.46,-143.52C199.97,-134.68 216.55,-123.84 231.12,-114.3"/>
<polygon fill="black" stroke="black" points="232.64,-117.49 239.09,-109.09 228.8,-111.63 232.64,-117.49"/>
</g>
<!-- 6 -->
<g id="node7" class="node">
<title>6</title>
<polygon fill="none" stroke="black" points="300.99,-252 232.49,-252 232.49,-216 300.99,-216 300.99,-252"/>
<text text-anchor="middle" x="266.74" y="-229.32" font-family="Times,serif" font-size="14.00">domain</text>
</g>
<!-- 6&#45;&gt;1 -->
<g id="edge8" class="edge">
<title>6&#45;&gt;1</title>
<path fill="none" stroke="black" d="M300.46,-215.52C317.99,-206.43 339.61,-195.22 358.37,-185.49"/>
<polygon fill="black" stroke="black" points="359.84,-188.67 367.11,-180.96 356.62,-182.45 359.84,-188.67"/>
</g>
<!-- 6&#45;&gt;2 -->
<g id="edge9" class="edge">
<title>6&#45;&gt;2</title>
<path fill="none" stroke="black" d="M232.02,-230.94C198.06,-226.86 148.01,-214.88 123.74,-180 114.6,-166.87 114.6,-157.13 123.74,-144 145.65,-112.51 188.58,-99.68 221.71,-94.49"/>
<polygon fill="black" stroke="black" points="222.03,-97.98 231.47,-93.15 221.09,-91.04 222.03,-97.98"/>
</g>
<!-- 6&#45;&gt;4 -->
<g id="edge10" class="edge">
<title>6&#45;&gt;4</title>
<path fill="none" stroke="black" d="M266.74,-215.7C266.74,-208.41 266.74,-199.73 266.74,-191.54"/>
<polygon fill="black" stroke="black" points="270.24,-191.62 266.74,-181.62 263.24,-191.62 270.24,-191.62"/>
</g>
<!-- 7 -->
<g id="node8" class="node">
<title>7</title>
<polygon fill="none" stroke="black" points="76.74,-180 22.74,-180 22.74,-144 76.74,-144 76.74,-180"/>
<text text-anchor="middle" x="49.74" y="-157.32" font-family="Times,serif" font-size="14.00">owl</text>
</g>
<!-- 6&#45;&gt;7 -->
<g id="edge11" class="edge">
<title>6&#45;&gt;7</title>
<path fill="none" stroke="black" d="M232.01,-223.65C196.26,-213.78 139.13,-197.27 90.74,-180 89.61,-179.6 88.48,-179.18 87.33,-178.76"/>
<polygon fill="black" stroke="black" points="88.94,-175.63 78.35,-175.27 86.41,-182.15 88.94,-175.63"/>
</g>
<!-- 7&#45;&gt;2 -->
<g id="edge12" class="edge">
<title>7&#45;&gt;2</title>
<path fill="none" stroke="black" d="M76.94,-149.27C81.52,-147.43 86.24,-145.61 90.74,-144 134.81,-128.27 186.14,-113.17 221.95,-103.14"/>
<polygon fill="black" stroke="black" points="222.85,-106.53 231.54,-100.48 220.97,-99.78 222.85,-106.53"/>
</g>
<!-- 8 -->
<g id="node9" class="node">
<title>8</title>
<polygon fill="none" stroke="black" points="395.74,-396 341.74,-396 341.74,-360 395.74,-360 395.74,-396"/>
<text text-anchor="middle" x="368.74" y="-373.32" font-family="Times,serif" font-size="14.00">grid</text>
</g>
<!-- 8&#45;&gt;0 -->
<g id="edge13" class="edge">
<title>8&#45;&gt;0</title>
<path fill="none" stroke="black" d="M369.11,-359.59C369.61,-335.61 370.53,-292.14 371.14,-263.42"/>
<polygon fill="black" stroke="black" points="374.63,-263.7 371.35,-253.62 367.64,-263.55 374.63,-263.7"/>
</g>
<!-- 8&#45;&gt;6 -->
<g id="edge14" class="edge">
<title>8&#45;&gt;6</title>
<path fill="none" stroke="black" d="M359.23,-359.7C348.88,-341.34 331.41,-311.76 313.74,-288 306.77,-278.63 298.5,-268.91 290.85,-260.4"/>
<polygon fill="black" stroke="black" points="293.55,-258.16 284.22,-253.14 288.38,-262.88 293.55,-258.16"/>
</g>
<!-- 9 -->
<g id="node10" class="node">
<title>9</title>
<polygon fill="none" stroke="black" points="304.24,-324 231.24,-324 231.24,-288 304.24,-288 304.24,-324"/>
<text text-anchor="middle" x="267.74" y="-301.32" font-family="Times,serif" font-size="14.00">site&#45;app</text>
</g>
<!-- 8&#45;&gt;9 -->
<g id="edge15" class="edge">
<title>8&#45;&gt;9</title>
<path fill="none" stroke="black" d="M343.51,-359.52C330.89,-350.76 315.42,-340.04 301.76,-330.58"/>
<polygon fill="black" stroke="black" points="304.1,-327.94 293.89,-325.12 300.11,-333.7 304.1,-327.94"/>
</g>
<!-- 10 -->
<g id="node11" class="node">
<title>10</title>
<polygon fill="none" stroke="black" points="599.49,-324 413.99,-324 413.99,-288 599.49,-288 599.49,-324"/>
<text text-anchor="middle" x="506.74" y="-301.32" font-family="Times,serif" font-size="14.00">tower&#45;sessions&#45;db&#45;store</text>
</g>
<!-- 8&#45;&gt;10 -->
<g id="edge16" class="edge">
<title>8&#45;&gt;10</title>
<path fill="none" stroke="black" d="M396,-363.17C414.92,-353.57 440.55,-340.58 462.38,-329.5"/>
<polygon fill="black" stroke="black" points="463.74,-332.73 471.08,-325.09 460.58,-326.49 463.74,-332.73"/>
</g>
<!-- 9&#45;&gt;0 -->
<g id="edge17" class="edge">
<title>9&#45;&gt;0</title>
<path fill="none" stroke="black" stroke-dasharray="1,5" d="M293.71,-287.52C306.72,-278.76 322.65,-268.04 336.71,-258.58"/>
<polygon fill="black" stroke="black" points="338.5,-261.59 344.84,-253.11 334.59,-255.79 338.5,-261.59"/>
</g>
<!-- 9&#45;&gt;2 -->
<g id="edge19" class="edge">
<title>9&#45;&gt;2</title>
<path fill="none" stroke="black" d="M230.99,-297.73C145.79,-279.3 -53.08,-226.27 13.74,-144 39.43,-112.37 155.98,-98.95 221.56,-93.81"/>
<polygon fill="black" stroke="black" points="221.57,-97.32 231.28,-93.09 221.05,-90.34 221.57,-97.32"/>
</g>
<!-- 9&#45;&gt;6 -->
<g id="edge18" class="edge">
<title>9&#45;&gt;6</title>
<path fill="none" stroke="black" stroke-dasharray="1,5" d="M267.49,-287.7C267.39,-280.41 267.26,-271.73 267.15,-263.54"/>
<polygon fill="black" stroke="black" points="270.65,-263.57 267.01,-253.62 263.65,-263.67 270.65,-263.57"/>
</g>
<!-- 10&#45;&gt;2 -->
<g id="edge20" class="edge">
<title>10&#45;&gt;2</title>
<path fill="none" stroke="black" d="M509.81,-287.62C514.49,-254.98 519.38,-184.21 482.74,-144 460.05,-119.1 367.95,-103.52 311.6,-96.13"/>
<polygon fill="black" stroke="black" points="312.36,-92.7 301.99,-94.9 311.47,-99.64 312.36,-92.7"/>
</g>
<!-- 11 -->
<g id="node12" class="node">
<title>11</title>
<polygon fill="none" stroke="black" points="618.61,-180 550.86,-180 550.86,-144 618.61,-144 618.61,-180"/>
<text text-anchor="middle" x="584.74" y="-157.32" font-family="Times,serif" font-size="14.00">junk&#45;cli</text>
</g>
<!-- 11&#45;&gt;2 -->
<g id="edge21" class="edge">
<title>11&#45;&gt;2</title>
<path fill="none" stroke="black" d="M550.59,-148.22C545.96,-146.69 541.26,-145.24 536.74,-144 458.61,-122.62 365.53,-106.31 311.58,-97.74"/>
<polygon fill="black" stroke="black" points="312.27,-94.3 301.85,-96.21 311.19,-101.22 312.27,-94.3"/>
</g>
<!-- 12 -->
<g id="node13" class="node">
<title>12</title>
<polygon fill="none" stroke="black" points="321.86,-396 213.61,-396 213.61,-360 321.86,-360 321.86,-396"/>
<text text-anchor="middle" x="267.74" y="-373.32" font-family="Times,serif" font-size="14.00">site&#45;frontend</text>
</g>
<!-- 12&#45;&gt;9 -->
<g id="edge22" class="edge">
<title>12&#45;&gt;9</title>
<path fill="none" stroke="black" d="M267.74,-359.7C267.74,-352.41 267.74,-343.73 267.74,-335.54"/>
<polygon fill="black" stroke="black" points="271.24,-335.62 267.74,-325.62 264.24,-335.62 271.24,-335.62"/>
</g>
</g>
</svg>
