<?xml version="1.0" encoding="UTF-8" standalone="no"?>
<!DOCTYPE svg PUBLIC "-//W3C//DTD SVG 1.1//EN"
 "http://www.w3.org/Graphics/SVG/1.1/DTD/svg11.dtd">
<!-- Generated by graphviz version 12.2.1 (0)
 -->
<!-- Pages: 1 -->
<svg width="972pt" height="404pt"
 viewBox="0.00 0.00 971.62 404.00" xmlns="http://www.w3.org/2000/svg" xmlns:xlink="http://www.w3.org/1999/xlink">
<g id="graph0" class="graph" transform="scale(1 1) rotate(0) translate(4 400)">
<polygon fill="white" stroke="none" points="-4,4 -4,-400 967.62,-400 967.62,4 -4,4"/>
<!-- 0 -->
<g id="node1" class="node">
<title>0</title>
<polygon fill="none" stroke="black" points="568.38,-252 463.12,-252 463.12,-216 568.38,-216 568.38,-252"/>
<text text-anchor="middle" x="515.75" y="-229.32" font-family="Times,serif" font-size="14.00">auth&#45;domain</text>
</g>
<!-- 1 -->
<g id="node2" class="node">
<title>1</title>
<polygon fill="none" stroke="black" points="563.75,-180 445.75,-180 445.75,-144 563.75,-144 563.75,-180"/>
<text text-anchor="middle" x="504.75" y="-157.32" font-family="Times,serif" font-size="14.00">billing&#45;domain</text>
</g>
<!-- 0&#45;&gt;1 -->
<g id="edge1" class="edge">
<title>0&#45;&gt;1</title>
<path fill="none" stroke="black" d="M513.03,-215.7C511.87,-208.32 510.49,-199.52 509.19,-191.25"/>
<polygon fill="black" stroke="black" points="512.68,-190.93 507.67,-181.6 505.77,-192.02 512.68,-190.93"/>
</g>
<!-- 2 -->
<g id="node3" class="node">
<title>2</title>
<polygon fill="none" stroke="black" points="538.25,-108 471.25,-108 471.25,-72 538.25,-72 538.25,-108"/>
<text text-anchor="middle" x="504.75" y="-85.33" font-family="Times,serif" font-size="14.00">models</text>
</g>
<!-- 0&#45;&gt;2 -->
<g id="edge3" class="edge">
<title>0&#45;&gt;2</title>
<path fill="none" stroke="black" d="M568.68,-227.12C635.98,-217.46 739.1,-194.09 700.75,-144 682.52,-120.19 601.96,-104.62 549.96,-96.85"/>
<polygon fill="black" stroke="black" points="550.59,-93.41 540.19,-95.44 549.59,-100.33 550.59,-93.41"/>
</g>
<!-- 4 -->
<g id="node5" class="node">
<title>4</title>
<polygon fill="none" stroke="black" points="691.25,-180 582.25,-180 582.25,-144 691.25,-144 691.25,-180"/>
<text text-anchor="middle" x="636.75" y="-157.32" font-family="Times,serif" font-size="14.00">meta&#45;domain</text>
</g>
<!-- 0&#45;&gt;4 -->
<g id="edge2" class="edge">
<title>0&#45;&gt;4</title>
<path fill="none" stroke="black" d="M545.97,-215.52C561.54,-206.51 580.7,-195.42 597.41,-185.76"/>
<polygon fill="black" stroke="black" points="598.7,-189.06 605.6,-181.02 595.2,-183 598.7,-189.06"/>
</g>
<!-- 5 -->
<g id="node6" class="node">
<title>5</title>
<polygon fill="none" stroke="black" points="427.75,-180 303.75,-180 303.75,-144 427.75,-144 427.75,-180"/>
<text text-anchor="middle" x="365.75" y="-157.32" font-family="Times,serif" font-size="14.00">mutate&#45;domain</text>
</g>
<!-- 0&#45;&gt;5 -->
<g id="edge4" class="edge">
<title>0&#45;&gt;5</title>
<path fill="none" stroke="black" d="M478.29,-215.52C458.61,-206.34 434.3,-194.99 413.31,-185.2"/>
<polygon fill="black" stroke="black" points="414.91,-182.08 404.37,-181.02 411.95,-188.42 414.91,-182.08"/>
</g>
<!-- 1&#45;&gt;2 -->
<g id="edge5" class="edge">
<title>1&#45;&gt;2</title>
<path fill="none" stroke="black" d="M504.75,-143.7C504.75,-136.41 504.75,-127.73 504.75,-119.54"/>
<polygon fill="black" stroke="black" points="508.25,-119.62 504.75,-109.62 501.25,-119.62 508.25,-119.62"/>
</g>
<!-- 3 -->
<g id="node4" class="node">
<title>3</title>
<polygon fill="none" stroke="black" points="556.25,-36 453.25,-36 453.25,0 556.25,0 556.25,-36"/>
<text text-anchor="middle" x="504.75" y="-13.32" font-family="Times,serif" font-size="14.00">model&#45;types</text>
</g>
<!-- 2&#45;&gt;3 -->
<g id="edge6" class="edge">
<title>2&#45;&gt;3</title>
<path fill="none" stroke="black" d="M504.75,-71.7C504.75,-64.41 504.75,-55.73 504.75,-47.54"/>
<polygon fill="black" stroke="black" points="508.25,-47.62 504.75,-37.62 501.25,-47.62 508.25,-47.62"/>
</g>
<!-- 4&#45;&gt;2 -->
<g id="edge7" class="edge">
<title>4&#45;&gt;2</title>
<path fill="none" stroke="black" d="M603.78,-143.52C586.72,-134.47 565.7,-123.32 547.41,-113.62"/>
<polygon fill="black" stroke="black" points="549.11,-110.56 538.64,-108.97 545.83,-116.75 549.11,-110.56"/>
</g>
<!-- 5&#45;&gt;2 -->
<g id="edge8" class="edge">
<title>5&#45;&gt;2</title>
<path fill="none" stroke="black" d="M400.47,-143.52C418.73,-134.32 441.32,-122.94 460.8,-113.13"/>
<polygon fill="black" stroke="black" points="462.25,-116.32 469.6,-108.7 459.1,-110.07 462.25,-116.32"/>
</g>
<!-- 6 -->
<g id="node7" class="node">
<title>6</title>
<polygon fill="none" stroke="black" points="877.75,-180 823.75,-180 823.75,-144 877.75,-144 877.75,-180"/>
<text text-anchor="middle" x="850.75" y="-157.32" font-family="Times,serif" font-size="14.00">cli</text>
</g>
<!-- 6&#45;&gt;2 -->
<g id="edge9" class="edge">
<title>6&#45;&gt;2</title>
<path fill="none" stroke="black" d="M823.26,-148.63C818.8,-146.91 814.19,-145.29 809.75,-144 719.51,-117.8 610.26,-102.67 550.06,-95.7"/>
<polygon fill="black" stroke="black" points="550.53,-92.23 540.2,-94.59 549.75,-99.19 550.53,-92.23"/>
</g>
<!-- 7 -->
<g id="node8" class="node">
<title>7</title>
<polygon fill="none" stroke="black" points="389,-252 320.5,-252 320.5,-216 389,-216 389,-252"/>
<text text-anchor="middle" x="354.75" y="-229.32" font-family="Times,serif" font-size="14.00">domain</text>
</g>
<!-- 7&#45;&gt;1 -->
<g id="edge10" class="edge">
<title>7&#45;&gt;1</title>
<path fill="none" stroke="black" d="M389.16,-216.94C409.32,-207.53 435.08,-195.51 457.17,-185.21"/>
<polygon fill="black" stroke="black" points="458.39,-188.5 465.97,-181.1 455.43,-182.15 458.39,-188.5"/>
</g>
<!-- 7&#45;&gt;2 -->
<g id="edge13" class="edge">
<title>7&#45;&gt;2</title>
<path fill="none" stroke="black" d="M325.86,-215.5C313.87,-206.53 301.26,-194.44 294.75,-180 288.17,-165.41 284.92,-156.62 294.75,-144 314.81,-118.24 404.28,-103.04 459.77,-95.93"/>
<polygon fill="black" stroke="black" points="460.06,-99.42 469.55,-94.72 459.2,-92.47 460.06,-99.42"/>
</g>
<!-- 7&#45;&gt;4 -->
<g id="edge11" class="edge">
<title>7&#45;&gt;4</title>
<path fill="none" stroke="black" d="M389.16,-224.87C430.08,-215.15 500.68,-198.22 571.12,-180.39"/>
<polygon fill="black" stroke="black" points="571.66,-183.86 580.49,-178.01 569.94,-177.08 571.66,-183.86"/>
</g>
<!-- 7&#45;&gt;5 -->
<g id="edge14" class="edge">
<title>7&#45;&gt;5</title>
<path fill="none" stroke="black" d="M357.47,-215.7C358.63,-208.32 360.01,-199.52 361.31,-191.25"/>
<polygon fill="black" stroke="black" points="364.73,-192.02 362.83,-181.6 357.82,-190.93 364.73,-192.02"/>
</g>
<!-- 8 -->
<g id="node9" class="node">
<title>8</title>
<polygon fill="none" stroke="black" points="175.75,-180 105.75,-180 105.75,-144 175.75,-144 175.75,-180"/>
<text text-anchor="middle" x="140.75" y="-157.32" font-family="Times,serif" font-size="14.00">metrics</text>
</g>
<!-- 7&#45;&gt;8 -->
<g id="edge12" class="edge">
<title>7&#45;&gt;8</title>
<path fill="none" stroke="black" d="M320.02,-222.91C287.73,-213.37 238.09,-198.29 186.83,-180.62"/>
<polygon fill="black" stroke="black" points="188.24,-177.41 177.65,-177.43 185.94,-184.02 188.24,-177.41"/>
</g>
<!-- 9 -->
<g id="node10" class="node">
<title>9</title>
<polygon fill="none" stroke="black" points="247.75,-180 193.75,-180 193.75,-144 247.75,-144 247.75,-180"/>
<text text-anchor="middle" x="220.75" y="-157.32" font-family="Times,serif" font-size="14.00">owl</text>
</g>
<!-- 7&#45;&gt;9 -->
<g id="edge15" class="edge">
<title>7&#45;&gt;9</title>
<path fill="none" stroke="black" d="M321.28,-215.52C302.01,-205.45 277.74,-192.77 257.88,-182.4"/>
<polygon fill="black" stroke="black" points="259.77,-179.44 249.29,-177.91 256.53,-185.64 259.77,-179.44"/>
</g>
<!-- 8&#45;&gt;2 -->
<g id="edge16" class="edge">
<title>8&#45;&gt;2</title>
<path fill="none" stroke="black" d="M176.08,-146.63C178.99,-145.67 181.91,-144.78 184.75,-144 280.95,-117.75 397.18,-102.45 459.7,-95.52"/>
<polygon fill="black" stroke="black" points="460.03,-99 469.59,-94.45 459.27,-92.05 460.03,-99"/>
</g>
<!-- 9&#45;&gt;2 -->
<g id="edge17" class="edge">
<title>9&#45;&gt;2</title>
<path fill="none" stroke="black" d="M247.85,-148.97C252.44,-147.16 257.19,-145.43 261.75,-144 329.45,-122.77 410.36,-106.96 459.63,-98.35"/>
<polygon fill="black" stroke="black" points="460.09,-101.83 469.35,-96.68 458.91,-94.93 460.09,-101.83"/>
</g>
<!-- 10 -->
<g id="node11" class="node">
<title>10</title>
<polygon fill="none" stroke="black" points="482.62,-324 378.88,-324 378.88,-288 482.62,-288 482.62,-324"/>
<text text-anchor="middle" x="430.75" y="-301.32" font-family="Times,serif" font-size="14.00">drop&#45;stream</text>
</g>
<!-- 11 -->
<g id="node12" class="node">
<title>11</title>
<polygon fill="none" stroke="black" points="358.75,-396 304.75,-396 304.75,-360 358.75,-360 358.75,-396"/>
<text text-anchor="middle" x="331.75" y="-373.32" font-family="Times,serif" font-size="14.00">grid</text>
</g>
<!-- 11&#45;&gt;0 -->
<g id="edge18" class="edge">
<title>11&#45;&gt;0</title>
<path fill="none" stroke="black" d="M334.87,-359.56C339.29,-339.67 349.25,-307.4 369.75,-288 392.23,-266.73 423.9,-253.88 452,-246.17"/>
<polygon fill="black" stroke="black" points="452.68,-249.61 461.5,-243.74 450.94,-242.83 452.68,-249.61"/>
</g>
<!-- 11&#45;&gt;7 -->
<g id="edge19" class="edge">
<title>11&#45;&gt;7</title>
<path fill="none" stroke="black" d="M331.34,-359.77C331.24,-341.71 331.97,-312.61 336.75,-288 338.36,-279.7 340.96,-270.92 343.68,-262.95"/>
<polygon fill="black" stroke="black" points="346.89,-264.36 347.01,-253.76 340.31,-261.97 346.89,-264.36"/>
</g>
<!-- 11&#45;&gt;10 -->
<g id="edge20" class="edge">
<title>11&#45;&gt;10</title>
<path fill="none" stroke="black" d="M356.48,-359.52C368.74,-350.85 383.73,-340.25 397.02,-330.85"/>
<polygon fill="black" stroke="black" points="398.96,-333.77 405.1,-325.13 394.92,-328.05 398.96,-333.77"/>
</g>
<!-- 12 -->
<g id="node13" class="node">
<title>12</title>
<polygon fill="none" stroke="black" points="204.25,-252 77.25,-252 77.25,-216 204.25,-216 204.25,-252"/>
<text text-anchor="middle" x="140.75" y="-229.32" font-family="Times,serif" font-size="14.00">metrics&#45;domain</text>
</g>
<!-- 11&#45;&gt;12 -->
<g id="edge21" class="edge">
<title>11&#45;&gt;12</title>
<path fill="none" stroke="black" d="M308.33,-359.59C274.44,-334.4 211.61,-287.68 173.25,-259.17"/>
<polygon fill="black" stroke="black" points="175.39,-256.39 165.28,-253.24 171.21,-262.01 175.39,-256.39"/>
</g>
<!-- 13 -->
<g id="node14" class="node">
<title>13</title>
<polygon fill="none" stroke="black" points="573.25,-324 500.25,-324 500.25,-288 573.25,-288 573.25,-324"/>
<text text-anchor="middle" x="536.75" y="-301.32" font-family="Times,serif" font-size="14.00">site&#45;app</text>
</g>
<!-- 11&#45;&gt;13 -->
<g id="edge22" class="edge">
<title>11&#45;&gt;13</title>
<path fill="none" stroke="black" d="M359.04,-368.34C388.93,-358.77 438.49,-342.67 489.42,-324.77"/>
<polygon fill="black" stroke="black" points="490.27,-328.18 498.53,-321.54 487.94,-321.58 490.27,-328.18"/>
</g>
<!-- 15 -->
<g id="node16" class="node">
<title>15</title>
<polygon fill="none" stroke="black" points="185.5,-324 0,-324 0,-288 185.5,-288 185.5,-324"/>
<text text-anchor="middle" x="92.75" y="-301.32" font-family="Times,serif" font-size="14.00">tower&#45;sessions&#45;db&#45;store</text>
</g>
<!-- 11&#45;&gt;15 -->
<g id="edge23" class="edge">
<title>11&#45;&gt;15</title>
<path fill="none" stroke="black" d="M304.33,-368.97C270.09,-358.94 210.26,-341.42 162.94,-327.56"/>
<polygon fill="black" stroke="black" points="164.16,-324.27 153.58,-324.82 162.2,-330.99 164.16,-324.27"/>
</g>
<!-- 12&#45;&gt;2 -->
<g id="edge25" class="edge">
<title>12&#45;&gt;2</title>
<path fill="none" stroke="black" d="M121.26,-215.7C101.97,-196.54 77.87,-165.5 96.75,-144 120.44,-117.03 358.54,-99.73 459.69,-93.55"/>
<polygon fill="black" stroke="black" points="459.75,-97.05 469.52,-92.96 459.33,-90.07 459.75,-97.05"/>
</g>
<!-- 12&#45;&gt;8 -->
<g id="edge24" class="edge">
<title>12&#45;&gt;8</title>
<path fill="none" stroke="black" d="M140.75,-215.7C140.75,-208.41 140.75,-199.73 140.75,-191.54"/>
<polygon fill="black" stroke="black" points="144.25,-191.62 140.75,-181.62 137.25,-191.62 144.25,-191.62"/>
</g>
<!-- 13&#45;&gt;0 -->
<g id="edge26" class="edge">
<title>13&#45;&gt;0</title>
<path fill="none" stroke="black" stroke-dasharray="1,5" d="M531.56,-287.7C529.32,-280.24 526.65,-271.32 524.14,-262.97"/>
<polygon fill="black" stroke="black" points="527.54,-262.13 521.32,-253.55 520.84,-264.14 527.54,-262.13"/>
</g>
<!-- 13&#45;&gt;2 -->
<g id="edge28" class="edge">
<title>13&#45;&gt;2</title>
<path fill="none" stroke="black" d="M573.51,-292.2C640,-267.07 768.93,-208.12 718.75,-144 698.17,-117.7 606.24,-102.63 549.77,-95.7"/>
<polygon fill="black" stroke="black" points="550.49,-92.26 540.14,-94.56 549.66,-99.21 550.49,-92.26"/>
</g>
<!-- 13&#45;&gt;7 -->
<g id="edge27" class="edge">
<title>13&#45;&gt;7</title>
<path fill="none" stroke="black" stroke-dasharray="1,5" d="M499.92,-290.83C471.02,-279.72 430.67,-264.2 399.84,-252.34"/>
<polygon fill="black" stroke="black" points="401.37,-249.18 390.78,-248.86 398.86,-255.71 401.37,-249.18"/>
</g>
<!-- 14 -->
<g id="node15" class="node">
<title>14</title>
<polygon fill="none" stroke="black" points="880.12,-252 785.38,-252 785.38,-216 880.12,-216 880.12,-252"/>
<text text-anchor="middle" x="832.75" y="-229.32" font-family="Times,serif" font-size="14.00">site&#45;paddle</text>
</g>
<!-- 13&#45;&gt;14 -->
<g id="edge29" class="edge">
<title>13&#45;&gt;14</title>
<path fill="none" stroke="black" d="M573.52,-297.3C619.89,-287.46 701.99,-269.57 771.75,-252 772.57,-251.79 773.39,-251.58 774.22,-251.37"/>
<polygon fill="black" stroke="black" points="774.94,-254.8 783.73,-248.88 773.17,-248.03 774.94,-254.8"/>
</g>
<!-- 14&#45;&gt;2 -->
<g id="edge30" class="edge">
<title>14&#45;&gt;2</title>
<path fill="none" stroke="black" d="M825.72,-215.55C816.51,-195.03 798.34,-161.53 771.75,-144 735.83,-120.32 615.95,-103.51 549.71,-95.78"/>
<polygon fill="black" stroke="black" points="550.22,-92.32 539.89,-94.66 549.43,-99.27 550.22,-92.32"/>
</g>
<!-- 15&#45;&gt;2 -->
<g id="edge31" class="edge">
<title>15&#45;&gt;2</title>
<path fill="none" stroke="black" d="M82.12,-287.56C76.65,-277.54 70.55,-264.51 67.75,-252 57.11,-204.51 49.35,-176.3 85.75,-144 140.24,-95.65 362.59,-90.43 459.38,-90.51"/>
<polygon fill="black" stroke="black" points="459.29,-94.01 469.3,-90.54 459.31,-87.01 459.29,-94.01"/>
</g>
<!-- 16 -->
<g id="node17" class="node">
<title>16</title>
<polygon fill="none" stroke="black" points="963.62,-180 895.88,-180 895.88,-144 963.62,-144 963.62,-180"/>
<text text-anchor="middle" x="929.75" y="-157.32" font-family="Times,serif" font-size="14.00">junk&#45;cli</text>
</g>
<!-- 16&#45;&gt;2 -->
<g id="edge32" class="edge">
<title>16&#45;&gt;2</title>
<path fill="none" stroke="black" d="M895.73,-146.7C892.72,-145.7 889.7,-144.78 886.75,-144 767.45,-112.62 622.01,-98.96 549.84,-93.76"/>
<polygon fill="black" stroke="black" points="550.22,-90.28 540,-93.08 549.73,-97.26 550.22,-90.28"/>
</g>
<!-- 17 -->
<g id="node18" class="node">
<title>17</title>
<polygon fill="none" stroke="black" points="590.88,-396 482.62,-396 482.62,-360 590.88,-360 590.88,-396"/>
<text text-anchor="middle" x="536.75" y="-373.32" font-family="Times,serif" font-size="14.00">site&#45;frontend</text>
</g>
<!-- 17&#45;&gt;13 -->
<g id="edge33" class="edge">
<title>17&#45;&gt;13</title>
<path fill="none" stroke="black" d="M536.75,-359.7C536.75,-352.41 536.75,-343.73 536.75,-335.54"/>
<polygon fill="black" stroke="black" points="540.25,-335.62 536.75,-325.62 533.25,-335.62 540.25,-335.62"/>
</g>
</g>
</svg>
