<?xml version="1.0" encoding="UTF-8" standalone="no"?>
<!DOCTYPE svg PUBLIC "-//W3C//DTD SVG 1.1//EN"
 "http://www.w3.org/Graphics/SVG/1.1/DTD/svg11.dtd">
<!-- Generated by graphviz version 12.2.1 (0)
 -->
<!-- Pages: 1 -->
<svg width="932pt" height="404pt"
 viewBox="0.00 0.00 932.38 404.00" xmlns="http://www.w3.org/2000/svg" xmlns:xlink="http://www.w3.org/1999/xlink">
<g id="graph0" class="graph" transform="scale(1 1) rotate(0) translate(4 400)">
<polygon fill="white" stroke="none" points="-4,4 -4,-400 928.38,-400 928.38,4 -4,4"/>
<!-- 0 -->
<g id="node1" class="node">
<title>0</title>
<polygon fill="none" stroke="black" points="511.12,-252 405.88,-252 405.88,-216 511.12,-216 511.12,-252"/>
<text text-anchor="middle" x="458.5" y="-229.32" font-family="Times,serif" font-size="14.00">auth&#45;domain</text>
</g>
<!-- 1 -->
<g id="node2" class="node">
<title>1</title>
<polygon fill="none" stroke="black" points="486.5,-180 368.5,-180 368.5,-144 486.5,-144 486.5,-180"/>
<text text-anchor="middle" x="427.5" y="-157.32" font-family="Times,serif" font-size="14.00">billing&#45;domain</text>
</g>
<!-- 0&#45;&gt;1 -->
<g id="edge1" class="edge">
<title>0&#45;&gt;1</title>
<path fill="none" stroke="black" d="M450.84,-215.7C447.46,-208.07 443.41,-198.92 439.63,-190.4"/>
<polygon fill="black" stroke="black" points="442.94,-189.21 435.69,-181.49 436.54,-192.05 442.94,-189.21"/>
</g>
<!-- 2 -->
<g id="node3" class="node">
<title>2</title>
<polygon fill="none" stroke="black" points="593,-108 526,-108 526,-72 593,-72 593,-108"/>
<text text-anchor="middle" x="559.5" y="-85.33" font-family="Times,serif" font-size="14.00">models</text>
</g>
<!-- 0&#45;&gt;2 -->
<g id="edge3" class="edge">
<title>0&#45;&gt;2</title>
<path fill="none" stroke="black" d="M511.35,-231.5C549.3,-227.32 598.06,-214.89 623.5,-180 632.93,-167.07 630.31,-158.48 623.5,-144 618.19,-132.71 609.16,-122.99 599.53,-115.08"/>
<polygon fill="black" stroke="black" points="601.9,-112.48 591.81,-109.24 597.67,-118.07 601.9,-112.48"/>
</g>
<!-- 4 -->
<g id="node5" class="node">
<title>4</title>
<polygon fill="none" stroke="black" points="614,-180 505,-180 505,-144 614,-144 614,-180"/>
<text text-anchor="middle" x="559.5" y="-157.32" font-family="Times,serif" font-size="14.00">meta&#45;domain</text>
</g>
<!-- 0&#45;&gt;4 -->
<g id="edge2" class="edge">
<title>0&#45;&gt;4</title>
<path fill="none" stroke="black" d="M483.73,-215.52C496.35,-206.76 511.82,-196.04 525.48,-186.58"/>
<polygon fill="black" stroke="black" points="527.13,-189.7 533.35,-181.12 523.14,-183.94 527.13,-189.7"/>
</g>
<!-- 5 -->
<g id="node6" class="node">
<title>5</title>
<polygon fill="none" stroke="black" points="350.5,-180 226.5,-180 226.5,-144 350.5,-144 350.5,-180"/>
<text text-anchor="middle" x="288.5" y="-157.32" font-family="Times,serif" font-size="14.00">mutate&#45;domain</text>
</g>
<!-- 0&#45;&gt;5 -->
<g id="edge4" class="edge">
<title>0&#45;&gt;5</title>
<path fill="none" stroke="black" d="M416.04,-215.52C393.34,-206.17 365.18,-194.57 341.1,-184.66"/>
<polygon fill="black" stroke="black" points="342.69,-181.53 332.11,-180.96 340.03,-188 342.69,-181.53"/>
</g>
<!-- 1&#45;&gt;2 -->
<g id="edge5" class="edge">
<title>1&#45;&gt;2</title>
<path fill="none" stroke="black" d="M460.47,-143.52C477.53,-134.47 498.55,-123.32 516.84,-113.62"/>
<polygon fill="black" stroke="black" points="518.42,-116.75 525.61,-108.97 515.14,-110.56 518.42,-116.75"/>
</g>
<!-- 3 -->
<g id="node4" class="node">
<title>3</title>
<polygon fill="none" stroke="black" points="611,-36 508,-36 508,0 611,0 611,-36"/>
<text text-anchor="middle" x="559.5" y="-13.32" font-family="Times,serif" font-size="14.00">model&#45;types</text>
</g>
<!-- 2&#45;&gt;3 -->
<g id="edge6" class="edge">
<title>2&#45;&gt;3</title>
<path fill="none" stroke="black" d="M559.5,-71.7C559.5,-64.41 559.5,-55.73 559.5,-47.54"/>
<polygon fill="black" stroke="black" points="563,-47.62 559.5,-37.62 556,-47.62 563,-47.62"/>
</g>
<!-- 4&#45;&gt;2 -->
<g id="edge7" class="edge">
<title>4&#45;&gt;2</title>
<path fill="none" stroke="black" d="M559.5,-143.7C559.5,-136.41 559.5,-127.73 559.5,-119.54"/>
<polygon fill="black" stroke="black" points="563,-119.62 559.5,-109.62 556,-119.62 563,-119.62"/>
</g>
<!-- 5&#45;&gt;2 -->
<g id="edge8" class="edge">
<title>5&#45;&gt;2</title>
<path fill="none" stroke="black" d="M350.67,-144.94C400.7,-132.02 469.81,-114.17 514.58,-102.6"/>
<polygon fill="black" stroke="black" points="515.41,-106 524.22,-100.11 513.66,-99.22 515.41,-106"/>
</g>
<!-- 6 -->
<g id="node7" class="node">
<title>6</title>
<polygon fill="none" stroke="black" points="838.5,-180 784.5,-180 784.5,-144 838.5,-144 838.5,-180"/>
<text text-anchor="middle" x="811.5" y="-157.32" font-family="Times,serif" font-size="14.00">cli</text>
</g>
<!-- 6&#45;&gt;2 -->
<g id="edge9" class="edge">
<title>6&#45;&gt;2</title>
<path fill="none" stroke="black" d="M784.36,-149.09C779.78,-147.27 775.04,-145.5 770.5,-144 714.17,-125.36 647.52,-109.64 604.42,-100.27"/>
<polygon fill="black" stroke="black" points="605.18,-96.86 594.67,-98.18 603.71,-103.7 605.18,-96.86"/>
</g>
<!-- 7 -->
<g id="node8" class="node">
<title>7</title>
<polygon fill="none" stroke="black" points="350.75,-252 282.25,-252 282.25,-216 350.75,-216 350.75,-252"/>
<text text-anchor="middle" x="316.5" y="-229.32" font-family="Times,serif" font-size="14.00">domain</text>
</g>
<!-- 7&#45;&gt;1 -->
<g id="edge10" class="edge">
<title>7&#45;&gt;1</title>
<path fill="none" stroke="black" d="M344.22,-215.52C358.24,-206.68 375.43,-195.84 390.55,-186.3"/>
<polygon fill="black" stroke="black" points="392.26,-189.36 398.85,-181.07 388.52,-183.44 392.26,-189.36"/>
</g>
<!-- 7&#45;&gt;2 -->
<g id="edge13" class="edge">
<title>7&#45;&gt;2</title>
<path fill="none" stroke="black" d="M281.82,-228.14C220.46,-218.18 103.05,-192.24 145.5,-144 169.59,-116.63 411.73,-99.53 514.14,-93.48"/>
<polygon fill="black" stroke="black" points="514.34,-96.97 524.12,-92.9 513.93,-89.98 514.34,-96.97"/>
</g>
<!-- 7&#45;&gt;4 -->
<g id="edge11" class="edge">
<title>7&#45;&gt;4</title>
<path fill="none" stroke="black" d="M351.06,-223.05C388.18,-212.35 448.03,-195.11 494.1,-181.84"/>
<polygon fill="black" stroke="black" points="494.8,-185.28 503.44,-179.15 492.86,-178.55 494.8,-185.28"/>
</g>
<!-- 7&#45;&gt;5 -->
<g id="edge14" class="edge">
<title>7&#45;&gt;5</title>
<path fill="none" stroke="black" d="M309.58,-215.7C306.56,-208.15 302.95,-199.12 299.57,-190.68"/>
<polygon fill="black" stroke="black" points="302.87,-189.49 295.9,-181.51 296.37,-192.09 302.87,-189.49"/>
</g>
<!-- 8 -->
<g id="node9" class="node">
<title>8</title>
<polygon fill="none" stroke="black" points="98.5,-180 28.5,-180 28.5,-144 98.5,-144 98.5,-180"/>
<text text-anchor="middle" x="63.5" y="-157.32" font-family="Times,serif" font-size="14.00">metrics</text>
</g>
<!-- 7&#45;&gt;8 -->
<g id="edge12" class="edge">
<title>7&#45;&gt;8</title>
<path fill="none" stroke="black" d="M281.98,-224.92C241.22,-215.18 171.51,-197.87 112.5,-180 111.54,-179.71 110.57,-179.41 109.59,-179.11"/>
<polygon fill="black" stroke="black" points="111.02,-175.89 100.43,-176.15 108.87,-182.55 111.02,-175.89"/>
</g>
<!-- 9 -->
<g id="node10" class="node">
<title>9</title>
<polygon fill="none" stroke="black" points="208.5,-180 154.5,-180 154.5,-144 208.5,-144 208.5,-180"/>
<text text-anchor="middle" x="181.5" y="-157.32" font-family="Times,serif" font-size="14.00">owl</text>
</g>
<!-- 7&#45;&gt;9 -->
<g id="edge15" class="edge">
<title>7&#45;&gt;9</title>
<path fill="none" stroke="black" d="M282.78,-215.52C263.36,-205.45 238.92,-192.77 218.91,-182.4"/>
<polygon fill="black" stroke="black" points="220.73,-179.4 210.24,-177.9 217.51,-185.61 220.73,-179.4"/>
</g>
<!-- 8&#45;&gt;2 -->
<g id="edge16" class="edge">
<title>8&#45;&gt;2</title>
<path fill="none" stroke="black" d="M98.83,-147.73C103.39,-146.32 108.02,-145.03 112.5,-144 257.14,-110.75 433.17,-97.66 514.43,-93.12"/>
<polygon fill="black" stroke="black" points="514.4,-96.63 524.2,-92.6 514.03,-89.64 514.4,-96.63"/>
</g>
<!-- 9&#45;&gt;2 -->
<g id="edge17" class="edge">
<title>9&#45;&gt;2</title>
<path fill="none" stroke="black" d="M208.69,-147.17C211.62,-145.98 214.59,-144.89 217.5,-144 321.01,-112.27 448.23,-98.95 514.51,-93.84"/>
<polygon fill="black" stroke="black" points="514.55,-97.35 524.26,-93.12 514.03,-90.37 514.55,-97.35"/>
</g>
<!-- 10 -->
<g id="node11" class="node">
<title>10</title>
<polygon fill="none" stroke="black" points="449.5,-396 395.5,-396 395.5,-360 449.5,-360 449.5,-396"/>
<text text-anchor="middle" x="422.5" y="-373.32" font-family="Times,serif" font-size="14.00">grid</text>
</g>
<!-- 10&#45;&gt;0 -->
<g id="edge18" class="edge">
<title>10&#45;&gt;0</title>
<path fill="none" stroke="black" d="M425.64,-359.82C429.05,-341.8 434.91,-312.73 441.5,-288 443.7,-279.75 446.4,-270.88 449.01,-262.8"/>
<polygon fill="black" stroke="black" points="452.27,-264.09 452.08,-253.49 445.62,-261.9 452.27,-264.09"/>
</g>
<!-- 10&#45;&gt;7 -->
<g id="edge19" class="edge">
<title>10&#45;&gt;7</title>
<path fill="none" stroke="black" d="M409.5,-359.59C391.12,-334.97 357.41,-289.8 336.01,-261.14"/>
<polygon fill="black" stroke="black" points="338.96,-259.24 330.18,-253.32 333.36,-263.43 338.96,-259.24"/>
</g>
<!-- 11 -->
<g id="node12" class="node">
<title>11</title>
<polygon fill="none" stroke="black" points="127,-252 0,-252 0,-216 127,-216 127,-252"/>
<text text-anchor="middle" x="63.5" y="-229.32" font-family="Times,serif" font-size="14.00">metrics&#45;domain</text>
</g>
<!-- 10&#45;&gt;11 -->
<g id="edge20" class="edge">
<title>10&#45;&gt;11</title>
<path fill="none" stroke="black" d="M395.22,-366.21C336.31,-342.91 196.2,-287.49 118.23,-256.65"/>
<polygon fill="black" stroke="black" points="119.65,-253.45 109.07,-253.02 117.08,-259.96 119.65,-253.45"/>
</g>
<!-- 12 -->
<g id="node13" class="node">
<title>12</title>
<polygon fill="none" stroke="black" points="727,-324 654,-324 654,-288 727,-288 727,-324"/>
<text text-anchor="middle" x="690.5" y="-301.32" font-family="Times,serif" font-size="14.00">site&#45;app</text>
</g>
<!-- 10&#45;&gt;12 -->
<g id="edge21" class="edge">
<title>10&#45;&gt;12</title>
<path fill="none" stroke="black" d="M449.92,-371.66C490.31,-363.55 568.3,-346.93 642.83,-324.63"/>
<polygon fill="black" stroke="black" points="643.8,-328 652.35,-321.74 641.76,-321.3 643.8,-328"/>
</g>
<!-- 14 -->
<g id="node15" class="node">
<title>14</title>
<polygon fill="none" stroke="black" points="636.25,-324 450.75,-324 450.75,-288 636.25,-288 636.25,-324"/>
<text text-anchor="middle" x="543.5" y="-301.32" font-family="Times,serif" font-size="14.00">tower&#45;sessions&#45;db&#45;store</text>
</g>
<!-- 10&#45;&gt;14 -->
<g id="edge22" class="edge">
<title>10&#45;&gt;14</title>
<path fill="none" stroke="black" d="M449.96,-361.12C465.96,-351.86 486.41,-340.03 504.11,-329.79"/>
<polygon fill="black" stroke="black" points="505.4,-333.09 512.3,-325.05 501.89,-327.03 505.4,-333.09"/>
</g>
<!-- 11&#45;&gt;2 -->
<g id="edge24" class="edge">
<title>11&#45;&gt;2</title>
<path fill="none" stroke="black" d="M43.88,-215.59C24.49,-196.33 0.28,-165.2 19.5,-144 52.52,-107.58 390.8,-95.31 514.51,-92.03"/>
<polygon fill="black" stroke="black" points="514.37,-95.53 524.28,-91.78 514.19,-88.53 514.37,-95.53"/>
</g>
<!-- 11&#45;&gt;8 -->
<g id="edge23" class="edge">
<title>11&#45;&gt;8</title>
<path fill="none" stroke="black" d="M63.5,-215.7C63.5,-208.41 63.5,-199.73 63.5,-191.54"/>
<polygon fill="black" stroke="black" points="67,-191.62 63.5,-181.62 60,-191.62 67,-191.62"/>
</g>
<!-- 12&#45;&gt;0 -->
<g id="edge25" class="edge">
<title>12&#45;&gt;0</title>
<path fill="none" stroke="black" stroke-dasharray="1,5" d="M653.75,-290.83C650.97,-289.84 648.2,-288.89 645.5,-288 604.84,-274.59 558.55,-261.45 522.2,-251.61"/>
<polygon fill="black" stroke="black" points="523.28,-248.28 512.72,-249.06 521.47,-255.04 523.28,-248.28"/>
</g>
<!-- 12&#45;&gt;2 -->
<g id="edge27" class="edge">
<title>12&#45;&gt;2</title>
<path fill="none" stroke="black" d="M691.33,-287.6C691.96,-255.86 689.06,-187.78 656.5,-144 643.42,-126.41 622.7,-113.97 603.77,-105.58"/>
<polygon fill="black" stroke="black" points="605.17,-102.37 594.59,-101.79 602.5,-108.84 605.17,-102.37"/>
</g>
<!-- 12&#45;&gt;7 -->
<g id="edge26" class="edge">
<title>12&#45;&gt;7</title>
<path fill="none" stroke="black" stroke-dasharray="1,5" d="M653.87,-290.42C651.06,-289.53 648.25,-288.71 645.5,-288 537.23,-260.08 506.58,-271.63 396.5,-252 385.28,-250 373.24,-247.58 361.98,-245.21"/>
<polygon fill="black" stroke="black" points="363.05,-241.86 352.53,-243.18 361.58,-248.7 363.05,-241.86"/>
</g>
<!-- 13 -->
<g id="node14" class="node">
<title>13</title>
<polygon fill="none" stroke="black" points="840.88,-252 746.12,-252 746.12,-216 840.88,-216 840.88,-252"/>
<text text-anchor="middle" x="793.5" y="-229.32" font-family="Times,serif" font-size="14.00">site&#45;paddle</text>
</g>
<!-- 12&#45;&gt;13 -->
<g id="edge28" class="edge">
<title>12&#45;&gt;13</title>
<path fill="none" stroke="black" d="M716.23,-287.52C729.1,-278.76 744.88,-268.04 758.81,-258.58"/>
<polygon fill="black" stroke="black" points="760.55,-261.63 766.85,-253.11 756.61,-255.84 760.55,-261.63"/>
</g>
<!-- 13&#45;&gt;2 -->
<g id="edge29" class="edge">
<title>13&#45;&gt;2</title>
<path fill="none" stroke="black" d="M785.99,-215.64C776.42,-195.53 758.01,-162.74 732.5,-144 694.53,-116.11 641.67,-102.7 604.4,-96.39"/>
<polygon fill="black" stroke="black" points="605.29,-92.99 594.86,-94.88 604.19,-99.9 605.29,-92.99"/>
</g>
<!-- 14&#45;&gt;2 -->
<g id="edge30" class="edge">
<title>14&#45;&gt;2</title>
<path fill="none" stroke="black" d="M563.45,-287.51C587.11,-265.28 625.28,-224.44 640.5,-180 645.68,-164.86 648.11,-158.07 640.5,-144 632.32,-128.87 617.72,-117.36 603.16,-109"/>
<polygon fill="black" stroke="black" points="604.97,-106 594.5,-104.42 601.7,-112.19 604.97,-106"/>
</g>
<!-- 15 -->
<g id="node16" class="node">
<title>15</title>
<polygon fill="none" stroke="black" points="924.38,-180 856.62,-180 856.62,-144 924.38,-144 924.38,-180"/>
<text text-anchor="middle" x="890.5" y="-157.32" font-family="Times,serif" font-size="14.00">junk&#45;cli</text>
</g>
<!-- 15&#45;&gt;2 -->
<g id="edge31" class="edge">
<title>15&#45;&gt;2</title>
<path fill="none" stroke="black" d="M856.44,-146.84C853.44,-145.81 850.43,-144.84 847.5,-144 763.15,-119.81 661.61,-104.15 604.42,-96.51"/>
<polygon fill="black" stroke="black" points="605.12,-93.07 594.75,-95.24 604.21,-100.01 605.12,-93.07"/>
</g>
<!-- 16 -->
<g id="node17" class="node">
<title>16</title>
<polygon fill="none" stroke="black" points="744.62,-396 636.38,-396 636.38,-360 744.62,-360 744.62,-396"/>
<text text-anchor="middle" x="690.5" y="-373.32" font-family="Times,serif" font-size="14.00">site&#45;frontend</text>
</g>
<!-- 16&#45;&gt;12 -->
<g id="edge32" class="edge">
<title>16&#45;&gt;12</title>
<path fill="none" stroke="black" d="M690.5,-359.7C690.5,-352.41 690.5,-343.73 690.5,-335.54"/>
<polygon fill="black" stroke="black" points="694,-335.62 690.5,-325.62 687,-335.62 694,-335.62"/>
</g>
</g>
</svg>
