<?xml version="1.0" encoding="UTF-8" standalone="no"?>
<!DOCTYPE svg PUBLIC "-//W3C//DTD SVG 1.1//EN"
 "http://www.w3.org/Graphics/SVG/1.1/DTD/svg11.dtd">
<!-- Generated by graphviz version 12.2.1 (0)
 -->
<!-- Pages: 1 -->
<svg width="268pt" height="188pt"
 viewBox="0.00 0.00 268.00 188.00" xmlns="http://www.w3.org/2000/svg" xmlns:xlink="http://www.w3.org/1999/xlink">
<g id="graph0" class="graph" transform="scale(1 1) rotate(0) translate(4 184)">
<polygon fill="white" stroke="none" points="-4,4 -4,-184 264,-184 264,4 -4,4"/>
<!-- 0 -->
<g id="node1" class="node">
<title>0</title>
<polygon fill="none" stroke="black" points="54,-108 0,-108 0,-72 54,-72 54,-108"/>
<text text-anchor="middle" x="27" y="-85.33" font-family="Times,serif" font-size="14.00">cli</text>
</g>
<!-- 1 -->
<g id="node2" class="node">
<title>1</title>
<polygon fill="none" stroke="black" points="163.5,-36 96.5,-36 96.5,0 163.5,0 163.5,-36"/>
<text text-anchor="middle" x="130" y="-13.32" font-family="Times,serif" font-size="14.00">models</text>
</g>
<!-- 0&#45;&gt;1 -->
<g id="edge1" class="edge">
<title>0&#45;&gt;1</title>
<path fill="none" stroke="black" d="M52.73,-71.52C65.6,-62.76 81.38,-52.04 95.31,-42.58"/>
<polygon fill="black" stroke="black" points="97.05,-45.63 103.35,-37.11 93.11,-39.84 97.05,-45.63"/>
</g>
<!-- 2 -->
<g id="node3" class="node">
<title>2</title>
<polygon fill="none" stroke="black" points="157,-180 103,-180 103,-144 157,-144 157,-180"/>
<text text-anchor="middle" x="130" y="-157.32" font-family="Times,serif" font-size="14.00">grid</text>
</g>
<!-- 3 -->
<g id="node4" class="node">
<title>3</title>
<polygon fill="none" stroke="black" points="187.5,-108 72.5,-108 72.5,-72 187.5,-72 187.5,-108"/>
<text text-anchor="middle" x="130" y="-85.33" font-family="Times,serif" font-size="14.00">prime&#45;domain</text>
</g>
<!-- 2&#45;&gt;3 -->
<g id="edge2" class="edge">
<title>2&#45;&gt;3</title>
<path fill="none" stroke="black" d="M130,-143.7C130,-136.41 130,-127.73 130,-119.54"/>
<polygon fill="black" stroke="black" points="133.5,-119.62 130,-109.62 126.5,-119.62 133.5,-119.62"/>
</g>
<!-- 3&#45;&gt;1 -->
<g id="edge3" class="edge">
<title>3&#45;&gt;1</title>
<path fill="none" stroke="black" d="M130,-71.7C130,-64.41 130,-55.73 130,-47.54"/>
<polygon fill="black" stroke="black" points="133.5,-47.62 130,-37.62 126.5,-47.62 133.5,-47.62"/>
</g>
<!-- 4 -->
<g id="node5" class="node">
<title>4</title>
<polygon fill="none" stroke="black" points="260,-108 206,-108 206,-72 260,-72 260,-108"/>
<text text-anchor="middle" x="233" y="-85.33" font-family="Times,serif" font-size="14.00">owl</text>
</g>
<!-- 4&#45;&gt;1 -->
<g id="edge4" class="edge">
<title>4&#45;&gt;1</title>
<path fill="none" stroke="black" d="M207.27,-71.52C194.4,-62.76 178.62,-52.04 164.69,-42.58"/>
<polygon fill="black" stroke="black" points="166.89,-39.84 156.65,-37.11 162.95,-45.63 166.89,-39.84"/>
</g>
</g>
</svg>
