<?xml version="1.0" encoding="UTF-8" standalone="no"?>
<!DOCTYPE svg PUBLIC "-//W3C//DTD SVG 1.1//EN"
 "http://www.w3.org/Graphics/SVG/1.1/DTD/svg11.dtd">
<!-- Generated by graphviz version 12.2.1 (0)
 -->
<!-- Pages: 1 -->
<svg width="930pt" height="476pt"
 viewBox="0.00 0.00 930.25 476.00" xmlns="http://www.w3.org/2000/svg" xmlns:xlink="http://www.w3.org/1999/xlink">
<g id="graph0" class="graph" transform="scale(1 1) rotate(0) translate(4 472)">
<polygon fill="white" stroke="none" points="-4,4 -4,-472 926.25,-472 926.25,4 -4,4"/>
<!-- 0 -->
<g id="node1" class="node">
<title>0</title>
<polygon fill="none" stroke="black" points="600,-324 494.75,-324 494.75,-288 600,-288 600,-324"/>
<text text-anchor="middle" x="547.38" y="-301.32" font-family="Times,serif" font-size="14.00">auth&#45;domain</text>
</g>
<!-- 1 -->
<g id="node2" class="node">
<title>1</title>
<polygon fill="none" stroke="black" points="760.38,-252 642.38,-252 642.38,-216 760.38,-216 760.38,-252"/>
<text text-anchor="middle" x="701.38" y="-229.32" font-family="Times,serif" font-size="14.00">billing&#45;domain</text>
</g>
<!-- 0&#45;&gt;1 -->
<g id="edge1" class="edge">
<title>0&#45;&gt;1</title>
<path fill="none" stroke="black" d="M585.84,-287.52C606.13,-278.29 631.23,-266.89 652.84,-257.06"/>
<polygon fill="black" stroke="black" points="654.1,-260.33 661.76,-253.01 651.21,-253.96 654.1,-260.33"/>
</g>
<!-- 2 -->
<g id="node3" class="node">
<title>2</title>
<polygon fill="none" stroke="black" points="463.88,-108 396.88,-108 396.88,-72 463.88,-72 463.88,-108"/>
<text text-anchor="middle" x="430.38" y="-85.33" font-family="Times,serif" font-size="14.00">models</text>
</g>
<!-- 0&#45;&gt;2 -->
<g id="edge3" class="edge">
<title>0&#45;&gt;2</title>
<path fill="none" stroke="black" d="M600.47,-302.77C679.08,-297.36 812.73,-278.91 769.38,-216 702.42,-118.85 550.85,-96.98 475.15,-92.21"/>
<polygon fill="black" stroke="black" points="475.8,-88.74 465.62,-91.69 475.41,-95.73 475.8,-88.74"/>
</g>
<!-- 4 -->
<g id="node5" class="node">
<title>4</title>
<polygon fill="none" stroke="black" points="481.88,-252 372.88,-252 372.88,-216 481.88,-216 481.88,-252"/>
<text text-anchor="middle" x="427.38" y="-229.32" font-family="Times,serif" font-size="14.00">meta&#45;domain</text>
</g>
<!-- 0&#45;&gt;4 -->
<g id="edge2" class="edge">
<title>0&#45;&gt;4</title>
<path fill="none" stroke="black" d="M517.4,-287.52C502.11,-278.6 483.31,-267.63 466.86,-258.03"/>
<polygon fill="black" stroke="black" points="468.67,-255.04 458.27,-253.02 465.15,-261.09 468.67,-255.04"/>
</g>
<!-- 5 -->
<g id="node6" class="node">
<title>5</title>
<polygon fill="none" stroke="black" points="624.38,-252 500.38,-252 500.38,-216 624.38,-216 624.38,-252"/>
<text text-anchor="middle" x="562.38" y="-229.32" font-family="Times,serif" font-size="14.00">mutate&#45;domain</text>
</g>
<!-- 0&#45;&gt;5 -->
<g id="edge4" class="edge">
<title>0&#45;&gt;5</title>
<path fill="none" stroke="black" d="M551.08,-287.7C552.66,-280.32 554.55,-271.52 556.32,-263.25"/>
<polygon fill="black" stroke="black" points="559.72,-264.1 558.39,-253.58 552.87,-262.63 559.72,-264.1"/>
</g>
<!-- 1&#45;&gt;2 -->
<g id="edge5" class="edge">
<title>1&#45;&gt;2</title>
<path fill="none" stroke="black" d="M668.15,-215.59C619.15,-189.91 527.5,-141.89 473.42,-113.55"/>
<polygon fill="black" stroke="black" points="475.28,-110.58 464.79,-109.03 472.03,-116.78 475.28,-110.58"/>
</g>
<!-- 3 -->
<g id="node4" class="node">
<title>3</title>
<polygon fill="none" stroke="black" points="481.88,-36 378.88,-36 378.88,0 481.88,0 481.88,-36"/>
<text text-anchor="middle" x="430.38" y="-13.32" font-family="Times,serif" font-size="14.00">model&#45;types</text>
</g>
<!-- 2&#45;&gt;3 -->
<g id="edge6" class="edge">
<title>2&#45;&gt;3</title>
<path fill="none" stroke="black" d="M430.38,-71.7C430.38,-64.41 430.38,-55.73 430.38,-47.54"/>
<polygon fill="black" stroke="black" points="433.88,-47.62 430.38,-37.62 426.88,-47.62 433.88,-47.62"/>
</g>
<!-- 4&#45;&gt;2 -->
<g id="edge7" class="edge">
<title>4&#45;&gt;2</title>
<path fill="none" stroke="black" d="M434.44,-215.67C438.21,-205.47 442.46,-192.22 444.38,-180 446.85,-164.19 446.44,-159.87 444.38,-144 443.32,-135.88 441.4,-127.24 439.3,-119.34"/>
<polygon fill="black" stroke="black" points="442.72,-118.55 436.61,-109.9 435.99,-120.47 442.72,-118.55"/>
</g>
<!-- 5&#45;&gt;2 -->
<g id="edge8" class="edge">
<title>5&#45;&gt;2</title>
<path fill="none" stroke="black" d="M546.19,-215.59C523.11,-190.76 480.58,-145.01 453.99,-116.4"/>
<polygon fill="black" stroke="black" points="456.68,-114.16 447.31,-109.22 451.56,-118.93 456.68,-114.16"/>
</g>
<!-- 6 -->
<g id="node7" class="node">
<title>6</title>
<polygon fill="none" stroke="black" points="330.38,-180 276.38,-180 276.38,-144 330.38,-144 330.38,-180"/>
<text text-anchor="middle" x="303.38" y="-157.32" font-family="Times,serif" font-size="14.00">cli</text>
</g>
<!-- 6&#45;&gt;2 -->
<g id="edge9" class="edge">
<title>6&#45;&gt;2</title>
<path fill="none" stroke="black" d="M330.62,-145.98C347.55,-136.65 369.65,-124.47 388.74,-113.95"/>
<polygon fill="black" stroke="black" points="390.3,-117.08 397.37,-109.19 386.92,-110.95 390.3,-117.08"/>
</g>
<!-- 7 -->
<g id="node8" class="node">
<title>7</title>
<polygon fill="none" stroke="black" points="461.62,-324 393.12,-324 393.12,-288 461.62,-288 461.62,-324"/>
<text text-anchor="middle" x="427.38" y="-301.32" font-family="Times,serif" font-size="14.00">domain</text>
</g>
<!-- 7&#45;&gt;1 -->
<g id="edge10" class="edge">
<title>7&#45;&gt;1</title>
<path fill="none" stroke="black" d="M461.96,-294.58C469.65,-292.34 477.77,-290.04 485.38,-288 547.44,-271.36 565.81,-268.48 631.14,-252.53"/>
<polygon fill="black" stroke="black" points="631.69,-256 640.57,-250.22 630.03,-249.2 631.69,-256"/>
</g>
<!-- 7&#45;&gt;2 -->
<g id="edge13" class="edge">
<title>7&#45;&gt;2</title>
<path fill="none" stroke="black" d="M396.27,-287.67C383.59,-278.81 370.31,-266.75 363.38,-252 356.57,-237.52 356.22,-230.31 363.38,-216 375.3,-192.15 397.01,-202.47 411.38,-180 422.89,-161.98 427.54,-138.14 429.37,-119.66"/>
<polygon fill="black" stroke="black" points="432.84,-120.16 430.09,-109.93 425.86,-119.64 432.84,-120.16"/>
</g>
<!-- 7&#45;&gt;4 -->
<g id="edge11" class="edge">
<title>7&#45;&gt;4</title>
<path fill="none" stroke="black" d="M427.38,-287.7C427.38,-280.41 427.38,-271.73 427.38,-263.54"/>
<polygon fill="black" stroke="black" points="430.88,-263.62 427.38,-253.62 423.88,-263.62 430.88,-263.62"/>
</g>
<!-- 7&#45;&gt;5 -->
<g id="edge14" class="edge">
<title>7&#45;&gt;5</title>
<path fill="none" stroke="black" d="M461.09,-287.52C478.62,-278.43 500.24,-267.22 519,-257.49"/>
<polygon fill="black" stroke="black" points="520.48,-260.67 527.74,-252.96 517.25,-254.45 520.48,-260.67"/>
</g>
<!-- 8 -->
<g id="node9" class="node">
<title>8</title>
<polygon fill="none" stroke="black" points="277.88,-252 150.88,-252 150.88,-216 277.88,-216 277.88,-252"/>
<text text-anchor="middle" x="214.38" y="-229.32" font-family="Times,serif" font-size="14.00">metrics&#45;domain</text>
</g>
<!-- 7&#45;&gt;8 -->
<g id="edge12" class="edge">
<title>7&#45;&gt;8</title>
<path fill="none" stroke="black" d="M392.68,-293.6C361.78,-283.44 315.78,-268.33 278.25,-255.99"/>
<polygon fill="black" stroke="black" points="279.43,-252.7 268.84,-252.9 277.25,-259.35 279.43,-252.7"/>
</g>
<!-- 10 -->
<g id="node11" class="node">
<title>10</title>
<polygon fill="none" stroke="black" points="402.38,-180 348.38,-180 348.38,-144 402.38,-144 402.38,-180"/>
<text text-anchor="middle" x="375.38" y="-157.32" font-family="Times,serif" font-size="14.00">owl</text>
</g>
<!-- 7&#45;&gt;10 -->
<g id="edge15" class="edge">
<title>7&#45;&gt;10</title>
<path fill="none" stroke="black" d="M392.68,-295.95C370.62,-288.2 343.79,-274.61 330.38,-252 318.08,-231.27 332.46,-206.76 348.15,-188.72"/>
<polygon fill="black" stroke="black" points="350.58,-191.25 354.81,-181.54 345.45,-186.49 350.58,-191.25"/>
</g>
<!-- 8&#45;&gt;2 -->
<g id="edge17" class="edge">
<title>8&#45;&gt;2</title>
<path fill="none" stroke="black" d="M198,-215.67C181.89,-196.47 162.02,-165.41 179.38,-144 204.85,-112.59 320.48,-99.07 385.55,-93.87"/>
<polygon fill="black" stroke="black" points="385.48,-97.38 395.18,-93.13 384.94,-90.4 385.48,-97.38"/>
</g>
<!-- 9 -->
<g id="node10" class="node">
<title>9</title>
<polygon fill="none" stroke="black" points="258.38,-180 188.38,-180 188.38,-144 258.38,-144 258.38,-180"/>
<text text-anchor="middle" x="223.38" y="-157.32" font-family="Times,serif" font-size="14.00">metrics</text>
</g>
<!-- 8&#45;&gt;9 -->
<g id="edge16" class="edge">
<title>8&#45;&gt;9</title>
<path fill="none" stroke="black" d="M216.6,-215.7C217.55,-208.32 218.68,-199.52 219.74,-191.25"/>
<polygon fill="black" stroke="black" points="223.18,-191.97 220.98,-181.61 216.24,-191.08 223.18,-191.97"/>
</g>
<!-- 9&#45;&gt;2 -->
<g id="edge18" class="edge">
<title>9&#45;&gt;2</title>
<path fill="none" stroke="black" d="M258.85,-147.1C261.73,-146.03 264.6,-144.99 267.38,-144 307.18,-129.85 352.96,-115.1 385.85,-104.76"/>
<polygon fill="black" stroke="black" points="386.54,-108.21 395.03,-101.88 384.45,-101.53 386.54,-108.21"/>
</g>
<!-- 10&#45;&gt;2 -->
<g id="edge19" class="edge">
<title>10&#45;&gt;2</title>
<path fill="none" stroke="black" d="M388.97,-143.7C395.3,-135.64 402.96,-125.89 409.96,-116.98"/>
<polygon fill="black" stroke="black" points="412.57,-119.32 416,-109.29 407.07,-115 412.57,-119.32"/>
</g>
<!-- 11 -->
<g id="node12" class="node">
<title>11</title>
<polygon fill="none" stroke="black" points="555.38,-468 501.38,-468 501.38,-432 555.38,-432 555.38,-468"/>
<text text-anchor="middle" x="528.38" y="-445.32" font-family="Times,serif" font-size="14.00">grid</text>
</g>
<!-- 11&#45;&gt;0 -->
<g id="edge20" class="edge">
<title>11&#45;&gt;0</title>
<path fill="none" stroke="black" d="M530.7,-431.59C533.91,-407.61 539.73,-364.14 543.57,-335.42"/>
<polygon fill="black" stroke="black" points="547.03,-335.99 544.88,-325.61 540.09,-335.06 547.03,-335.99"/>
</g>
<!-- 11&#45;&gt;7 -->
<g id="edge21" class="edge">
<title>11&#45;&gt;7</title>
<path fill="none" stroke="black" d="M518.82,-431.74C508.42,-413.41 490.92,-383.85 473.38,-360 466.52,-350.68 458.41,-340.97 450.93,-332.46"/>
<polygon fill="black" stroke="black" points="453.73,-330.33 444.45,-325.21 448.51,-334.99 453.73,-330.33"/>
</g>
<!-- 12 -->
<g id="node13" class="node">
<title>12</title>
<polygon fill="none" stroke="black" points="463.88,-396 390.88,-396 390.88,-360 463.88,-360 463.88,-396"/>
<text text-anchor="middle" x="427.38" y="-373.32" font-family="Times,serif" font-size="14.00">site&#45;app</text>
</g>
<!-- 11&#45;&gt;12 -->
<g id="edge22" class="edge">
<title>11&#45;&gt;12</title>
<path fill="none" stroke="black" d="M503.15,-431.52C490.52,-422.76 475.05,-412.04 461.39,-402.58"/>
<polygon fill="black" stroke="black" points="463.74,-399.94 453.52,-397.12 459.75,-405.7 463.74,-399.94"/>
</g>
<!-- 14 -->
<g id="node15" class="node">
<title>14</title>
<polygon fill="none" stroke="black" points="832.12,-396 646.62,-396 646.62,-360 832.12,-360 832.12,-396"/>
<text text-anchor="middle" x="739.38" y="-373.32" font-family="Times,serif" font-size="14.00">tower&#45;sessions&#45;db&#45;store</text>
</g>
<!-- 11&#45;&gt;14 -->
<g id="edge23" class="edge">
<title>11&#45;&gt;14</title>
<path fill="none" stroke="black" d="M555.53,-439.99C585.81,-429.95 635.82,-413.36 676.04,-400.01"/>
<polygon fill="black" stroke="black" points="677.01,-403.38 685.4,-396.91 674.8,-396.73 677.01,-403.38"/>
</g>
<!-- 12&#45;&gt;0 -->
<g id="edge24" class="edge">
<title>12&#45;&gt;0</title>
<path fill="none" stroke="black" stroke-dasharray="1,5" d="M457.35,-359.52C472.64,-350.6 491.44,-339.63 507.89,-330.03"/>
<polygon fill="black" stroke="black" points="509.6,-333.09 516.48,-325.02 506.08,-327.04 509.6,-333.09"/>
</g>
<!-- 12&#45;&gt;2 -->
<g id="edge26" class="edge">
<title>12&#45;&gt;2</title>
<path fill="none" stroke="black" d="M390.38,-373.41C326.61,-364.99 197.45,-337.7 141.38,-252 132.61,-238.61 138.52,-231.74 141.38,-216 147.47,-182.37 142.36,-166.17 168.38,-144 200.53,-116.6 319.47,-101.36 385.49,-94.85"/>
<polygon fill="black" stroke="black" points="385.65,-98.35 395.27,-93.92 384.98,-91.38 385.65,-98.35"/>
</g>
<!-- 12&#45;&gt;7 -->
<g id="edge25" class="edge">
<title>12&#45;&gt;7</title>
<path fill="none" stroke="black" stroke-dasharray="1,5" d="M427.38,-359.7C427.38,-352.41 427.38,-343.73 427.38,-335.54"/>
<polygon fill="black" stroke="black" points="430.88,-335.62 427.38,-325.62 423.88,-335.62 430.88,-335.62"/>
</g>
<!-- 13 -->
<g id="node14" class="node">
<title>13</title>
<polygon fill="none" stroke="black" points="94.75,-324 0,-324 0,-288 94.75,-288 94.75,-324"/>
<text text-anchor="middle" x="47.38" y="-301.32" font-family="Times,serif" font-size="14.00">site&#45;paddle</text>
</g>
<!-- 12&#45;&gt;13 -->
<g id="edge27" class="edge">
<title>12&#45;&gt;13</title>
<path fill="none" stroke="black" d="M390.77,-372.22C331.21,-364.15 209.77,-346.48 108.38,-324 107.7,-323.85 107.03,-323.7 106.35,-323.55"/>
<polygon fill="black" stroke="black" points="107.22,-320.15 96.67,-321.21 105.57,-326.96 107.22,-320.15"/>
</g>
<!-- 13&#45;&gt;2 -->
<g id="edge28" class="edge">
<title>13&#45;&gt;2</title>
<path fill="none" stroke="black" d="M48.48,-287.71C51.61,-254.25 63.5,-180.73 108.38,-144 149.97,-109.95 306.82,-97.26 385.21,-92.97"/>
<polygon fill="black" stroke="black" points="385.32,-96.47 395.12,-92.45 384.96,-89.48 385.32,-96.47"/>
</g>
<!-- 14&#45;&gt;2 -->
<g id="edge29" class="edge">
<title>14&#45;&gt;2</title>
<path fill="none" stroke="black" d="M751.86,-359.81C771.84,-330.06 806.86,-267.25 787.38,-216 772.16,-175.98 760.71,-164.96 723.38,-144 644.14,-99.52 535.57,-91.13 475.31,-90.25"/>
<polygon fill="black" stroke="black" points="475.47,-86.75 465.44,-90.17 475.42,-93.75 475.47,-86.75"/>
</g>
<!-- 15 -->
<g id="node16" class="node">
<title>15</title>
<polygon fill="none" stroke="black" points="922.25,-180 854.5,-180 854.5,-144 922.25,-144 922.25,-180"/>
<text text-anchor="middle" x="888.38" y="-157.32" font-family="Times,serif" font-size="14.00">junk&#45;cli</text>
</g>
<!-- 15&#45;&gt;2 -->
<g id="edge30" class="edge">
<title>15&#45;&gt;2</title>
<path fill="none" stroke="black" d="M854.03,-147.85C849.48,-146.4 844.85,-145.07 840.38,-144 709.9,-112.83 551.4,-98.93 475.34,-93.69"/>
<polygon fill="black" stroke="black" points="476.02,-90.22 465.8,-93.05 475.55,-97.21 476.02,-90.22"/>
</g>
<!-- 16 -->
<g id="node17" class="node">
<title>16</title>
<polygon fill="none" stroke="black" points="481.5,-468 373.25,-468 373.25,-432 481.5,-432 481.5,-468"/>
<text text-anchor="middle" x="427.38" y="-445.32" font-family="Times,serif" font-size="14.00">site&#45;frontend</text>
</g>
<!-- 16&#45;&gt;12 -->
<g id="edge31" class="edge">
<title>16&#45;&gt;12</title>
<path fill="none" stroke="black" d="M427.38,-431.7C427.38,-424.41 427.38,-415.73 427.38,-407.54"/>
<polygon fill="black" stroke="black" points="430.88,-407.62 427.38,-397.62 423.88,-407.62 430.88,-407.62"/>
</g>
</g>
</svg>
