<?xml version="1.0" encoding="UTF-8" standalone="no"?>
<!DOCTYPE svg PUBLIC "-//W3C//DTD SVG 1.1//EN"
 "http://www.w3.org/Graphics/SVG/1.1/DTD/svg11.dtd">
<!-- Generated by graphviz version 12.2.1 (0)
 -->
<!-- Pages: 1 -->
<svg width="741pt" height="404pt"
 viewBox="0.00 0.00 740.52 404.00" xmlns="http://www.w3.org/2000/svg" xmlns:xlink="http://www.w3.org/1999/xlink">
<g id="graph0" class="graph" transform="scale(1 1) rotate(0) translate(4 400)">
<polygon fill="white" stroke="none" points="-4,4 -4,-400 736.52,-400 736.52,4 -4,4"/>
<!-- 0 -->
<g id="node1" class="node">
<title>0</title>
<polygon fill="none" stroke="black" points="436.27,-252 331.02,-252 331.02,-216 436.27,-216 436.27,-252"/>
<text text-anchor="middle" x="383.64" y="-229.32" font-family="Times,serif" font-size="14.00">auth&#45;domain</text>
</g>
<!-- 1 -->
<g id="node2" class="node">
<title>1</title>
<polygon fill="none" stroke="black" points="442.64,-180 324.64,-180 324.64,-144 442.64,-144 442.64,-180"/>
<text text-anchor="middle" x="383.64" y="-157.32" font-family="Times,serif" font-size="14.00">billing&#45;domain</text>
</g>
<!-- 0&#45;&gt;1 -->
<g id="edge1" class="edge">
<title>0&#45;&gt;1</title>
<path fill="none" stroke="black" d="M383.64,-215.7C383.64,-208.41 383.64,-199.73 383.64,-191.54"/>
<polygon fill="black" stroke="black" points="387.14,-191.62 383.64,-181.62 380.14,-191.62 387.14,-191.62"/>
</g>
<!-- 2 -->
<g id="node3" class="node">
<title>2</title>
<polygon fill="none" stroke="black" points="365.14,-108 298.14,-108 298.14,-72 365.14,-72 365.14,-108"/>
<text text-anchor="middle" x="331.64" y="-85.33" font-family="Times,serif" font-size="14.00">models</text>
</g>
<!-- 0&#45;&gt;2 -->
<g id="edge3" class="edge">
<title>0&#45;&gt;2</title>
<path fill="none" stroke="black" d="M436.69,-227.92C508.18,-218.99 621.89,-196.23 579.64,-144 554.62,-113.06 441.3,-99.39 376.84,-94.03"/>
<polygon fill="black" stroke="black" points="377.16,-90.54 366.92,-93.24 376.61,-97.52 377.16,-90.54"/>
</g>
<!-- 4 -->
<g id="node5" class="node">
<title>4</title>
<polygon fill="none" stroke="black" points="570.14,-180 461.14,-180 461.14,-144 570.14,-144 570.14,-180"/>
<text text-anchor="middle" x="515.64" y="-157.32" font-family="Times,serif" font-size="14.00">meta&#45;domain</text>
</g>
<!-- 0&#45;&gt;4 -->
<g id="edge2" class="edge">
<title>0&#45;&gt;4</title>
<path fill="none" stroke="black" d="M416.61,-215.52C433.67,-206.47 454.7,-195.32 472.98,-185.62"/>
<polygon fill="black" stroke="black" points="474.56,-188.75 481.76,-180.97 471.28,-182.56 474.56,-188.75"/>
</g>
<!-- 5 -->
<g id="node6" class="node">
<title>5</title>
<polygon fill="none" stroke="black" points="234.64,-180 110.64,-180 110.64,-144 234.64,-144 234.64,-180"/>
<text text-anchor="middle" x="172.64" y="-157.32" font-family="Times,serif" font-size="14.00">mutate&#45;domain</text>
</g>
<!-- 0&#45;&gt;5 -->
<g id="edge4" class="edge">
<title>0&#45;&gt;5</title>
<path fill="none" stroke="black" d="M330.94,-215.52C302.13,-205.96 266.25,-194.05 235.93,-184"/>
<polygon fill="black" stroke="black" points="237.06,-180.69 226.47,-180.86 234.86,-187.33 237.06,-180.69"/>
</g>
<!-- 1&#45;&gt;2 -->
<g id="edge5" class="edge">
<title>1&#45;&gt;2</title>
<path fill="none" stroke="black" d="M370.79,-143.7C364.87,-135.73 357.72,-126.1 351.15,-117.26"/>
<polygon fill="black" stroke="black" points="354.02,-115.26 345.25,-109.32 348.4,-119.43 354.02,-115.26"/>
</g>
<!-- 3 -->
<g id="node4" class="node">
<title>3</title>
<polygon fill="none" stroke="black" points="383.14,-36 280.14,-36 280.14,0 383.14,0 383.14,-36"/>
<text text-anchor="middle" x="331.64" y="-13.32" font-family="Times,serif" font-size="14.00">model&#45;types</text>
</g>
<!-- 2&#45;&gt;3 -->
<g id="edge6" class="edge">
<title>2&#45;&gt;3</title>
<path fill="none" stroke="black" d="M331.64,-71.7C331.64,-64.41 331.64,-55.73 331.64,-47.54"/>
<polygon fill="black" stroke="black" points="335.14,-47.62 331.64,-37.62 328.14,-47.62 335.14,-47.62"/>
</g>
<!-- 4&#45;&gt;2 -->
<g id="edge7" class="edge">
<title>4&#45;&gt;2</title>
<path fill="none" stroke="black" d="M469.68,-143.52C440.99,-132.6 404.25,-118.62 375.88,-107.83"/>
<polygon fill="black" stroke="black" points="377.46,-104.69 366.87,-104.4 374.97,-111.23 377.46,-104.69"/>
</g>
<!-- 5&#45;&gt;2 -->
<g id="edge8" class="edge">
<title>5&#45;&gt;2</title>
<path fill="none" stroke="black" d="M212.35,-143.52C235.17,-133.47 263.87,-120.84 287.4,-110.48"/>
<polygon fill="black" stroke="black" points="288.68,-113.74 296.43,-106.5 285.86,-107.33 288.68,-113.74"/>
</g>
<!-- 6 -->
<g id="node7" class="node">
<title>6</title>
<polygon fill="none" stroke="black" points="306.64,-180 252.64,-180 252.64,-144 306.64,-144 306.64,-180"/>
<text text-anchor="middle" x="279.64" y="-157.32" font-family="Times,serif" font-size="14.00">cli</text>
</g>
<!-- 6&#45;&gt;2 -->
<g id="edge9" class="edge">
<title>6&#45;&gt;2</title>
<path fill="none" stroke="black" d="M292.5,-143.7C298.41,-135.73 305.57,-126.1 312.13,-117.26"/>
<polygon fill="black" stroke="black" points="314.88,-119.43 318.03,-109.32 309.26,-115.26 314.88,-119.43"/>
</g>
<!-- 7 -->
<g id="node8" class="node">
<title>7</title>
<polygon fill="none" stroke="black" points="312.89,-252 244.39,-252 244.39,-216 312.89,-216 312.89,-252"/>
<text text-anchor="middle" x="278.64" y="-229.32" font-family="Times,serif" font-size="14.00">domain</text>
</g>
<!-- 7&#45;&gt;1 -->
<g id="edge10" class="edge">
<title>7&#45;&gt;1</title>
<path fill="none" stroke="black" d="M304.87,-215.52C317.99,-206.76 334.08,-196.04 348.28,-186.58"/>
<polygon fill="black" stroke="black" points="350.11,-189.56 356.49,-181.1 346.23,-183.73 350.11,-189.56"/>
</g>
<!-- 7&#45;&gt;2 -->
<g id="edge12" class="edge">
<title>7&#45;&gt;2</title>
<path fill="none" stroke="black" d="M243.94,-232.33C162.34,-229.58 -30.44,-215.54 29.64,-144 61.92,-105.57 210.5,-95 286.54,-92.09"/>
<polygon fill="black" stroke="black" points="286.27,-95.61 296.14,-91.76 286.02,-88.61 286.27,-95.61"/>
</g>
<!-- 7&#45;&gt;4 -->
<g id="edge11" class="edge">
<title>7&#45;&gt;4</title>
<path fill="none" stroke="black" d="M313.25,-218.94C316.08,-217.91 318.9,-216.91 321.64,-216 334.06,-211.86 398.53,-194.38 449.79,-180.61"/>
<polygon fill="black" stroke="black" points="450.62,-184.01 459.37,-178.04 448.8,-177.25 450.62,-184.01"/>
</g>
<!-- 7&#45;&gt;5 -->
<g id="edge13" class="edge">
<title>7&#45;&gt;5</title>
<path fill="none" stroke="black" d="M252.17,-215.52C238.91,-206.76 222.68,-196.04 208.34,-186.58"/>
<polygon fill="black" stroke="black" points="210.31,-183.68 200.04,-181.09 206.46,-189.53 210.31,-183.68"/>
</g>
<!-- 8 -->
<g id="node9" class="node">
<title>8</title>
<polygon fill="none" stroke="black" points="92.64,-180 38.64,-180 38.64,-144 92.64,-144 92.64,-180"/>
<text text-anchor="middle" x="65.64" y="-157.32" font-family="Times,serif" font-size="14.00">owl</text>
</g>
<!-- 7&#45;&gt;8 -->
<g id="edge14" class="edge">
<title>7&#45;&gt;8</title>
<path fill="none" stroke="black" d="M244.2,-224.33C210.41,-215.47 157.33,-200.61 103.7,-180.51"/>
<polygon fill="black" stroke="black" points="104.98,-177.26 94.39,-176.97 102.49,-183.8 104.98,-177.26"/>
</g>
<!-- 8&#45;&gt;2 -->
<g id="edge15" class="edge">
<title>8&#45;&gt;2</title>
<path fill="none" stroke="black" d="M92.9,-147.38C95.82,-146.15 98.77,-145 101.64,-144 164.28,-122.28 239.61,-106.84 286.57,-98.42"/>
<polygon fill="black" stroke="black" points="287.14,-101.88 296.38,-96.7 285.93,-94.98 287.14,-101.88"/>
</g>
<!-- 9 -->
<g id="node10" class="node">
<title>9</title>
<polygon fill="none" stroke="black" points="407.64,-396 353.64,-396 353.64,-360 407.64,-360 407.64,-396"/>
<text text-anchor="middle" x="380.64" y="-373.32" font-family="Times,serif" font-size="14.00">grid</text>
</g>
<!-- 9&#45;&gt;0 -->
<g id="edge16" class="edge">
<title>9&#45;&gt;0</title>
<path fill="none" stroke="black" d="M381.01,-359.59C381.52,-335.61 382.43,-292.14 383.04,-263.42"/>
<polygon fill="black" stroke="black" points="386.54,-263.7 383.25,-253.62 379.54,-263.55 386.54,-263.7"/>
</g>
<!-- 9&#45;&gt;7 -->
<g id="edge17" class="edge">
<title>9&#45;&gt;7</title>
<path fill="none" stroke="black" d="M370.86,-359.76C360.22,-341.45 342.37,-311.9 324.64,-288 317.75,-278.7 309.63,-269.01 302.16,-260.49"/>
<polygon fill="black" stroke="black" points="304.95,-258.37 295.68,-253.24 299.73,-263.03 304.95,-258.37"/>
</g>
<!-- 10 -->
<g id="node11" class="node">
<title>10</title>
<polygon fill="none" stroke="black" points="316.14,-324 243.14,-324 243.14,-288 316.14,-288 316.14,-324"/>
<text text-anchor="middle" x="279.64" y="-301.32" font-family="Times,serif" font-size="14.00">site&#45;app</text>
</g>
<!-- 9&#45;&gt;10 -->
<g id="edge18" class="edge">
<title>9&#45;&gt;10</title>
<path fill="none" stroke="black" d="M355.42,-359.52C342.79,-350.76 327.32,-340.04 313.66,-330.58"/>
<polygon fill="black" stroke="black" points="316,-327.94 305.79,-325.12 312.01,-333.7 316,-327.94"/>
</g>
<!-- 11 -->
<g id="node12" class="node">
<title>11</title>
<polygon fill="none" stroke="black" points="662.39,-324 476.89,-324 476.89,-288 662.39,-288 662.39,-324"/>
<text text-anchor="middle" x="569.64" y="-301.32" font-family="Times,serif" font-size="14.00">tower&#45;sessions&#45;db&#45;store</text>
</g>
<!-- 9&#45;&gt;11 -->
<g id="edge19" class="edge">
<title>9&#45;&gt;11</title>
<path fill="none" stroke="black" d="M408.12,-366.82C435.31,-356.75 477.74,-341.04 512.29,-328.24"/>
<polygon fill="black" stroke="black" points="513.15,-331.65 521.31,-324.9 510.72,-325.09 513.15,-331.65"/>
</g>
<!-- 10&#45;&gt;0 -->
<g id="edge20" class="edge">
<title>10&#45;&gt;0</title>
<path fill="none" stroke="black" stroke-dasharray="1,5" d="M305.62,-287.52C318.62,-278.76 334.55,-268.04 348.61,-258.58"/>
<polygon fill="black" stroke="black" points="350.4,-261.59 356.74,-253.11 346.49,-255.79 350.4,-261.59"/>
</g>
<!-- 10&#45;&gt;2 -->
<g id="edge22" class="edge">
<title>10&#45;&gt;2</title>
<path fill="none" stroke="black" d="M242.82,-298.21C154.61,-280.41 -56.41,-227.91 14.64,-144 48.96,-103.46 207.56,-93.91 286.61,-91.67"/>
<polygon fill="black" stroke="black" points="286.25,-95.18 296.16,-91.43 286.07,-88.18 286.25,-95.18"/>
</g>
<!-- 10&#45;&gt;7 -->
<g id="edge21" class="edge">
<title>10&#45;&gt;7</title>
<path fill="none" stroke="black" stroke-dasharray="1,5" d="M279.39,-287.7C279.29,-280.41 279.17,-271.73 279.05,-263.54"/>
<polygon fill="black" stroke="black" points="282.55,-263.57 278.91,-253.62 275.55,-263.67 282.55,-263.57"/>
</g>
<!-- 11&#45;&gt;2 -->
<g id="edge23" class="edge">
<title>11&#45;&gt;2</title>
<path fill="none" stroke="black" d="M580.66,-287.75C599.63,-255.64 633.24,-186.15 598.64,-144 571.07,-110.42 445.38,-97.74 376.73,-93.25"/>
<polygon fill="black" stroke="black" points="377.12,-89.77 366.93,-92.65 376.69,-96.76 377.12,-89.77"/>
</g>
<!-- 12 -->
<g id="node13" class="node">
<title>12</title>
<polygon fill="none" stroke="black" points="732.52,-180 664.77,-180 664.77,-144 732.52,-144 732.52,-180"/>
<text text-anchor="middle" x="698.64" y="-157.32" font-family="Times,serif" font-size="14.00">junk&#45;cli</text>
</g>
<!-- 12&#45;&gt;2 -->
<g id="edge24" class="edge">
<title>12&#45;&gt;2</title>
<path fill="none" stroke="black" d="M664.52,-148.09C659.89,-146.59 655.18,-145.17 650.64,-144 554.63,-119.23 439.26,-103.41 376.94,-95.98"/>
<polygon fill="black" stroke="black" points="377.42,-92.51 367.08,-94.83 376.6,-99.47 377.42,-92.51"/>
</g>
<!-- 13 -->
<g id="node14" class="node">
<title>13</title>
<polygon fill="none" stroke="black" points="333.77,-396 225.52,-396 225.52,-360 333.77,-360 333.77,-396"/>
<text text-anchor="middle" x="279.64" y="-373.32" font-family="Times,serif" font-size="14.00">site&#45;frontend</text>
</g>
<!-- 13&#45;&gt;10 -->
<g id="edge25" class="edge">
<title>13&#45;&gt;10</title>
<path fill="none" stroke="black" d="M279.64,-359.7C279.64,-352.41 279.64,-343.73 279.64,-335.54"/>
<polygon fill="black" stroke="black" points="283.14,-335.62 279.64,-325.62 276.14,-335.62 283.14,-335.62"/>
</g>
</g>
</svg>
