<?xml version="1.0" encoding="UTF-8" standalone="no"?>
<!DOCTYPE svg PUBLIC "-//W3C//DTD SVG 1.1//EN"
 "http://www.w3.org/Graphics/SVG/1.1/DTD/svg11.dtd">
<!-- Generated by graphviz version 12.2.1 (0)
 -->
<!-- Pages: 1 -->
<svg width="389pt" height="332pt"
 viewBox="0.00 0.00 388.54 332.00" xmlns="http://www.w3.org/2000/svg" xmlns:xlink="http://www.w3.org/1999/xlink">
<g id="graph0" class="graph" transform="scale(1 1) rotate(0) translate(4 328)">
<polygon fill="white" stroke="none" points="-4,4 -4,-328 384.54,-328 384.54,4 -4,4"/>
<!-- 0 -->
<g id="node1" class="node">
<title>0</title>
<polygon fill="none" stroke="black" points="252.41,-180 147.16,-180 147.16,-144 252.41,-144 252.41,-180"/>
<text text-anchor="middle" x="199.79" y="-157.32" font-family="Times,serif" font-size="14.00">auth&#45;domain</text>
</g>
<!-- 1 -->
<g id="node2" class="node">
<title>1</title>
<polygon fill="none" stroke="black" points="192.29,-36 125.29,-36 125.29,0 192.29,0 192.29,-36"/>
<text text-anchor="middle" x="158.79" y="-13.32" font-family="Times,serif" font-size="14.00">models</text>
</g>
<!-- 0&#45;&gt;1 -->
<g id="edge1" class="edge">
<title>0&#45;&gt;1</title>
<path fill="none" stroke="black" d="M194.76,-143.59C187.81,-119.5 175.18,-75.75 166.88,-47.03"/>
<polygon fill="black" stroke="black" points="170.29,-46.2 164.15,-37.57 163.56,-48.14 170.29,-46.2"/>
</g>
<!-- 2 -->
<g id="node3" class="node">
<title>2</title>
<polygon fill="none" stroke="black" points="191.79,-324 137.79,-324 137.79,-288 191.79,-288 191.79,-324"/>
<text text-anchor="middle" x="164.79" y="-301.32" font-family="Times,serif" font-size="14.00">grid</text>
</g>
<!-- 2&#45;&gt;0 -->
<g id="edge2" class="edge">
<title>2&#45;&gt;0</title>
<path fill="none" stroke="black" d="M168.76,-287.57C172.88,-269.61 179.59,-240.8 185.79,-216 187.8,-207.94 190.08,-199.2 192.19,-191.2"/>
<polygon fill="black" stroke="black" points="195.55,-192.18 194.74,-181.62 188.79,-190.38 195.55,-192.18"/>
</g>
<!-- 3 -->
<g id="node4" class="node">
<title>3</title>
<polygon fill="none" stroke="black" points="129.29,-180 14.29,-180 14.29,-144 129.29,-144 129.29,-180"/>
<text text-anchor="middle" x="71.79" y="-157.32" font-family="Times,serif" font-size="14.00">prime&#45;domain</text>
</g>
<!-- 2&#45;&gt;3 -->
<g id="edge3" class="edge">
<title>2&#45;&gt;3</title>
<path fill="none" stroke="black" d="M154.29,-287.78C143.22,-269.74 125.13,-240.65 108.79,-216 102.99,-207.26 96.5,-197.84 90.59,-189.4"/>
<polygon fill="black" stroke="black" points="93.49,-187.44 84.87,-181.28 87.77,-191.47 93.49,-187.44"/>
</g>
<!-- 5 -->
<g id="node6" class="node">
<title>5</title>
<polygon fill="none" stroke="black" points="100.29,-252 27.29,-252 27.29,-216 100.29,-216 100.29,-252"/>
<text text-anchor="middle" x="63.79" y="-229.32" font-family="Times,serif" font-size="14.00">site&#45;app</text>
</g>
<!-- 2&#45;&gt;5 -->
<g id="edge4" class="edge">
<title>2&#45;&gt;5</title>
<path fill="none" stroke="black" d="M139.56,-287.52C126.93,-278.76 111.47,-268.04 97.81,-258.58"/>
<polygon fill="black" stroke="black" points="100.15,-255.94 89.94,-253.12 96.16,-261.7 100.15,-255.94"/>
</g>
<!-- 6 -->
<g id="node7" class="node">
<title>6</title>
<polygon fill="none" stroke="black" points="380.54,-252 195.04,-252 195.04,-216 380.54,-216 380.54,-252"/>
<text text-anchor="middle" x="287.79" y="-229.32" font-family="Times,serif" font-size="14.00">tower&#45;sessions&#45;db&#45;store</text>
</g>
<!-- 2&#45;&gt;6 -->
<g id="edge5" class="edge">
<title>2&#45;&gt;6</title>
<path fill="none" stroke="black" d="M192.09,-289.46C208.25,-280.26 229.05,-268.43 247.12,-258.15"/>
<polygon fill="black" stroke="black" points="248.83,-261.2 255.79,-253.21 245.37,-255.11 248.83,-261.2"/>
</g>
<!-- 3&#45;&gt;1 -->
<g id="edge6" class="edge">
<title>3&#45;&gt;1</title>
<path fill="none" stroke="black" d="M73.35,-143.7C75.73,-124.8 81.6,-94.27 95.79,-72 102.67,-61.2 112.45,-51.47 122.26,-43.38"/>
<polygon fill="black" stroke="black" points="124.25,-46.27 129.99,-37.36 119.95,-40.74 124.25,-46.27"/>
</g>
<!-- 4 -->
<g id="node5" class="node">
<title>4</title>
<polygon fill="none" stroke="black" points="158.79,-108 104.79,-108 104.79,-72 158.79,-72 158.79,-108"/>
<text text-anchor="middle" x="131.79" y="-85.33" font-family="Times,serif" font-size="14.00">owl</text>
</g>
<!-- 3&#45;&gt;4 -->
<g id="edge7" class="edge">
<title>3&#45;&gt;4</title>
<path fill="none" stroke="black" d="M86.62,-143.7C93.6,-135.56 102.06,-125.69 109.76,-116.7"/>
<polygon fill="black" stroke="black" points="112.29,-119.12 116.14,-109.25 106.98,-114.57 112.29,-119.12"/>
</g>
<!-- 4&#45;&gt;1 -->
<g id="edge8" class="edge">
<title>4&#45;&gt;1</title>
<path fill="none" stroke="black" d="M138.46,-71.7C141.37,-64.15 144.86,-55.12 148.11,-46.68"/>
<polygon fill="black" stroke="black" points="151.31,-48.11 151.65,-37.52 144.78,-45.59 151.31,-48.11"/>
</g>
<!-- 5&#45;&gt;0 -->
<g id="edge9" class="edge">
<title>5&#45;&gt;0</title>
<path fill="none" stroke="black" stroke-dasharray="1,5" d="M97.76,-215.52C115.41,-206.43 137.2,-195.22 156.1,-185.49"/>
<polygon fill="black" stroke="black" points="157.62,-188.64 164.91,-180.95 154.42,-182.42 157.62,-188.64"/>
</g>
<!-- 5&#45;&gt;1 -->
<g id="edge10" class="edge">
<title>5&#45;&gt;1</title>
<path fill="none" stroke="black" d="M35.68,-215.64C23.8,-206.63 11.24,-194.46 4.79,-180 -1.73,-165.39 -1.33,-158.78 4.79,-144 25.17,-94.79 77.14,-59.41 115.09,-39.12"/>
<polygon fill="black" stroke="black" points="116.28,-42.44 123.55,-34.74 113.06,-36.23 116.28,-42.44"/>
</g>
<!-- 5&#45;&gt;3 -->
<g id="edge11" class="edge">
<title>5&#45;&gt;3</title>
<path fill="none" stroke="black" stroke-dasharray="1,5" d="M65.77,-215.7C66.6,-208.41 67.59,-199.73 68.53,-191.54"/>
<polygon fill="black" stroke="black" points="72,-191.94 69.66,-181.61 65.05,-191.15 72,-191.94"/>
</g>
<!-- 6&#45;&gt;1 -->
<g id="edge12" class="edge">
<title>6&#45;&gt;1</title>
<path fill="none" stroke="black" d="M284.91,-215.82C281.33,-197.3 274.14,-167.33 261.79,-144 241.52,-105.71 208.34,-68.23 185.13,-44.45"/>
<polygon fill="black" stroke="black" points="187.67,-42.04 178.14,-37.41 182.7,-46.98 187.67,-42.04"/>
</g>
<!-- 7 -->
<g id="node8" class="node">
<title>7</title>
<polygon fill="none" stroke="black" points="376.66,-108 308.91,-108 308.91,-72 376.66,-72 376.66,-108"/>
<text text-anchor="middle" x="342.79" y="-85.33" font-family="Times,serif" font-size="14.00">junk&#45;cli</text>
</g>
<!-- 7&#45;&gt;1 -->
<g id="edge13" class="edge">
<title>7&#45;&gt;1</title>
<path fill="none" stroke="black" d="M308.61,-76C278.92,-64.7 235.71,-48.26 203.32,-35.94"/>
<polygon fill="black" stroke="black" points="204.79,-32.76 194.2,-32.47 202.3,-39.3 204.79,-32.76"/>
</g>
<!-- 8 -->
<g id="node9" class="node">
<title>8</title>
<polygon fill="none" stroke="black" points="117.91,-324 9.66,-324 9.66,-288 117.91,-288 117.91,-324"/>
<text text-anchor="middle" x="63.79" y="-301.32" font-family="Times,serif" font-size="14.00">site&#45;frontend</text>
</g>
<!-- 8&#45;&gt;5 -->
<g id="edge14" class="edge">
<title>8&#45;&gt;5</title>
<path fill="none" stroke="black" d="M63.79,-287.7C63.79,-280.41 63.79,-271.73 63.79,-263.54"/>
<polygon fill="black" stroke="black" points="67.29,-263.62 63.79,-253.62 60.29,-263.62 67.29,-263.62"/>
</g>
</g>
</svg>
