<?xml version="1.0" encoding="UTF-8" standalone="no"?>
<!DOCTYPE svg PUBLIC "-//W3C//DTD SVG 1.1//EN"
 "http://www.w3.org/Graphics/SVG/1.1/DTD/svg11.dtd">
<!-- Generated by graphviz version 12.2.1 (0)
 -->
<!-- Pages: 1 -->
<svg width="489pt" height="332pt"
 viewBox="0.00 0.00 488.74 332.00" xmlns="http://www.w3.org/2000/svg" xmlns:xlink="http://www.w3.org/1999/xlink">
<g id="graph0" class="graph" transform="scale(1 1) rotate(0) translate(4 328)">
<polygon fill="white" stroke="none" points="-4,4 -4,-328 484.74,-328 484.74,4 -4,4"/>
<!-- 0 -->
<g id="node1" class="node">
<title>0</title>
<polygon fill="none" stroke="black" points="331.61,-180 226.36,-180 226.36,-144 331.61,-144 331.61,-180"/>
<text text-anchor="middle" x="278.99" y="-157.32" font-family="Times,serif" font-size="14.00">auth&#45;domain</text>
</g>
<!-- 1 -->
<g id="node2" class="node">
<title>1</title>
<polygon fill="none" stroke="black" points="308.49,-36 241.49,-36 241.49,0 308.49,0 308.49,-36"/>
<text text-anchor="middle" x="274.99" y="-13.32" font-family="Times,serif" font-size="14.00">models</text>
</g>
<!-- 0&#45;&gt;1 -->
<g id="edge1" class="edge">
<title>0&#45;&gt;1</title>
<path fill="none" stroke="black" d="M295.45,-143.92C303.64,-134.22 312.69,-121.37 316.99,-108 321.88,-92.77 322.25,-87.11 316.99,-72 313.56,-62.17 307.48,-52.8 300.98,-44.74"/>
<polygon fill="black" stroke="black" points="303.79,-42.63 294.58,-37.39 298.51,-47.23 303.79,-42.63"/>
</g>
<!-- 2 -->
<g id="node3" class="node">
<title>2</title>
<polygon fill="none" stroke="black" points="74.99,-108 20.99,-108 20.99,-72 74.99,-72 74.99,-108"/>
<text text-anchor="middle" x="47.99" y="-85.33" font-family="Times,serif" font-size="14.00">cli</text>
</g>
<!-- 2&#45;&gt;1 -->
<g id="edge2" class="edge">
<title>2&#45;&gt;1</title>
<path fill="none" stroke="black" d="M75.3,-75.51C78.2,-74.26 81.14,-73.06 83.99,-72 133.01,-53.77 191.15,-38.51 230.3,-29.11"/>
<polygon fill="black" stroke="black" points="230.92,-32.56 239.84,-26.85 229.3,-25.75 230.92,-32.56"/>
</g>
<!-- 3 -->
<g id="node4" class="node">
<title>3</title>
<polygon fill="none" stroke="black" points="208.24,-180 139.74,-180 139.74,-144 208.24,-144 208.24,-180"/>
<text text-anchor="middle" x="173.99" y="-157.32" font-family="Times,serif" font-size="14.00">domain</text>
</g>
<!-- 3&#45;&gt;1 -->
<g id="edge4" class="edge">
<title>3&#45;&gt;1</title>
<path fill="none" stroke="black" d="M208.63,-146.51C239.19,-133.38 279.56,-115.05 283.99,-108 295.34,-89.92 291.91,-65.6 286.29,-46.94"/>
<polygon fill="black" stroke="black" points="289.65,-45.94 283.11,-37.6 283.02,-48.2 289.65,-45.94"/>
</g>
<!-- 4 -->
<g id="node5" class="node">
<title>4</title>
<polygon fill="none" stroke="black" points="202.49,-108 93.49,-108 93.49,-72 202.49,-72 202.49,-108"/>
<text text-anchor="middle" x="147.99" y="-85.33" font-family="Times,serif" font-size="14.00">meta&#45;domain</text>
</g>
<!-- 3&#45;&gt;4 -->
<g id="edge3" class="edge">
<title>3&#45;&gt;4</title>
<path fill="none" stroke="black" d="M167.56,-143.7C164.76,-136.15 161.4,-127.12 158.27,-118.68"/>
<polygon fill="black" stroke="black" points="161.63,-117.68 154.87,-109.52 155.07,-120.12 161.63,-117.68"/>
</g>
<!-- 5 -->
<g id="node6" class="node">
<title>5</title>
<polygon fill="none" stroke="black" points="274.99,-108 220.99,-108 220.99,-72 274.99,-72 274.99,-108"/>
<text text-anchor="middle" x="247.99" y="-85.33" font-family="Times,serif" font-size="14.00">owl</text>
</g>
<!-- 3&#45;&gt;5 -->
<g id="edge5" class="edge">
<title>3&#45;&gt;5</title>
<path fill="none" stroke="black" d="M192.28,-143.7C201.08,-135.37 211.81,-125.22 221.49,-116.07"/>
<polygon fill="black" stroke="black" points="223.69,-118.8 228.55,-109.39 218.88,-113.72 223.69,-118.8"/>
</g>
<!-- 4&#45;&gt;1 -->
<g id="edge6" class="edge">
<title>4&#45;&gt;1</title>
<path fill="none" stroke="black" d="M179.71,-71.52C196.04,-62.51 216.16,-51.42 233.69,-41.76"/>
<polygon fill="black" stroke="black" points="235.28,-44.88 242.34,-36.99 231.9,-38.75 235.28,-44.88"/>
</g>
<!-- 5&#45;&gt;1 -->
<g id="edge7" class="edge">
<title>5&#45;&gt;1</title>
<path fill="none" stroke="black" d="M254.66,-71.7C257.57,-64.15 261.05,-55.12 264.31,-46.68"/>
<polygon fill="black" stroke="black" points="267.51,-48.11 267.84,-37.52 260.98,-45.59 267.51,-48.11"/>
</g>
<!-- 6 -->
<g id="node7" class="node">
<title>6</title>
<polygon fill="none" stroke="black" points="291.99,-324 237.99,-324 237.99,-288 291.99,-288 291.99,-324"/>
<text text-anchor="middle" x="264.99" y="-301.32" font-family="Times,serif" font-size="14.00">grid</text>
</g>
<!-- 6&#45;&gt;0 -->
<g id="edge8" class="edge">
<title>6&#45;&gt;0</title>
<path fill="none" stroke="black" d="M266.7,-287.59C269.07,-263.61 273.35,-220.14 276.18,-191.42"/>
<polygon fill="black" stroke="black" points="279.65,-191.91 277.15,-181.62 272.69,-191.23 279.65,-191.91"/>
</g>
<!-- 6&#45;&gt;3 -->
<g id="edge9" class="edge">
<title>6&#45;&gt;3</title>
<path fill="none" stroke="black" d="M254.15,-287.53C242.95,-269.54 224.91,-240.7 208.99,-216 203.4,-207.34 197.23,-197.94 191.65,-189.5"/>
<polygon fill="black" stroke="black" points="194.71,-187.78 186.27,-181.38 188.88,-191.65 194.71,-187.78"/>
</g>
<!-- 7 -->
<g id="node8" class="node">
<title>7</title>
<polygon fill="none" stroke="black" points="200.49,-252 127.49,-252 127.49,-216 200.49,-216 200.49,-252"/>
<text text-anchor="middle" x="163.99" y="-229.32" font-family="Times,serif" font-size="14.00">site&#45;app</text>
</g>
<!-- 6&#45;&gt;7 -->
<g id="edge10" class="edge">
<title>6&#45;&gt;7</title>
<path fill="none" stroke="black" d="M239.76,-287.52C227.13,-278.76 211.66,-268.04 198,-258.58"/>
<polygon fill="black" stroke="black" points="200.35,-255.94 190.13,-253.12 196.36,-261.7 200.35,-255.94"/>
</g>
<!-- 8 -->
<g id="node9" class="node">
<title>8</title>
<polygon fill="none" stroke="black" points="480.74,-252 295.24,-252 295.24,-216 480.74,-216 480.74,-252"/>
<text text-anchor="middle" x="387.99" y="-229.32" font-family="Times,serif" font-size="14.00">tower&#45;sessions&#45;db&#45;store</text>
</g>
<!-- 6&#45;&gt;8 -->
<g id="edge11" class="edge">
<title>6&#45;&gt;8</title>
<path fill="none" stroke="black" d="M292.28,-289.46C308.45,-280.26 329.24,-268.43 347.31,-258.15"/>
<polygon fill="black" stroke="black" points="349.03,-261.2 355.99,-253.21 345.57,-255.11 349.03,-261.2"/>
</g>
<!-- 7&#45;&gt;0 -->
<g id="edge12" class="edge">
<title>7&#45;&gt;0</title>
<path fill="none" stroke="black" stroke-dasharray="1,5" d="M192.71,-215.52C207.36,-206.6 225.38,-195.63 241.15,-186.03"/>
<polygon fill="black" stroke="black" points="242.61,-189.24 249.34,-181.05 238.97,-183.26 242.61,-189.24"/>
</g>
<!-- 7&#45;&gt;1 -->
<g id="edge14" class="edge">
<title>7&#45;&gt;1</title>
<path fill="none" stroke="black" d="M127.35,-216.57C69.09,-188.21 -33.67,-127.77 11.99,-72 39.04,-38.95 162.3,-26.05 230.04,-21.4"/>
<polygon fill="black" stroke="black" points="229.95,-24.91 239.7,-20.77 229.5,-17.92 229.95,-24.91"/>
</g>
<!-- 7&#45;&gt;3 -->
<g id="edge13" class="edge">
<title>7&#45;&gt;3</title>
<path fill="none" stroke="black" stroke-dasharray="1,5" d="M166.46,-215.7C167.51,-208.32 168.77,-199.52 169.95,-191.25"/>
<polygon fill="black" stroke="black" points="173.38,-192 171.33,-181.6 166.45,-191.01 173.38,-192"/>
</g>
<!-- 8&#45;&gt;1 -->
<g id="edge15" class="edge">
<title>8&#45;&gt;1</title>
<path fill="none" stroke="black" d="M385.03,-215.78C379.14,-184.89 363.73,-118.95 332.99,-72 326.19,-61.62 316.9,-51.93 307.75,-43.75"/>
<polygon fill="black" stroke="black" points="310.14,-41.18 300.26,-37.37 305.61,-46.52 310.14,-41.18"/>
</g>
<!-- 9 -->
<g id="node10" class="node">
<title>9</title>
<polygon fill="none" stroke="black" points="474.86,-108 407.11,-108 407.11,-72 474.86,-72 474.86,-108"/>
<text text-anchor="middle" x="440.99" y="-85.33" font-family="Times,serif" font-size="14.00">junk&#45;cli</text>
</g>
<!-- 9&#45;&gt;1 -->
<g id="edge16" class="edge">
<title>9&#45;&gt;1</title>
<path fill="none" stroke="black" d="M406.99,-74.67C381.7,-64 346.96,-49.35 319.46,-37.75"/>
<polygon fill="black" stroke="black" points="320.9,-34.56 310.33,-33.9 318.18,-41.01 320.9,-34.56"/>
</g>
<!-- 10 -->
<g id="node11" class="node">
<title>10</title>
<polygon fill="none" stroke="black" points="218.11,-324 109.86,-324 109.86,-288 218.11,-288 218.11,-324"/>
<text text-anchor="middle" x="163.99" y="-301.32" font-family="Times,serif" font-size="14.00">site&#45;frontend</text>
</g>
<!-- 10&#45;&gt;7 -->
<g id="edge17" class="edge">
<title>10&#45;&gt;7</title>
<path fill="none" stroke="black" d="M163.99,-287.7C163.99,-280.41 163.99,-271.73 163.99,-263.54"/>
<polygon fill="black" stroke="black" points="167.49,-263.62 163.99,-253.62 160.49,-263.62 167.49,-263.62"/>
</g>
</g>
</svg>
