<?xml version="1.0" encoding="UTF-8" standalone="no"?>
<!DOCTYPE svg PUBLIC "-//W3C//DTD SVG 1.1//EN"
 "http://www.w3.org/Graphics/SVG/1.1/DTD/svg11.dtd">
<!-- Generated by graphviz version 12.2.1 (0)
 -->
<!-- Pages: 1 -->
<svg width="410pt" height="332pt"
 viewBox="0.00 0.00 409.83 332.00" xmlns="http://www.w3.org/2000/svg" xmlns:xlink="http://www.w3.org/1999/xlink">
<g id="graph0" class="graph" transform="scale(1 1) rotate(0) translate(4 328)">
<polygon fill="white" stroke="none" points="-4,4 -4,-328 405.83,-328 405.83,4 -4,4"/>
<!-- 0 -->
<g id="node1" class="node">
<title>0</title>
<polygon fill="none" stroke="black" points="269.7,-180 164.45,-180 164.45,-144 269.7,-144 269.7,-180"/>
<text text-anchor="middle" x="217.08" y="-157.32" font-family="Times,serif" font-size="14.00">auth&#45;domain</text>
</g>
<!-- 1 -->
<g id="node2" class="node">
<title>1</title>
<polygon fill="none" stroke="black" points="167.58,-36 100.58,-36 100.58,0 167.58,0 167.58,-36"/>
<text text-anchor="middle" x="134.08" y="-13.32" font-family="Times,serif" font-size="14.00">models</text>
</g>
<!-- 0&#45;&gt;1 -->
<g id="edge1" class="edge">
<title>0&#45;&gt;1</title>
<path fill="none" stroke="black" d="M216.7,-143.71C215.57,-124.82 211.59,-94.3 198.08,-72 191.44,-61.04 181.7,-51.31 171.82,-43.27"/>
<polygon fill="black" stroke="black" points="174.06,-40.58 163.99,-37.29 169.81,-46.14 174.06,-40.58"/>
</g>
<!-- 2 -->
<g id="node3" class="node">
<title>2</title>
<polygon fill="none" stroke="black" points="79.08,-108 25.08,-108 25.08,-72 79.08,-72 79.08,-108"/>
<text text-anchor="middle" x="52.08" y="-85.33" font-family="Times,serif" font-size="14.00">cli</text>
</g>
<!-- 2&#45;&gt;1 -->
<g id="edge2" class="edge">
<title>2&#45;&gt;1</title>
<path fill="none" stroke="black" d="M72.35,-71.7C82.2,-63.28 94.23,-53.02 105.04,-43.79"/>
<polygon fill="black" stroke="black" points="107.27,-46.48 112.61,-37.33 102.73,-41.16 107.27,-46.48"/>
</g>
<!-- 3 -->
<g id="node4" class="node">
<title>3</title>
<polygon fill="none" stroke="black" points="213.08,-324 159.08,-324 159.08,-288 213.08,-288 213.08,-324"/>
<text text-anchor="middle" x="186.08" y="-301.32" font-family="Times,serif" font-size="14.00">grid</text>
</g>
<!-- 3&#45;&gt;0 -->
<g id="edge3" class="edge">
<title>3&#45;&gt;0</title>
<path fill="none" stroke="black" d="M189.88,-287.59C195.14,-263.5 204.69,-219.75 210.96,-191.03"/>
<polygon fill="black" stroke="black" points="214.31,-192.11 213.02,-181.59 207.47,-190.61 214.31,-192.11"/>
</g>
<!-- 4 -->
<g id="node5" class="node">
<title>4</title>
<polygon fill="none" stroke="black" points="146.58,-180 31.58,-180 31.58,-144 146.58,-144 146.58,-180"/>
<text text-anchor="middle" x="89.08" y="-157.32" font-family="Times,serif" font-size="14.00">prime&#45;domain</text>
</g>
<!-- 3&#45;&gt;4 -->
<g id="edge4" class="edge">
<title>3&#45;&gt;4</title>
<path fill="none" stroke="black" d="M175.82,-287.62C164.94,-269.44 147.02,-240.24 130.08,-216 123.88,-207.13 116.77,-197.71 110.24,-189.31"/>
<polygon fill="black" stroke="black" points="113.05,-187.23 104.12,-181.54 107.55,-191.56 113.05,-187.23"/>
</g>
<!-- 6 -->
<g id="node7" class="node">
<title>6</title>
<polygon fill="none" stroke="black" points="121.58,-252 48.58,-252 48.58,-216 121.58,-216 121.58,-252"/>
<text text-anchor="middle" x="85.08" y="-229.32" font-family="Times,serif" font-size="14.00">site&#45;app</text>
</g>
<!-- 3&#45;&gt;6 -->
<g id="edge5" class="edge">
<title>3&#45;&gt;6</title>
<path fill="none" stroke="black" d="M160.85,-287.52C148.22,-278.76 132.75,-268.04 119.09,-258.58"/>
<polygon fill="black" stroke="black" points="121.44,-255.94 111.23,-253.12 117.45,-261.7 121.44,-255.94"/>
</g>
<!-- 7 -->
<g id="node8" class="node">
<title>7</title>
<polygon fill="none" stroke="black" points="401.83,-252 216.33,-252 216.33,-216 401.83,-216 401.83,-252"/>
<text text-anchor="middle" x="309.08" y="-229.32" font-family="Times,serif" font-size="14.00">tower&#45;sessions&#45;db&#45;store</text>
</g>
<!-- 3&#45;&gt;7 -->
<g id="edge6" class="edge">
<title>3&#45;&gt;7</title>
<path fill="none" stroke="black" d="M213.37,-289.46C229.54,-280.26 250.33,-268.43 268.41,-258.15"/>
<polygon fill="black" stroke="black" points="270.12,-261.2 277.08,-253.21 266.66,-255.11 270.12,-261.2"/>
</g>
<!-- 4&#45;&gt;1 -->
<g id="edge7" class="edge">
<title>4&#45;&gt;1</title>
<path fill="none" stroke="black" d="M94.6,-143.59C102.23,-119.5 116.09,-75.75 125.19,-47.03"/>
<polygon fill="black" stroke="black" points="128.51,-48.14 128.2,-37.55 121.84,-46.03 128.51,-48.14"/>
</g>
<!-- 5 -->
<g id="node6" class="node">
<title>5</title>
<polygon fill="none" stroke="black" points="189.08,-108 135.08,-108 135.08,-72 189.08,-72 189.08,-108"/>
<text text-anchor="middle" x="162.08" y="-85.33" font-family="Times,serif" font-size="14.00">owl</text>
</g>
<!-- 4&#45;&gt;5 -->
<g id="edge8" class="edge">
<title>4&#45;&gt;5</title>
<path fill="none" stroke="black" d="M107.12,-143.7C115.81,-135.37 126.39,-125.22 135.94,-116.07"/>
<polygon fill="black" stroke="black" points="138.1,-118.84 142.89,-109.39 133.25,-113.79 138.1,-118.84"/>
</g>
<!-- 5&#45;&gt;1 -->
<g id="edge9" class="edge">
<title>5&#45;&gt;1</title>
<path fill="none" stroke="black" d="M155.16,-71.7C152.14,-64.15 148.52,-55.12 145.15,-46.68"/>
<polygon fill="black" stroke="black" points="148.44,-45.49 141.48,-37.51 141.95,-48.09 148.44,-45.49"/>
</g>
<!-- 6&#45;&gt;0 -->
<g id="edge10" class="edge">
<title>6&#45;&gt;0</title>
<path fill="none" stroke="black" stroke-dasharray="1,5" d="M118.05,-215.52C135.11,-206.47 156.13,-195.32 174.41,-185.62"/>
<polygon fill="black" stroke="black" points="176,-188.75 183.19,-180.97 172.72,-182.56 176,-188.75"/>
</g>
<!-- 6&#45;&gt;1 -->
<g id="edge11" class="edge">
<title>6&#45;&gt;1</title>
<path fill="none" stroke="black" d="M55.34,-215.53C42.87,-206.57 29.56,-194.47 22.08,-180 -0.01,-137.3 -10.04,-112.36 16.08,-72 32.2,-47.09 63.11,-33.77 89.25,-26.72"/>
<polygon fill="black" stroke="black" points="89.75,-30.2 98.64,-24.43 88.09,-23.4 89.75,-30.2"/>
</g>
<!-- 6&#45;&gt;4 -->
<g id="edge12" class="edge">
<title>6&#45;&gt;4</title>
<path fill="none" stroke="black" stroke-dasharray="1,5" d="M86.07,-215.7C86.48,-208.41 86.98,-199.73 87.45,-191.54"/>
<polygon fill="black" stroke="black" points="90.94,-191.8 88.01,-181.62 83.95,-191.4 90.94,-191.8"/>
</g>
<!-- 7&#45;&gt;1 -->
<g id="edge13" class="edge">
<title>7&#45;&gt;1</title>
<path fill="none" stroke="black" d="M305.3,-215.82C300.77,-197.3 292.13,-167.34 279.08,-144 258.74,-107.64 250.48,-99.37 219.08,-72 206.29,-60.86 190.92,-50.52 176.78,-41.98"/>
<polygon fill="black" stroke="black" points="178.93,-39.19 168.54,-37.14 175.39,-45.22 178.93,-39.19"/>
</g>
<!-- 8 -->
<g id="node9" class="node">
<title>8</title>
<polygon fill="none" stroke="black" points="139.2,-324 30.95,-324 30.95,-288 139.2,-288 139.2,-324"/>
<text text-anchor="middle" x="85.08" y="-301.32" font-family="Times,serif" font-size="14.00">site&#45;frontend</text>
</g>
<!-- 8&#45;&gt;6 -->
<g id="edge14" class="edge">
<title>8&#45;&gt;6</title>
<path fill="none" stroke="black" d="M85.08,-287.7C85.08,-280.41 85.08,-271.73 85.08,-263.54"/>
<polygon fill="black" stroke="black" points="88.58,-263.62 85.08,-253.62 81.58,-263.62 88.58,-263.62"/>
</g>
</g>
</svg>
