<?xml version="1.0" encoding="UTF-8" standalone="no"?>
<!DOCTYPE svg PUBLIC "-//W3C//DTD SVG 1.1//EN"
 "http://www.w3.org/Graphics/SVG/1.1/DTD/svg11.dtd">
<!-- Generated by graphviz version 12.2.1 (0)
 -->
<!-- Pages: 1 -->
<svg width="629pt" height="332pt"
 viewBox="0.00 0.00 628.53 332.00" xmlns="http://www.w3.org/2000/svg" xmlns:xlink="http://www.w3.org/1999/xlink">
<g id="graph0" class="graph" transform="scale(1 1) rotate(0) translate(4 328)">
<polygon fill="white" stroke="none" points="-4,4 -4,-328 624.53,-328 624.53,4 -4,4"/>
<!-- 0 -->
<g id="node1" class="node">
<title>0</title>
<polygon fill="none" stroke="black" points="458.28,-180 353.03,-180 353.03,-144 458.28,-144 458.28,-180"/>
<text text-anchor="middle" x="405.65" y="-157.32" font-family="Times,serif" font-size="14.00">auth&#45;domain</text>
</g>
<!-- 1 -->
<g id="node2" class="node">
<title>1</title>
<polygon fill="none" stroke="black" points="427.15,-36 360.15,-36 360.15,0 427.15,0 427.15,-36"/>
<text text-anchor="middle" x="393.65" y="-13.32" font-family="Times,serif" font-size="14.00">models</text>
</g>
<!-- 0&#45;&gt;1 -->
<g id="edge1" class="edge">
<title>0&#45;&gt;1</title>
<path fill="none" stroke="black" d="M432.53,-143.68C444.1,-134.6 456.39,-122.37 462.65,-108 469.04,-93.33 469.73,-86.35 462.65,-72 456.87,-60.26 447.1,-50.4 436.7,-42.49"/>
<polygon fill="black" stroke="black" points="438.93,-39.77 428.73,-36.91 434.91,-45.51 438.93,-39.77"/>
</g>
<!-- 2 -->
<g id="node3" class="node">
<title>2</title>
<polygon fill="none" stroke="black" points="78.65,-108 24.65,-108 24.65,-72 78.65,-72 78.65,-108"/>
<text text-anchor="middle" x="51.65" y="-85.33" font-family="Times,serif" font-size="14.00">cli</text>
</g>
<!-- 2&#45;&gt;1 -->
<g id="edge2" class="edge">
<title>2&#45;&gt;1</title>
<path fill="none" stroke="black" d="M78.86,-75.22C81.79,-74.02 84.75,-72.92 87.65,-72 177.77,-43.5 287.97,-29.18 348.48,-22.98"/>
<polygon fill="black" stroke="black" points="348.78,-26.47 358.39,-22 348.09,-19.5 348.78,-26.47"/>
</g>
<!-- 3 -->
<g id="node4" class="node">
<title>3</title>
<polygon fill="none" stroke="black" points="334.9,-180 266.4,-180 266.4,-144 334.9,-144 334.9,-180"/>
<text text-anchor="middle" x="300.65" y="-157.32" font-family="Times,serif" font-size="14.00">domain</text>
</g>
<!-- 3&#45;&gt;1 -->
<g id="edge4" class="edge">
<title>3&#45;&gt;1</title>
<path fill="none" stroke="black" d="M335.4,-147.27C373.12,-132.28 428.24,-110.11 429.65,-108 442.61,-88.66 430.72,-63.94 417.23,-45.46"/>
<polygon fill="black" stroke="black" points="420.01,-43.33 411.09,-37.62 414.5,-47.65 420.01,-43.33"/>
</g>
<!-- 4 -->
<g id="node5" class="node">
<title>4</title>
<polygon fill="none" stroke="black" points="206.15,-108 97.15,-108 97.15,-72 206.15,-72 206.15,-108"/>
<text text-anchor="middle" x="151.65" y="-85.33" font-family="Times,serif" font-size="14.00">meta&#45;domain</text>
</g>
<!-- 3&#45;&gt;4 -->
<g id="edge3" class="edge">
<title>3&#45;&gt;4</title>
<path fill="none" stroke="black" d="M266.09,-144.76C246.22,-135.43 220.96,-123.56 199.24,-113.35"/>
<polygon fill="black" stroke="black" points="200.8,-110.22 190.26,-109.14 197.82,-116.56 200.8,-110.22"/>
</g>
<!-- 5 -->
<g id="node6" class="node">
<title>5</title>
<polygon fill="none" stroke="black" points="348.65,-108 224.65,-108 224.65,-72 348.65,-72 348.65,-108"/>
<text text-anchor="middle" x="286.65" y="-85.33" font-family="Times,serif" font-size="14.00">mutate&#45;domain</text>
</g>
<!-- 3&#45;&gt;5 -->
<g id="edge5" class="edge">
<title>3&#45;&gt;5</title>
<path fill="none" stroke="black" d="M297.19,-143.7C295.72,-136.32 293.96,-127.52 292.3,-119.25"/>
<polygon fill="black" stroke="black" points="295.76,-118.71 290.37,-109.59 288.9,-120.08 295.76,-118.71"/>
</g>
<!-- 6 -->
<g id="node7" class="node">
<title>6</title>
<polygon fill="none" stroke="black" points="420.65,-108 366.65,-108 366.65,-72 420.65,-72 420.65,-108"/>
<text text-anchor="middle" x="393.65" y="-85.33" font-family="Times,serif" font-size="14.00">owl</text>
</g>
<!-- 3&#45;&gt;6 -->
<g id="edge6" class="edge">
<title>3&#45;&gt;6</title>
<path fill="none" stroke="black" d="M323.64,-143.7C335.04,-135.11 349,-124.61 361.45,-115.24"/>
<polygon fill="black" stroke="black" points="363.51,-118.07 369.4,-109.26 359.3,-112.47 363.51,-118.07"/>
</g>
<!-- 4&#45;&gt;1 -->
<g id="edge7" class="edge">
<title>4&#45;&gt;1</title>
<path fill="none" stroke="black" d="M206.57,-73.12C249.56,-60.68 308.61,-43.6 348.79,-31.98"/>
<polygon fill="black" stroke="black" points="349.76,-35.34 358.39,-29.2 347.82,-28.62 349.76,-35.34"/>
</g>
<!-- 5&#45;&gt;1 -->
<g id="edge8" class="edge">
<title>5&#45;&gt;1</title>
<path fill="none" stroke="black" d="M313.38,-71.52C326.88,-62.68 343.46,-51.84 358.03,-42.3"/>
<polygon fill="black" stroke="black" points="359.55,-45.49 366,-37.09 355.72,-39.63 359.55,-45.49"/>
</g>
<!-- 6&#45;&gt;1 -->
<g id="edge9" class="edge">
<title>6&#45;&gt;1</title>
<path fill="none" stroke="black" d="M393.65,-71.7C393.65,-64.41 393.65,-55.73 393.65,-47.54"/>
<polygon fill="black" stroke="black" points="397.15,-47.62 393.65,-37.62 390.15,-47.62 397.15,-47.62"/>
</g>
<!-- 7 -->
<g id="node8" class="node">
<title>7</title>
<polygon fill="none" stroke="black" points="428.65,-324 374.65,-324 374.65,-288 428.65,-288 428.65,-324"/>
<text text-anchor="middle" x="401.65" y="-301.32" font-family="Times,serif" font-size="14.00">grid</text>
</g>
<!-- 7&#45;&gt;0 -->
<g id="edge10" class="edge">
<title>7&#45;&gt;0</title>
<path fill="none" stroke="black" d="M402.14,-287.59C402.82,-263.61 404.04,-220.14 404.85,-191.42"/>
<polygon fill="black" stroke="black" points="408.35,-191.72 405.13,-181.62 401.35,-191.52 408.35,-191.72"/>
</g>
<!-- 7&#45;&gt;3 -->
<g id="edge11" class="edge">
<title>7&#45;&gt;3</title>
<path fill="none" stroke="black" d="M391.82,-287.8C381.14,-269.52 363.25,-240 345.65,-216 338.94,-206.85 331.09,-197.27 323.85,-188.82"/>
<polygon fill="black" stroke="black" points="326.5,-186.54 317.29,-181.3 321.22,-191.14 326.5,-186.54"/>
</g>
<!-- 8 -->
<g id="node9" class="node">
<title>8</title>
<polygon fill="none" stroke="black" points="337.15,-252 264.15,-252 264.15,-216 337.15,-216 337.15,-252"/>
<text text-anchor="middle" x="300.65" y="-229.32" font-family="Times,serif" font-size="14.00">site&#45;app</text>
</g>
<!-- 7&#45;&gt;8 -->
<g id="edge12" class="edge">
<title>7&#45;&gt;8</title>
<path fill="none" stroke="black" d="M376.43,-287.52C363.8,-278.76 348.33,-268.04 334.67,-258.58"/>
<polygon fill="black" stroke="black" points="337.01,-255.94 326.8,-253.12 333.03,-261.7 337.01,-255.94"/>
</g>
<!-- 9 -->
<g id="node10" class="node">
<title>9</title>
<polygon fill="none" stroke="black" points="617.4,-252 431.9,-252 431.9,-216 617.4,-216 617.4,-252"/>
<text text-anchor="middle" x="524.65" y="-229.32" font-family="Times,serif" font-size="14.00">tower&#45;sessions&#45;db&#45;store</text>
</g>
<!-- 7&#45;&gt;9 -->
<g id="edge13" class="edge">
<title>7&#45;&gt;9</title>
<path fill="none" stroke="black" d="M428.95,-289.46C445.12,-280.26 465.91,-268.43 483.98,-258.15"/>
<polygon fill="black" stroke="black" points="485.7,-261.2 492.66,-253.21 482.23,-255.11 485.7,-261.2"/>
</g>
<!-- 8&#45;&gt;0 -->
<g id="edge14" class="edge">
<title>8&#45;&gt;0</title>
<path fill="none" stroke="black" stroke-dasharray="1,5" d="M326.88,-215.52C340.01,-206.76 356.09,-196.04 370.29,-186.58"/>
<polygon fill="black" stroke="black" points="372.12,-189.56 378.5,-181.1 368.24,-183.73 372.12,-189.56"/>
</g>
<!-- 8&#45;&gt;1 -->
<g id="edge16" class="edge">
<title>8&#45;&gt;1</title>
<path fill="none" stroke="black" d="M263.83,-227.14C170.75,-210.88 -61.26,-160.45 15.65,-72 58.35,-22.9 258,-17.94 348.66,-18.3"/>
<polygon fill="black" stroke="black" points="348.39,-21.79 358.42,-18.36 348.44,-14.79 348.39,-21.79"/>
</g>
<!-- 8&#45;&gt;3 -->
<g id="edge15" class="edge">
<title>8&#45;&gt;3</title>
<path fill="none" stroke="black" stroke-dasharray="1,5" d="M300.65,-215.7C300.65,-208.41 300.65,-199.73 300.65,-191.54"/>
<polygon fill="black" stroke="black" points="304.15,-191.62 300.65,-181.62 297.15,-191.62 304.15,-191.62"/>
</g>
<!-- 9&#45;&gt;1 -->
<g id="edge17" class="edge">
<title>9&#45;&gt;1</title>
<path fill="none" stroke="black" d="M523.87,-215.7C521.64,-184.11 513,-116.28 479.65,-72 468.75,-57.52 452.63,-46.09 437.28,-37.61"/>
<polygon fill="black" stroke="black" points="439.21,-34.67 428.72,-33.16 435.98,-40.88 439.21,-34.67"/>
</g>
<!-- 10 -->
<g id="node11" class="node">
<title>10</title>
<polygon fill="none" stroke="black" points="620.53,-108 552.78,-108 552.78,-72 620.53,-72 620.53,-108"/>
<text text-anchor="middle" x="586.65" y="-85.33" font-family="Times,serif" font-size="14.00">junk&#45;cli</text>
</g>
<!-- 10&#45;&gt;1 -->
<g id="edge18" class="edge">
<title>10&#45;&gt;1</title>
<path fill="none" stroke="black" d="M552.59,-76.65C520.62,-65.05 472.63,-47.64 437.74,-34.99"/>
<polygon fill="black" stroke="black" points="439.39,-31.87 428.8,-31.75 437,-38.45 439.39,-31.87"/>
</g>
<!-- 11 -->
<g id="node12" class="node">
<title>11</title>
<polygon fill="none" stroke="black" points="354.78,-324 246.53,-324 246.53,-288 354.78,-288 354.78,-324"/>
<text text-anchor="middle" x="300.65" y="-301.32" font-family="Times,serif" font-size="14.00">site&#45;frontend</text>
</g>
<!-- 11&#45;&gt;8 -->
<g id="edge19" class="edge">
<title>11&#45;&gt;8</title>
<path fill="none" stroke="black" d="M300.65,-287.7C300.65,-280.41 300.65,-271.73 300.65,-263.54"/>
<polygon fill="black" stroke="black" points="304.15,-263.62 300.65,-253.62 297.15,-263.62 304.15,-263.62"/>
</g>
</g>
</svg>
