<?xml version="1.0" encoding="UTF-8" standalone="no"?>
<!DOCTYPE svg PUBLIC "-//W3C//DTD SVG 1.1//EN"
 "http://www.w3.org/Graphics/SVG/1.1/DTD/svg11.dtd">
<!-- Generated by graphviz version 12.2.1 (0)
 -->
<!-- Pages: 1 -->
<svg width="477pt" height="260pt"
 viewBox="0.00 0.00 476.75 260.00" xmlns="http://www.w3.org/2000/svg" xmlns:xlink="http://www.w3.org/1999/xlink">
<g id="graph0" class="graph" transform="scale(1 1) rotate(0) translate(4 256)">
<polygon fill="white" stroke="none" points="-4,4 -4,-256 472.75,-256 472.75,4 -4,4"/>
<!-- 0 -->
<g id="node1" class="node">
<title>0</title>
<polygon fill="none" stroke="black" points="177.62,-108 72.38,-108 72.38,-72 177.62,-72 177.62,-108"/>
<text text-anchor="middle" x="125" y="-85.33" font-family="Times,serif" font-size="14.00">auth&#45;domain</text>
</g>
<!-- 1 -->
<g id="node2" class="node">
<title>1</title>
<polygon fill="none" stroke="black" points="239.5,-36 172.5,-36 172.5,0 239.5,0 239.5,-36"/>
<text text-anchor="middle" x="206" y="-13.32" font-family="Times,serif" font-size="14.00">models</text>
</g>
<!-- 0&#45;&gt;1 -->
<g id="edge1" class="edge">
<title>0&#45;&gt;1</title>
<path fill="none" stroke="black" d="M145.02,-71.7C154.76,-63.28 166.64,-53.02 177.31,-43.79"/>
<polygon fill="black" stroke="black" points="179.5,-46.52 184.78,-37.34 174.93,-41.23 179.5,-46.52"/>
</g>
<!-- 2 -->
<g id="node3" class="node">
<title>2</title>
<polygon fill="none" stroke="black" points="54,-108 0,-108 0,-72 54,-72 54,-108"/>
<text text-anchor="middle" x="27" y="-85.33" font-family="Times,serif" font-size="14.00">cli</text>
</g>
<!-- 2&#45;&gt;1 -->
<g id="edge2" class="edge">
<title>2&#45;&gt;1</title>
<path fill="none" stroke="black" d="M54.41,-75.76C57.29,-74.45 60.2,-73.18 63,-72 95.54,-58.32 132.96,-44.51 161.36,-34.43"/>
<polygon fill="black" stroke="black" points="162.47,-37.75 170.74,-31.12 160.14,-31.15 162.47,-37.75"/>
</g>
<!-- 3 -->
<g id="node4" class="node">
<title>3</title>
<polygon fill="none" stroke="black" points="235,-252 181,-252 181,-216 235,-216 235,-252"/>
<text text-anchor="middle" x="208" y="-229.32" font-family="Times,serif" font-size="14.00">grid</text>
</g>
<!-- 3&#45;&gt;0 -->
<g id="edge3" class="edge">
<title>3&#45;&gt;0</title>
<path fill="none" stroke="black" d="M180.81,-218.06C166.72,-208.91 150.53,-195.9 141,-180 130.13,-161.86 126.27,-138.17 125.05,-119.79"/>
<polygon fill="black" stroke="black" points="128.55,-119.68 124.64,-109.83 121.56,-119.97 128.55,-119.68"/>
</g>
<!-- 4 -->
<g id="node5" class="node">
<title>4</title>
<polygon fill="none" stroke="black" points="265.5,-180 150.5,-180 150.5,-144 265.5,-144 265.5,-180"/>
<text text-anchor="middle" x="208" y="-157.32" font-family="Times,serif" font-size="14.00">prime&#45;domain</text>
</g>
<!-- 3&#45;&gt;4 -->
<g id="edge4" class="edge">
<title>3&#45;&gt;4</title>
<path fill="none" stroke="black" d="M208,-215.7C208,-208.41 208,-199.73 208,-191.54"/>
<polygon fill="black" stroke="black" points="211.5,-191.62 208,-181.62 204.5,-191.62 211.5,-191.62"/>
</g>
<!-- 6 -->
<g id="node7" class="node">
<title>6</title>
<polygon fill="none" stroke="black" points="468.75,-180 283.25,-180 283.25,-144 468.75,-144 468.75,-180"/>
<text text-anchor="middle" x="376" y="-157.32" font-family="Times,serif" font-size="14.00">tower&#45;sessions&#45;db&#45;store</text>
</g>
<!-- 3&#45;&gt;6 -->
<g id="edge5" class="edge">
<title>3&#45;&gt;6</title>
<path fill="none" stroke="black" d="M235.37,-221.6C259.21,-211.66 294.46,-196.97 323.71,-184.79"/>
<polygon fill="black" stroke="black" points="324.89,-188.09 332.78,-181.01 322.2,-181.62 324.89,-188.09"/>
</g>
<!-- 4&#45;&gt;1 -->
<g id="edge6" class="edge">
<title>4&#45;&gt;1</title>
<path fill="none" stroke="black" d="M207.75,-143.59C207.42,-119.61 206.8,-76.14 206.4,-47.42"/>
<polygon fill="black" stroke="black" points="209.9,-47.57 206.26,-37.62 202.9,-47.67 209.9,-47.57"/>
</g>
<!-- 5 -->
<g id="node6" class="node">
<title>5</title>
<polygon fill="none" stroke="black" points="288,-108 234,-108 234,-72 288,-72 288,-108"/>
<text text-anchor="middle" x="261" y="-85.33" font-family="Times,serif" font-size="14.00">owl</text>
</g>
<!-- 4&#45;&gt;5 -->
<g id="edge7" class="edge">
<title>4&#45;&gt;5</title>
<path fill="none" stroke="black" d="M221.1,-143.7C227.13,-135.73 234.42,-126.1 241.11,-117.26"/>
<polygon fill="black" stroke="black" points="243.89,-119.4 247.14,-109.31 238.31,-115.17 243.89,-119.4"/>
</g>
<!-- 5&#45;&gt;1 -->
<g id="edge8" class="edge">
<title>5&#45;&gt;1</title>
<path fill="none" stroke="black" d="M247.4,-71.7C241.08,-63.64 233.42,-53.89 226.41,-44.98"/>
<polygon fill="black" stroke="black" points="229.3,-43 220.37,-37.29 223.8,-47.32 229.3,-43"/>
</g>
<!-- 6&#45;&gt;1 -->
<g id="edge9" class="edge">
<title>6&#45;&gt;1</title>
<path fill="none" stroke="black" d="M363.41,-143.79C348.87,-124.7 323.54,-93.73 297,-72 282.61,-60.22 265.29,-49.43 249.64,-40.71"/>
<polygon fill="black" stroke="black" points="251.43,-37.7 240.97,-36.01 248.09,-43.85 251.43,-37.7"/>
</g>
</g>
</svg>
