<?xml version="1.0" encoding="UTF-8" standalone="no"?>
<!DOCTYPE svg PUBLIC "-//W3C//DTD SVG 1.1//EN"
 "http://www.w3.org/Graphics/SVG/1.1/DTD/svg11.dtd">
<!-- Generated by graphviz version 12.2.1 (0)
 -->
<!-- Pages: 1 -->
<svg width="404pt" height="332pt"
 viewBox="0.00 0.00 404.37 332.00" xmlns="http://www.w3.org/2000/svg" xmlns:xlink="http://www.w3.org/1999/xlink">
<g id="graph0" class="graph" transform="scale(1 1) rotate(0) translate(4 328)">
<polygon fill="white" stroke="none" points="-4,4 -4,-328 400.37,-328 400.37,4 -4,4"/>
<!-- 0 -->
<g id="node1" class="node">
<title>0</title>
<polygon fill="none" stroke="black" points="268.24,-180 162.99,-180 162.99,-144 268.24,-144 268.24,-180"/>
<text text-anchor="middle" x="215.62" y="-157.32" font-family="Times,serif" font-size="14.00">auth&#45;domain</text>
</g>
<!-- 1 -->
<g id="node2" class="node">
<title>1</title>
<polygon fill="none" stroke="black" points="214.12,-36 147.12,-36 147.12,0 214.12,0 214.12,-36"/>
<text text-anchor="middle" x="180.62" y="-13.32" font-family="Times,serif" font-size="14.00">models</text>
</g>
<!-- 0&#45;&gt;1 -->
<g id="edge1" class="edge">
<title>0&#45;&gt;1</title>
<path fill="none" stroke="black" d="M211.65,-143.57C207.52,-125.61 200.82,-96.8 194.62,-72 192.6,-63.94 190.33,-55.2 188.21,-47.2"/>
<polygon fill="black" stroke="black" points="191.62,-46.38 185.66,-37.62 184.85,-48.18 191.62,-46.38"/>
</g>
<!-- 2 -->
<g id="node3" class="node">
<title>2</title>
<polygon fill="none" stroke="black" points="80.62,-108 26.62,-108 26.62,-72 80.62,-72 80.62,-108"/>
<text text-anchor="middle" x="53.62" y="-85.33" font-family="Times,serif" font-size="14.00">cli</text>
</g>
<!-- 2&#45;&gt;1 -->
<g id="edge2" class="edge">
<title>2&#45;&gt;1</title>
<path fill="none" stroke="black" d="M80.86,-73.98C97.79,-64.65 119.89,-52.47 138.98,-41.95"/>
<polygon fill="black" stroke="black" points="140.54,-45.08 147.61,-37.19 137.16,-38.95 140.54,-45.08"/>
</g>
<!-- 3 -->
<g id="node4" class="node">
<title>3</title>
<polygon fill="none" stroke="black" points="207.62,-324 153.62,-324 153.62,-288 207.62,-288 207.62,-324"/>
<text text-anchor="middle" x="180.62" y="-301.32" font-family="Times,serif" font-size="14.00">grid</text>
</g>
<!-- 3&#45;&gt;0 -->
<g id="edge3" class="edge">
<title>3&#45;&gt;0</title>
<path fill="none" stroke="black" d="M184.59,-287.57C188.71,-269.61 195.42,-240.8 201.62,-216 203.63,-207.94 205.9,-199.2 208.02,-191.2"/>
<polygon fill="black" stroke="black" points="211.38,-192.18 210.57,-181.62 204.62,-190.38 211.38,-192.18"/>
</g>
<!-- 4 -->
<g id="node5" class="node">
<title>4</title>
<polygon fill="none" stroke="black" points="145.12,-180 30.12,-180 30.12,-144 145.12,-144 145.12,-180"/>
<text text-anchor="middle" x="87.62" y="-157.32" font-family="Times,serif" font-size="14.00">prime&#45;domain</text>
</g>
<!-- 3&#45;&gt;4 -->
<g id="edge4" class="edge">
<title>3&#45;&gt;4</title>
<path fill="none" stroke="black" d="M170.12,-287.78C159.04,-269.74 140.96,-240.65 124.62,-216 118.82,-207.26 112.33,-197.84 106.42,-189.4"/>
<polygon fill="black" stroke="black" points="109.32,-187.44 100.7,-181.28 103.59,-191.47 109.32,-187.44"/>
</g>
<!-- 6 -->
<g id="node7" class="node">
<title>6</title>
<polygon fill="none" stroke="black" points="116.12,-252 43.12,-252 43.12,-216 116.12,-216 116.12,-252"/>
<text text-anchor="middle" x="79.62" y="-229.32" font-family="Times,serif" font-size="14.00">site&#45;app</text>
</g>
<!-- 3&#45;&gt;6 -->
<g id="edge5" class="edge">
<title>3&#45;&gt;6</title>
<path fill="none" stroke="black" d="M155.39,-287.52C142.76,-278.76 127.29,-268.04 113.63,-258.58"/>
<polygon fill="black" stroke="black" points="115.98,-255.94 105.77,-253.12 111.99,-261.7 115.98,-255.94"/>
</g>
<!-- 7 -->
<g id="node8" class="node">
<title>7</title>
<polygon fill="none" stroke="black" points="396.37,-252 210.87,-252 210.87,-216 396.37,-216 396.37,-252"/>
<text text-anchor="middle" x="303.62" y="-229.32" font-family="Times,serif" font-size="14.00">tower&#45;sessions&#45;db&#45;store</text>
</g>
<!-- 3&#45;&gt;7 -->
<g id="edge6" class="edge">
<title>3&#45;&gt;7</title>
<path fill="none" stroke="black" d="M207.91,-289.46C224.08,-280.26 244.87,-268.43 262.94,-258.15"/>
<polygon fill="black" stroke="black" points="264.66,-261.2 271.62,-253.21 261.2,-255.11 264.66,-261.2"/>
</g>
<!-- 4&#45;&gt;1 -->
<g id="edge7" class="edge">
<title>4&#45;&gt;1</title>
<path fill="none" stroke="black" d="M122.31,-143.61C136.54,-134.8 151.92,-122.81 161.62,-108 173.33,-90.11 177.97,-66.26 179.74,-47.75"/>
<polygon fill="black" stroke="black" points="183.22,-48.21 180.43,-37.99 176.23,-47.71 183.22,-48.21"/>
</g>
<!-- 5 -->
<g id="node6" class="node">
<title>5</title>
<polygon fill="none" stroke="black" points="152.62,-108 98.62,-108 98.62,-72 152.62,-72 152.62,-108"/>
<text text-anchor="middle" x="125.62" y="-85.33" font-family="Times,serif" font-size="14.00">owl</text>
</g>
<!-- 4&#45;&gt;5 -->
<g id="edge8" class="edge">
<title>4&#45;&gt;5</title>
<path fill="none" stroke="black" d="M97.01,-143.7C101.2,-135.98 106.23,-126.71 110.9,-118.11"/>
<polygon fill="black" stroke="black" points="113.91,-119.89 115.61,-109.43 107.76,-116.55 113.91,-119.89"/>
</g>
<!-- 5&#45;&gt;1 -->
<g id="edge9" class="edge">
<title>5&#45;&gt;1</title>
<path fill="none" stroke="black" d="M139.21,-71.7C145.54,-63.64 153.2,-53.89 160.2,-44.98"/>
<polygon fill="black" stroke="black" points="162.82,-47.32 166.24,-37.29 157.31,-43 162.82,-47.32"/>
</g>
<!-- 6&#45;&gt;0 -->
<g id="edge10" class="edge">
<title>6&#45;&gt;0</title>
<path fill="none" stroke="black" stroke-dasharray="1,5" d="M113.58,-215.52C131.24,-206.43 153.03,-195.22 171.92,-185.49"/>
<polygon fill="black" stroke="black" points="173.45,-188.64 180.74,-180.95 170.24,-182.42 173.45,-188.64"/>
</g>
<!-- 6&#45;&gt;1 -->
<g id="edge11" class="edge">
<title>6&#45;&gt;1</title>
<path fill="none" stroke="black" d="M51.78,-215.51C39.96,-206.47 27.37,-194.32 20.62,-180 0.15,-136.56 -10.6,-110.85 17.62,-72 44.32,-35.24 97.16,-23.47 135.46,-19.97"/>
<polygon fill="black" stroke="black" points="135.61,-23.46 145.32,-19.24 135.09,-16.48 135.61,-23.46"/>
</g>
<!-- 6&#45;&gt;4 -->
<g id="edge12" class="edge">
<title>6&#45;&gt;4</title>
<path fill="none" stroke="black" stroke-dasharray="1,5" d="M81.59,-215.7C82.43,-208.41 83.42,-199.73 84.36,-191.54"/>
<polygon fill="black" stroke="black" points="87.83,-191.94 85.49,-181.61 80.88,-191.15 87.83,-191.94"/>
</g>
<!-- 7&#45;&gt;1 -->
<g id="edge13" class="edge">
<title>7&#45;&gt;1</title>
<path fill="none" stroke="black" d="M300.54,-215.55C296.83,-197.06 289.55,-167.37 277.62,-144 258.26,-106.09 226.79,-68.27 204.97,-44.33"/>
<polygon fill="black" stroke="black" points="207.8,-42.23 198.44,-37.27 202.66,-46.98 207.8,-42.23"/>
</g>
<!-- 8 -->
<g id="node9" class="node">
<title>8</title>
<polygon fill="none" stroke="black" points="392.49,-108 324.74,-108 324.74,-72 392.49,-72 392.49,-108"/>
<text text-anchor="middle" x="358.62" y="-85.33" font-family="Times,serif" font-size="14.00">junk&#45;cli</text>
</g>
<!-- 8&#45;&gt;1 -->
<g id="edge14" class="edge">
<title>8&#45;&gt;1</title>
<path fill="none" stroke="black" d="M324.3,-75.5C296.01,-64.38 255.69,-48.52 224.96,-36.44"/>
<polygon fill="black" stroke="black" points="226.53,-33.29 215.94,-32.89 223.96,-39.81 226.53,-33.29"/>
</g>
<!-- 9 -->
<g id="node10" class="node">
<title>9</title>
<polygon fill="none" stroke="black" points="133.74,-324 25.49,-324 25.49,-288 133.74,-288 133.74,-324"/>
<text text-anchor="middle" x="79.62" y="-301.32" font-family="Times,serif" font-size="14.00">site&#45;frontend</text>
</g>
<!-- 9&#45;&gt;6 -->
<g id="edge15" class="edge">
<title>9&#45;&gt;6</title>
<path fill="none" stroke="black" d="M79.62,-287.7C79.62,-280.41 79.62,-271.73 79.62,-263.54"/>
<polygon fill="black" stroke="black" points="83.12,-263.62 79.62,-253.62 76.12,-263.62 83.12,-263.62"/>
</g>
</g>
</svg>
