<?xml version="1.0" encoding="UTF-8" standalone="no"?>
<!DOCTYPE svg PUBLIC "-//W3C//DTD SVG 1.1//EN"
 "http://www.w3.org/Graphics/SVG/1.1/DTD/svg11.dtd">
<!-- Generated by graphviz version 12.2.1 (0)
 -->
<!-- Pages: 1 -->
<svg width="376pt" height="260pt"
 viewBox="0.00 0.00 375.75 260.00" xmlns="http://www.w3.org/2000/svg" xmlns:xlink="http://www.w3.org/1999/xlink">
<g id="graph0" class="graph" transform="scale(1 1) rotate(0) translate(4 256)">
<polygon fill="white" stroke="none" points="-4,4 -4,-256 371.75,-256 371.75,4 -4,4"/>
<!-- 0 -->
<g id="node1" class="node">
<title>0</title>
<polygon fill="none" stroke="black" points="54,-108 0,-108 0,-72 54,-72 54,-108"/>
<text text-anchor="middle" x="27" y="-85.33" font-family="Times,serif" font-size="14.00">cli</text>
</g>
<!-- 1 -->
<g id="node2" class="node">
<title>1</title>
<polygon fill="none" stroke="black" points="142.5,-36 75.5,-36 75.5,0 142.5,0 142.5,-36"/>
<text text-anchor="middle" x="109" y="-13.32" font-family="Times,serif" font-size="14.00">models</text>
</g>
<!-- 0&#45;&gt;1 -->
<g id="edge1" class="edge">
<title>0&#45;&gt;1</title>
<path fill="none" stroke="black" d="M47.27,-71.7C57.13,-63.28 69.15,-53.02 79.96,-43.79"/>
<polygon fill="black" stroke="black" points="82.19,-46.48 87.53,-37.33 77.65,-41.16 82.19,-46.48"/>
</g>
<!-- 2 -->
<g id="node3" class="node">
<title>2</title>
<polygon fill="none" stroke="black" points="136,-252 82,-252 82,-216 136,-216 136,-252"/>
<text text-anchor="middle" x="109" y="-229.32" font-family="Times,serif" font-size="14.00">grid</text>
</g>
<!-- 3 -->
<g id="node4" class="node">
<title>3</title>
<polygon fill="none" stroke="black" points="166.5,-180 51.5,-180 51.5,-144 166.5,-144 166.5,-180"/>
<text text-anchor="middle" x="109" y="-157.32" font-family="Times,serif" font-size="14.00">prime&#45;domain</text>
</g>
<!-- 2&#45;&gt;3 -->
<g id="edge2" class="edge">
<title>2&#45;&gt;3</title>
<path fill="none" stroke="black" d="M109,-215.7C109,-208.41 109,-199.73 109,-191.54"/>
<polygon fill="black" stroke="black" points="112.5,-191.62 109,-181.62 105.5,-191.62 112.5,-191.62"/>
</g>
<!-- 3&#45;&gt;1 -->
<g id="edge3" class="edge">
<title>3&#45;&gt;1</title>
<path fill="none" stroke="black" d="M105.75,-143.89C103.95,-133.54 101.91,-120.06 101,-108 99.8,-92.04 99.8,-87.96 101,-72 101.6,-63.99 102.71,-55.35 103.91,-47.43"/>
<polygon fill="black" stroke="black" points="107.35,-48.04 105.51,-37.61 100.45,-46.91 107.35,-48.04"/>
</g>
<!-- 4 -->
<g id="node5" class="node">
<title>4</title>
<polygon fill="none" stroke="black" points="164,-108 110,-108 110,-72 164,-72 164,-108"/>
<text text-anchor="middle" x="137" y="-85.33" font-family="Times,serif" font-size="14.00">owl</text>
</g>
<!-- 3&#45;&gt;4 -->
<g id="edge4" class="edge">
<title>3&#45;&gt;4</title>
<path fill="none" stroke="black" d="M115.92,-143.7C118.94,-136.15 122.55,-127.12 125.93,-118.68"/>
<polygon fill="black" stroke="black" points="129.13,-120.09 129.6,-109.51 122.63,-117.49 129.13,-120.09"/>
</g>
<!-- 4&#45;&gt;1 -->
<g id="edge5" class="edge">
<title>4&#45;&gt;1</title>
<path fill="none" stroke="black" d="M130.08,-71.7C127.06,-64.15 123.45,-55.12 120.07,-46.68"/>
<polygon fill="black" stroke="black" points="123.37,-45.49 116.4,-37.51 116.87,-48.09 123.37,-45.49"/>
</g>
<!-- 5 -->
<g id="node6" class="node">
<title>5</title>
<polygon fill="none" stroke="black" points="367.75,-108 182.25,-108 182.25,-72 367.75,-72 367.75,-108"/>
<text text-anchor="middle" x="275" y="-85.33" font-family="Times,serif" font-size="14.00">tower&#45;sessions&#45;db&#45;store</text>
</g>
<!-- 5&#45;&gt;1 -->
<g id="edge6" class="edge">
<title>5&#45;&gt;1</title>
<path fill="none" stroke="black" d="M233.54,-71.52C209.09,-61.21 178.15,-48.16 153.23,-37.65"/>
<polygon fill="black" stroke="black" points="154.93,-34.57 144.35,-33.91 152.21,-41.02 154.93,-34.57"/>
</g>
</g>
</svg>
