<?xml version="1.0" encoding="UTF-8" standalone="no"?>
<!DOCTYPE svg PUBLIC "-//W3C//DTD SVG 1.1//EN"
 "http://www.w3.org/Graphics/SVG/1.1/DTD/svg11.dtd">
<!-- Generated by graphviz version 12.2.1 (0)
 -->
<!-- Pages: 1 -->
<svg width="123pt" height="188pt"
 viewBox="0.00 0.00 123.00 188.00" xmlns="http://www.w3.org/2000/svg" xmlns:xlink="http://www.w3.org/1999/xlink">
<g id="graph0" class="graph" transform="scale(1 1) rotate(0) translate(4 184)">
<polygon fill="white" stroke="none" points="-4,4 -4,-184 119,-184 119,4 -4,4"/>
<!-- 0 -->
<g id="node1" class="node">
<title>0</title>
<polygon fill="none" stroke="black" points="84.5,-180 30.5,-180 30.5,-144 84.5,-144 84.5,-180"/>
<text text-anchor="middle" x="57.5" y="-157.32" font-family="Times,serif" font-size="14.00">app</text>
</g>
<!-- 1 -->
<g id="node2" class="node">
<title>1</title>
<polygon fill="none" stroke="black" points="115,-108 0,-108 0,-72 115,-72 115,-108"/>
<text text-anchor="middle" x="57.5" y="-85.33" font-family="Times,serif" font-size="14.00">prime&#45;domain</text>
</g>
<!-- 0&#45;&gt;1 -->
<g id="edge1" class="edge">
<title>0&#45;&gt;1</title>
<path fill="none" stroke="black" d="M57.5,-143.7C57.5,-136.41 57.5,-127.73 57.5,-119.54"/>
<polygon fill="black" stroke="black" points="61,-119.62 57.5,-109.62 54,-119.62 61,-119.62"/>
</g>
<!-- 2 -->
<g id="node3" class="node">
<title>2</title>
<polygon fill="none" stroke="black" points="91,-36 24,-36 24,0 91,0 91,-36"/>
<text text-anchor="middle" x="57.5" y="-13.32" font-family="Times,serif" font-size="14.00">models</text>
</g>
<!-- 1&#45;&gt;2 -->
<g id="edge2" class="edge">
<title>1&#45;&gt;2</title>
<path fill="none" stroke="black" d="M57.5,-71.7C57.5,-64.41 57.5,-55.73 57.5,-47.54"/>
<polygon fill="black" stroke="black" points="61,-47.62 57.5,-37.62 54,-47.62 61,-47.62"/>
</g>
</g>
</svg>
