<?xml version="1.0" encoding="UTF-8" standalone="no"?>
<!DOCTYPE svg PUBLIC "-//W3C//DTD SVG 1.1//EN"
 "http://www.w3.org/Graphics/SVG/1.1/DTD/svg11.dtd">
<!-- Generated by graphviz version 12.2.1 (0)
 -->
<!-- Pages: 1 -->
<svg width="1200pt" height="404pt"
 viewBox="0.00 0.00 1200.17 404.00" xmlns="http://www.w3.org/2000/svg" xmlns:xlink="http://www.w3.org/1999/xlink">
<g id="graph0" class="graph" transform="scale(1 1) rotate(0) translate(4 400)">
<polygon fill="white" stroke="none" points="-4,4 -4,-400 1196.17,-400 1196.17,4 -4,4"/>
<!-- 0 -->
<g id="node1" class="node">
<title>0</title>
<polygon fill="none" stroke="black" points="722.42,-252 617.17,-252 617.17,-216 722.42,-216 722.42,-252"/>
<text text-anchor="middle" x="669.8" y="-229.32" font-family="Times,serif" font-size="14.00">auth&#45;domain</text>
</g>
<!-- 1 -->
<g id="node2" class="node">
<title>1</title>
<polygon fill="none" stroke="black" points="845.8,-180 727.8,-180 727.8,-144 845.8,-144 845.8,-180"/>
<text text-anchor="middle" x="786.8" y="-157.32" font-family="Times,serif" font-size="14.00">billing&#45;domain</text>
</g>
<!-- 0&#45;&gt;1 -->
<g id="edge1" class="edge">
<title>0&#45;&gt;1</title>
<path fill="none" stroke="black" d="M699.02,-215.52C713.93,-206.6 732.26,-195.63 748.3,-186.03"/>
<polygon fill="black" stroke="black" points="749.86,-189.18 756.65,-181.04 746.27,-183.17 749.86,-189.18"/>
</g>
<!-- 2 -->
<g id="node3" class="node">
<title>2</title>
<polygon fill="none" stroke="black" points="681.3,-108 614.3,-108 614.3,-72 681.3,-72 681.3,-108"/>
<text text-anchor="middle" x="647.8" y="-85.33" font-family="Times,serif" font-size="14.00">models</text>
</g>
<!-- 0&#45;&gt;2 -->
<g id="edge3" class="edge">
<title>0&#45;&gt;2</title>
<path fill="none" stroke="black" d="M722.83,-227.04C790.23,-217.3 893.48,-193.83 854.8,-144 835.1,-118.62 747.32,-103.33 692.59,-96.08"/>
<polygon fill="black" stroke="black" points="693.31,-92.65 682.95,-94.85 692.42,-99.59 693.31,-92.65"/>
</g>
<!-- 4 -->
<g id="node5" class="node">
<title>4</title>
<polygon fill="none" stroke="black" points="567.3,-180 458.3,-180 458.3,-144 567.3,-144 567.3,-180"/>
<text text-anchor="middle" x="512.8" y="-157.32" font-family="Times,serif" font-size="14.00">meta&#45;domain</text>
</g>
<!-- 0&#45;&gt;4 -->
<g id="edge2" class="edge">
<title>0&#45;&gt;4</title>
<path fill="none" stroke="black" d="M630.58,-215.52C609.9,-206.29 584.31,-194.89 562.28,-185.06"/>
<polygon fill="black" stroke="black" points="563.72,-181.87 553.16,-181 560.87,-188.27 563.72,-181.87"/>
</g>
<!-- 5 -->
<g id="node6" class="node">
<title>5</title>
<polygon fill="none" stroke="black" points="709.8,-180 585.8,-180 585.8,-144 709.8,-144 709.8,-180"/>
<text text-anchor="middle" x="647.8" y="-157.32" font-family="Times,serif" font-size="14.00">mutate&#45;domain</text>
</g>
<!-- 0&#45;&gt;5 -->
<g id="edge4" class="edge">
<title>0&#45;&gt;5</title>
<path fill="none" stroke="black" d="M664.36,-215.7C662.01,-208.24 659.21,-199.32 656.59,-190.97"/>
<polygon fill="black" stroke="black" points="659.96,-190.04 653.63,-181.55 653.28,-192.14 659.96,-190.04"/>
</g>
<!-- 1&#45;&gt;2 -->
<g id="edge5" class="edge">
<title>1&#45;&gt;2</title>
<path fill="none" stroke="black" d="M752.08,-143.52C733.81,-134.32 711.22,-122.94 691.75,-113.13"/>
<polygon fill="black" stroke="black" points="693.45,-110.07 682.94,-108.7 690.3,-116.32 693.45,-110.07"/>
</g>
<!-- 3 -->
<g id="node4" class="node">
<title>3</title>
<polygon fill="none" stroke="black" points="699.3,-36 596.3,-36 596.3,0 699.3,0 699.3,-36"/>
<text text-anchor="middle" x="647.8" y="-13.32" font-family="Times,serif" font-size="14.00">model&#45;types</text>
</g>
<!-- 2&#45;&gt;3 -->
<g id="edge6" class="edge">
<title>2&#45;&gt;3</title>
<path fill="none" stroke="black" d="M647.8,-71.7C647.8,-64.41 647.8,-55.73 647.8,-47.54"/>
<polygon fill="black" stroke="black" points="651.3,-47.62 647.8,-37.62 644.3,-47.62 651.3,-47.62"/>
</g>
<!-- 4&#45;&gt;2 -->
<g id="edge7" class="edge">
<title>4&#45;&gt;2</title>
<path fill="none" stroke="black" d="M546.51,-143.52C564.04,-134.43 585.66,-123.22 604.42,-113.49"/>
<polygon fill="black" stroke="black" points="605.9,-116.67 613.16,-108.96 602.68,-110.45 605.9,-116.67"/>
</g>
<!-- 5&#45;&gt;2 -->
<g id="edge8" class="edge">
<title>5&#45;&gt;2</title>
<path fill="none" stroke="black" d="M647.8,-143.7C647.8,-136.41 647.8,-127.73 647.8,-119.54"/>
<polygon fill="black" stroke="black" points="651.3,-119.62 647.8,-109.62 644.3,-119.62 651.3,-119.62"/>
</g>
<!-- 6 -->
<g id="node7" class="node">
<title>6</title>
<polygon fill="none" stroke="black" points="159.55,-180 22.05,-180 22.05,-144 159.55,-144 159.55,-180"/>
<text text-anchor="middle" x="90.8" y="-157.32" font-family="Times,serif" font-size="14.00">category&#45;batcher</text>
</g>
<!-- 7 -->
<g id="node8" class="node">
<title>7</title>
<polygon fill="none" stroke="black" points="955.8,-180 901.8,-180 901.8,-144 955.8,-144 955.8,-180"/>
<text text-anchor="middle" x="928.8" y="-157.32" font-family="Times,serif" font-size="14.00">cli</text>
</g>
<!-- 7&#45;&gt;2 -->
<g id="edge9" class="edge">
<title>7&#45;&gt;2</title>
<path fill="none" stroke="black" d="M901.7,-148.98C897.11,-147.17 892.35,-145.44 887.8,-144 821.11,-122.99 741.46,-107.16 692.77,-98.49"/>
<polygon fill="black" stroke="black" points="693.62,-95.09 683.17,-96.8 692.41,-101.98 693.62,-95.09"/>
</g>
<!-- 8 -->
<g id="node9" class="node">
<title>8</title>
<polygon fill="none" stroke="black" points="535.05,-252 466.55,-252 466.55,-216 535.05,-216 535.05,-252"/>
<text text-anchor="middle" x="500.8" y="-229.32" font-family="Times,serif" font-size="14.00">domain</text>
</g>
<!-- 8&#45;&gt;1 -->
<g id="edge10" class="edge">
<title>8&#45;&gt;1</title>
<path fill="none" stroke="black" d="M535.17,-224.72C576.05,-214.85 646.62,-197.76 716.68,-180.51"/>
<polygon fill="black" stroke="black" points="717.12,-184.01 725.99,-178.22 715.45,-177.21 717.12,-184.01"/>
</g>
<!-- 8&#45;&gt;2 -->
<g id="edge13" class="edge">
<title>8&#45;&gt;2</title>
<path fill="none" stroke="black" d="M466.31,-228.68C436.97,-222.99 396.53,-209.89 376.8,-180 367.98,-166.65 366.63,-156.35 376.8,-144 404.88,-109.89 533.03,-97.42 602.58,-93.12"/>
<polygon fill="black" stroke="black" points="602.74,-96.61 612.52,-92.54 602.33,-89.62 602.74,-96.61"/>
</g>
<!-- 8&#45;&gt;4 -->
<g id="edge11" class="edge">
<title>8&#45;&gt;4</title>
<path fill="none" stroke="black" d="M503.76,-215.7C505.03,-208.32 506.53,-199.52 507.95,-191.25"/>
<polygon fill="black" stroke="black" points="511.37,-192.04 509.61,-181.6 504.47,-190.86 511.37,-192.04"/>
</g>
<!-- 8&#45;&gt;5 -->
<g id="edge14" class="edge">
<title>8&#45;&gt;5</title>
<path fill="none" stroke="black" d="M535.26,-216.59C554.88,-207.25 579.72,-195.42 601.07,-185.25"/>
<polygon fill="black" stroke="black" points="602.35,-188.52 609.87,-181.06 599.34,-182.2 602.35,-188.52"/>
</g>
<!-- 9 -->
<g id="node10" class="node">
<title>9</title>
<polygon fill="none" stroke="black" points="329.55,-180 216.05,-180 216.05,-144 329.55,-144 329.55,-180"/>
<text text-anchor="middle" x="272.8" y="-157.32" font-family="Times,serif" font-size="14.00">metrics&#45;types</text>
</g>
<!-- 8&#45;&gt;9 -->
<g id="edge12" class="edge">
<title>8&#45;&gt;9</title>
<path fill="none" stroke="black" d="M466.17,-222.37C432.89,-212.15 381.7,-196.44 340.35,-183.74"/>
<polygon fill="black" stroke="black" points="341.55,-180.45 330.96,-180.86 339.49,-187.14 341.55,-180.45"/>
</g>
<!-- 10 -->
<g id="node11" class="node">
<title>10</title>
<polygon fill="none" stroke="black" points="439.8,-180 385.8,-180 385.8,-144 439.8,-144 439.8,-180"/>
<text text-anchor="middle" x="412.8" y="-157.32" font-family="Times,serif" font-size="14.00">owl</text>
</g>
<!-- 8&#45;&gt;10 -->
<g id="edge15" class="edge">
<title>8&#45;&gt;10</title>
<path fill="none" stroke="black" d="M479.04,-215.7C468.36,-207.2 455.3,-196.81 443.61,-187.51"/>
<polygon fill="black" stroke="black" points="445.79,-184.78 435.79,-181.29 441.44,-190.25 445.79,-184.78"/>
</g>
<!-- 9&#45;&gt;2 -->
<g id="edge16" class="edge">
<title>9&#45;&gt;2</title>
<path fill="none" stroke="black" d="M329.69,-147.05C334.46,-145.98 339.2,-144.95 343.8,-144 435.28,-125.09 543.18,-107.35 602.69,-97.96"/>
<polygon fill="black" stroke="black" points="603.1,-101.44 612.43,-96.43 602.01,-94.53 603.1,-101.44"/>
</g>
<!-- 10&#45;&gt;2 -->
<g id="edge17" class="edge">
<title>10&#45;&gt;2</title>
<path fill="none" stroke="black" d="M440.1,-147.48C443,-146.23 445.94,-145.04 448.8,-144 500.55,-125.06 562.13,-109.72 602.94,-100.5"/>
<polygon fill="black" stroke="black" points="603.65,-103.93 612.65,-98.34 602.13,-97.1 603.65,-103.93"/>
</g>
<!-- 11 -->
<g id="node12" class="node">
<title>11</title>
<polygon fill="none" stroke="black" points="659.67,-324 555.92,-324 555.92,-288 659.67,-288 659.67,-324"/>
<text text-anchor="middle" x="607.8" y="-301.32" font-family="Times,serif" font-size="14.00">drop&#45;stream</text>
</g>
<!-- 12 -->
<g id="node13" class="node">
<title>12</title>
<polygon fill="none" stroke="black" points="535.8,-396 481.8,-396 481.8,-360 535.8,-360 535.8,-396"/>
<text text-anchor="middle" x="508.8" y="-373.32" font-family="Times,serif" font-size="14.00">grid</text>
</g>
<!-- 12&#45;&gt;0 -->
<g id="edge18" class="edge">
<title>12&#45;&gt;0</title>
<path fill="none" stroke="black" d="M512.12,-359.77C516.73,-340.07 526.87,-307.99 546.8,-288 563.01,-271.73 585.03,-260.13 605.95,-252.01"/>
<polygon fill="black" stroke="black" points="607.13,-255.3 615.33,-248.59 604.74,-248.72 607.13,-255.3"/>
</g>
<!-- 12&#45;&gt;8 -->
<g id="edge19" class="edge">
<title>12&#45;&gt;8</title>
<path fill="none" stroke="black" d="M507.82,-359.59C506.46,-335.61 504.02,-292.14 502.4,-263.42"/>
<polygon fill="black" stroke="black" points="505.9,-263.41 501.85,-253.62 498.91,-263.8 505.9,-263.41"/>
</g>
<!-- 12&#45;&gt;11 -->
<g id="edge20" class="edge">
<title>12&#45;&gt;11</title>
<path fill="none" stroke="black" d="M533.52,-359.52C545.78,-350.85 560.77,-340.25 574.07,-330.85"/>
<polygon fill="black" stroke="black" points="576,-333.77 582.15,-325.13 571.96,-328.05 576,-333.77"/>
</g>
<!-- 13 -->
<g id="node14" class="node">
<title>13</title>
<polygon fill="none" stroke="black" points="294.3,-252 167.3,-252 167.3,-216 294.3,-216 294.3,-252"/>
<text text-anchor="middle" x="230.8" y="-229.32" font-family="Times,serif" font-size="14.00">metrics&#45;domain</text>
</g>
<!-- 12&#45;&gt;13 -->
<g id="edge21" class="edge">
<title>12&#45;&gt;13</title>
<path fill="none" stroke="black" d="M481.38,-363C433.18,-338.38 332.88,-287.14 274.85,-257.5"/>
<polygon fill="black" stroke="black" points="276.72,-254.53 266.23,-253.1 273.54,-260.76 276.72,-254.53"/>
</g>
<!-- 14 -->
<g id="node15" class="node">
<title>14</title>
<polygon fill="none" stroke="black" points="750.3,-324 677.3,-324 677.3,-288 750.3,-288 750.3,-324"/>
<text text-anchor="middle" x="713.8" y="-301.32" font-family="Times,serif" font-size="14.00">site&#45;app</text>
</g>
<!-- 12&#45;&gt;14 -->
<g id="edge22" class="edge">
<title>12&#45;&gt;14</title>
<path fill="none" stroke="black" d="M536.09,-368.34C565.97,-358.77 615.54,-342.67 666.47,-324.77"/>
<polygon fill="black" stroke="black" points="667.32,-328.18 675.58,-321.54 664.98,-321.58 667.32,-328.18"/>
</g>
<!-- 16 -->
<g id="node17" class="node">
<title>16</title>
<polygon fill="none" stroke="black" points="232.55,-324 47.05,-324 47.05,-288 232.55,-288 232.55,-324"/>
<text text-anchor="middle" x="139.8" y="-301.32" font-family="Times,serif" font-size="14.00">tower&#45;sessions&#45;db&#45;store</text>
</g>
<!-- 12&#45;&gt;16 -->
<g id="edge23" class="edge">
<title>12&#45;&gt;16</title>
<path fill="none" stroke="black" d="M481.36,-371.8C431.67,-362.37 324.4,-342.02 243.25,-326.62"/>
<polygon fill="black" stroke="black" points="243.94,-323.19 233.46,-324.77 242.64,-330.07 243.94,-323.19"/>
</g>
<!-- 13&#45;&gt;2 -->
<g id="edge26" class="edge">
<title>13&#45;&gt;2</title>
<path fill="none" stroke="black" d="M217.91,-215.81C204.87,-196.16 188.96,-164.11 206.8,-144 232.78,-114.7 495.2,-98.53 602.47,-93.1"/>
<polygon fill="black" stroke="black" points="602.53,-96.6 612.35,-92.61 602.19,-89.61 602.53,-96.6"/>
</g>
<!-- 13&#45;&gt;6 -->
<g id="edge24" class="edge">
<title>13&#45;&gt;6</title>
<path fill="none" stroke="black" d="M195.83,-215.52C177.57,-206.39 155.02,-195.11 135.5,-185.35"/>
<polygon fill="black" stroke="black" points="137.18,-182.28 126.67,-180.94 134.05,-188.54 137.18,-182.28"/>
</g>
<!-- 13&#45;&gt;9 -->
<g id="edge25" class="edge">
<title>13&#45;&gt;9</title>
<path fill="none" stroke="black" d="M241.18,-215.7C245.86,-207.9 251.49,-198.51 256.7,-189.83"/>
<polygon fill="black" stroke="black" points="259.61,-191.78 261.75,-181.4 253.61,-188.18 259.61,-191.78"/>
</g>
<!-- 14&#45;&gt;0 -->
<g id="edge27" class="edge">
<title>14&#45;&gt;0</title>
<path fill="none" stroke="black" stroke-dasharray="1,5" d="M702.92,-287.7C698.02,-279.9 692.12,-270.51 686.66,-261.83"/>
<polygon fill="black" stroke="black" points="689.64,-259.99 681.35,-253.39 683.71,-263.71 689.64,-259.99"/>
</g>
<!-- 14&#45;&gt;2 -->
<g id="edge29" class="edge">
<title>14&#45;&gt;2</title>
<path fill="none" stroke="black" d="M750.48,-301.27C854.94,-289.33 1140.8,-246.61 1050.8,-144 1027.46,-117.4 793.34,-99.95 693.03,-93.64"/>
<polygon fill="black" stroke="black" points="693.47,-90.16 683.28,-93.03 693.04,-97.15 693.47,-90.16"/>
</g>
<!-- 14&#45;&gt;8 -->
<g id="edge28" class="edge">
<title>14&#45;&gt;8</title>
<path fill="none" stroke="black" stroke-dasharray="1,5" d="M677.02,-290.92C674.24,-289.91 671.48,-288.93 668.8,-288 627.64,-273.75 580.29,-258.95 546.37,-248.63"/>
<polygon fill="black" stroke="black" points="547.44,-245.3 536.86,-245.74 545.41,-251.99 547.44,-245.3"/>
</g>
<!-- 15 -->
<g id="node16" class="node">
<title>15</title>
<polygon fill="none" stroke="black" points="1192.17,-252 1097.42,-252 1097.42,-216 1192.17,-216 1192.17,-252"/>
<text text-anchor="middle" x="1144.8" y="-229.32" font-family="Times,serif" font-size="14.00">site&#45;paddle</text>
</g>
<!-- 14&#45;&gt;15 -->
<g id="edge30" class="edge">
<title>14&#45;&gt;15</title>
<path fill="none" stroke="black" d="M750.57,-301.33C817.39,-294.31 962.98,-277.38 1083.8,-252 1084.47,-251.86 1085.14,-251.71 1085.82,-251.57"/>
<polygon fill="black" stroke="black" points="1086.58,-254.99 1095.52,-249.3 1084.98,-248.17 1086.58,-254.99"/>
</g>
<!-- 15&#45;&gt;2 -->
<g id="edge31" class="edge">
<title>15&#45;&gt;2</title>
<path fill="none" stroke="black" d="M1138.14,-215.58C1129.2,-194.75 1111.18,-160.62 1083.8,-144 1018.81,-104.56 790.55,-94.41 692.79,-91.84"/>
<polygon fill="black" stroke="black" points="693.13,-88.35 683.04,-91.6 692.96,-95.35 693.13,-88.35"/>
</g>
<!-- 16&#45;&gt;2 -->
<g id="edge32" class="edge">
<title>16&#45;&gt;2</title>
<path fill="none" stroke="black" d="M108.49,-287.62C57.69,-257.33 -32.64,-193.39 12.8,-144 52.6,-100.74 464.07,-92.78 602.58,-91.32"/>
<polygon fill="black" stroke="black" points="602.5,-94.82 612.46,-91.23 602.43,-87.82 602.5,-94.82"/>
</g>
<!-- 17 -->
<g id="node18" class="node">
<title>17</title>
<polygon fill="none" stroke="black" points="1041.67,-180 973.92,-180 973.92,-144 1041.67,-144 1041.67,-180"/>
<text text-anchor="middle" x="1007.8" y="-157.32" font-family="Times,serif" font-size="14.00">junk&#45;cli</text>
</g>
<!-- 17&#45;&gt;2 -->
<g id="edge33" class="edge">
<title>17&#45;&gt;2</title>
<path fill="none" stroke="black" d="M973.75,-146.79C970.75,-145.77 967.74,-144.82 964.8,-144 869.84,-117.61 755.02,-102.41 692.95,-95.52"/>
<polygon fill="black" stroke="black" points="693.44,-92.05 683.12,-94.45 692.69,-99.01 693.44,-92.05"/>
</g>
<!-- 18 -->
<g id="node19" class="node">
<title>18</title>
<polygon fill="none" stroke="black" points="767.92,-396 659.67,-396 659.67,-360 767.92,-360 767.92,-396"/>
<text text-anchor="middle" x="713.8" y="-373.32" font-family="Times,serif" font-size="14.00">site&#45;frontend</text>
</g>
<!-- 18&#45;&gt;14 -->
<g id="edge34" class="edge">
<title>18&#45;&gt;14</title>
<path fill="none" stroke="black" d="M713.8,-359.7C713.8,-352.41 713.8,-343.73 713.8,-335.54"/>
<polygon fill="black" stroke="black" points="717.3,-335.62 713.8,-325.62 710.3,-335.62 717.3,-335.62"/>
</g>
</g>
</svg>
