<?xml version="1.0" encoding="UTF-8" standalone="no"?>
<!DOCTYPE svg PUBLIC "-//W3C//DTD SVG 1.1//EN"
 "http://www.w3.org/Graphics/SVG/1.1/DTD/svg11.dtd">
<!-- Generated by graphviz version 12.2.1 (0)
 -->
<!-- Pages: 1 -->
<svg width="391pt" height="332pt"
 viewBox="0.00 0.00 391.25 332.00" xmlns="http://www.w3.org/2000/svg" xmlns:xlink="http://www.w3.org/1999/xlink">
<g id="graph0" class="graph" transform="scale(1 1) rotate(0) translate(4 328)">
<polygon fill="white" stroke="none" points="-4,4 -4,-328 387.25,-328 387.25,4 -4,4"/>
<!-- 0 -->
<g id="node1" class="node">
<title>0</title>
<polygon fill="none" stroke="black" points="243.13,-180 137.88,-180 137.88,-144 243.13,-144 243.13,-180"/>
<text text-anchor="middle" x="190.5" y="-157.32" font-family="Times,serif" font-size="14.00">auth&#45;domain</text>
</g>
<!-- 1 -->
<g id="node2" class="node">
<title>1</title>
<polygon fill="none" stroke="black" points="208,-36 141,-36 141,0 208,0 208,-36"/>
<text text-anchor="middle" x="174.5" y="-13.32" font-family="Times,serif" font-size="14.00">models</text>
</g>
<!-- 0&#45;&gt;1 -->
<g id="edge1" class="edge">
<title>0&#45;&gt;1</title>
<path fill="none" stroke="black" d="M191.32,-143.51C191.88,-125.49 191.98,-96.64 188.5,-72 187.36,-63.9 185.4,-55.26 183.31,-47.35"/>
<polygon fill="black" stroke="black" points="186.73,-46.58 180.63,-37.91 179.99,-48.49 186.73,-46.58"/>
</g>
<!-- 2 -->
<g id="node3" class="node">
<title>2</title>
<polygon fill="none" stroke="black" points="74.5,-108 20.5,-108 20.5,-72 74.5,-72 74.5,-108"/>
<text text-anchor="middle" x="47.5" y="-85.33" font-family="Times,serif" font-size="14.00">cli</text>
</g>
<!-- 2&#45;&gt;1 -->
<g id="edge2" class="edge">
<title>2&#45;&gt;1</title>
<path fill="none" stroke="black" d="M74.75,-73.98C91.67,-64.65 113.77,-52.47 132.86,-41.95"/>
<polygon fill="black" stroke="black" points="134.43,-45.08 141.49,-37.19 131.05,-38.95 134.43,-45.08"/>
</g>
<!-- 3 -->
<g id="node4" class="node">
<title>3</title>
<polygon fill="none" stroke="black" points="119.75,-180 51.25,-180 51.25,-144 119.75,-144 119.75,-180"/>
<text text-anchor="middle" x="85.5" y="-157.32" font-family="Times,serif" font-size="14.00">domain</text>
</g>
<!-- 3&#45;&gt;1 -->
<g id="edge3" class="edge">
<title>3&#45;&gt;1</title>
<path fill="none" stroke="black" d="M117.61,-143.7C131.27,-134.78 146.17,-122.66 155.5,-108 166.98,-89.96 171.63,-66.11 173.47,-47.65"/>
<polygon fill="black" stroke="black" points="176.94,-48.15 174.2,-37.91 169.96,-47.62 176.94,-48.15"/>
</g>
<!-- 4 -->
<g id="node5" class="node">
<title>4</title>
<polygon fill="none" stroke="black" points="146.5,-108 92.5,-108 92.5,-72 146.5,-72 146.5,-108"/>
<text text-anchor="middle" x="119.5" y="-85.33" font-family="Times,serif" font-size="14.00">owl</text>
</g>
<!-- 3&#45;&gt;4 -->
<g id="edge4" class="edge">
<title>3&#45;&gt;4</title>
<path fill="none" stroke="black" d="M93.91,-143.7C97.61,-136.07 102.06,-126.92 106.19,-118.4"/>
<polygon fill="black" stroke="black" points="109.31,-119.99 110.53,-109.47 103.01,-116.93 109.31,-119.99"/>
</g>
<!-- 4&#45;&gt;1 -->
<g id="edge5" class="edge">
<title>4&#45;&gt;1</title>
<path fill="none" stroke="black" d="M133.1,-71.7C139.42,-63.64 147.08,-53.89 154.09,-44.98"/>
<polygon fill="black" stroke="black" points="156.7,-47.32 160.13,-37.29 151.2,-43 156.7,-47.32"/>
</g>
<!-- 5 -->
<g id="node6" class="node">
<title>5</title>
<polygon fill="none" stroke="black" points="194.5,-324 140.5,-324 140.5,-288 194.5,-288 194.5,-324"/>
<text text-anchor="middle" x="167.5" y="-301.32" font-family="Times,serif" font-size="14.00">grid</text>
</g>
<!-- 5&#45;&gt;0 -->
<g id="edge6" class="edge">
<title>5&#45;&gt;0</title>
<path fill="none" stroke="black" d="M170.32,-287.59C174.2,-263.61 181.25,-220.14 185.9,-191.42"/>
<polygon fill="black" stroke="black" points="189.34,-192.04 187.49,-181.6 182.43,-190.92 189.34,-192.04"/>
</g>
<!-- 5&#45;&gt;3 -->
<g id="edge7" class="edge">
<title>5&#45;&gt;3</title>
<path fill="none" stroke="black" d="M157.45,-287.59C143.35,-263.18 117.6,-218.58 101.03,-189.89"/>
<polygon fill="black" stroke="black" points="104.17,-188.33 96.14,-181.42 98.11,-191.83 104.17,-188.33"/>
</g>
<!-- 6 -->
<g id="node7" class="node">
<title>6</title>
<polygon fill="none" stroke="black" points="103,-252 30,-252 30,-216 103,-216 103,-252"/>
<text text-anchor="middle" x="66.5" y="-229.32" font-family="Times,serif" font-size="14.00">site&#45;app</text>
</g>
<!-- 5&#45;&gt;6 -->
<g id="edge8" class="edge">
<title>5&#45;&gt;6</title>
<path fill="none" stroke="black" d="M142.27,-287.52C129.65,-278.76 114.18,-268.04 100.52,-258.58"/>
<polygon fill="black" stroke="black" points="102.86,-255.94 92.65,-253.12 98.87,-261.7 102.86,-255.94"/>
</g>
<!-- 7 -->
<g id="node8" class="node">
<title>7</title>
<polygon fill="none" stroke="black" points="383.25,-252 197.75,-252 197.75,-216 383.25,-216 383.25,-252"/>
<text text-anchor="middle" x="290.5" y="-229.32" font-family="Times,serif" font-size="14.00">tower&#45;sessions&#45;db&#45;store</text>
</g>
<!-- 5&#45;&gt;7 -->
<g id="edge9" class="edge">
<title>5&#45;&gt;7</title>
<path fill="none" stroke="black" d="M194.8,-289.46C210.97,-280.26 231.76,-268.43 249.83,-258.15"/>
<polygon fill="black" stroke="black" points="251.54,-261.2 258.5,-253.21 248.08,-255.11 251.54,-261.2"/>
</g>
<!-- 6&#45;&gt;0 -->
<g id="edge10" class="edge">
<title>6&#45;&gt;0</title>
<path fill="none" stroke="black" stroke-dasharray="1,5" d="M97.47,-215.52C113.42,-206.51 133.06,-195.42 150.18,-185.76"/>
<polygon fill="black" stroke="black" points="151.62,-188.97 158.61,-181 148.18,-182.87 151.62,-188.97"/>
</g>
<!-- 6&#45;&gt;1 -->
<g id="edge12" class="edge">
<title>6&#45;&gt;1</title>
<path fill="none" stroke="black" d="M51.25,-215.96C25.28,-184.8 -21.66,-117.65 11.5,-72 38.21,-35.24 91.05,-23.47 129.34,-19.97"/>
<polygon fill="black" stroke="black" points="129.49,-23.46 139.21,-19.24 128.98,-16.48 129.49,-23.46"/>
</g>
<!-- 6&#45;&gt;3 -->
<g id="edge11" class="edge">
<title>6&#45;&gt;3</title>
<path fill="none" stroke="black" stroke-dasharray="1,5" d="M71.2,-215.7C73.22,-208.24 75.64,-199.32 77.91,-190.97"/>
<polygon fill="black" stroke="black" points="81.22,-192.13 80.46,-181.57 74.46,-190.3 81.22,-192.13"/>
</g>
<!-- 7&#45;&gt;1 -->
<g id="edge13" class="edge">
<title>7&#45;&gt;1</title>
<path fill="none" stroke="black" d="M283.98,-215.57C276.96,-197.36 265.09,-168.13 252.5,-144 234.2,-108.92 209.54,-70.59 192.88,-45.75"/>
<polygon fill="black" stroke="black" points="195.84,-43.88 187.34,-37.55 190.04,-47.8 195.84,-43.88"/>
</g>
<!-- 8 -->
<g id="node9" class="node">
<title>8</title>
<polygon fill="none" stroke="black" points="367.38,-108 299.63,-108 299.63,-72 367.38,-72 367.38,-108"/>
<text text-anchor="middle" x="333.5" y="-85.33" font-family="Times,serif" font-size="14.00">junk&#45;cli</text>
</g>
<!-- 8&#45;&gt;1 -->
<g id="edge14" class="edge">
<title>8&#45;&gt;1</title>
<path fill="none" stroke="black" d="M299.39,-73.98C275.84,-63.61 244.29,-49.72 218.8,-38.5"/>
<polygon fill="black" stroke="black" points="220.23,-35.31 209.67,-34.48 217.41,-41.71 220.23,-35.31"/>
</g>
<!-- 9 -->
<g id="node10" class="node">
<title>9</title>
<polygon fill="none" stroke="black" points="120.63,-324 12.38,-324 12.38,-288 120.63,-288 120.63,-324"/>
<text text-anchor="middle" x="66.5" y="-301.32" font-family="Times,serif" font-size="14.00">site&#45;frontend</text>
</g>
<!-- 9&#45;&gt;6 -->
<g id="edge15" class="edge">
<title>9&#45;&gt;6</title>
<path fill="none" stroke="black" d="M66.5,-287.7C66.5,-280.41 66.5,-271.73 66.5,-263.54"/>
<polygon fill="black" stroke="black" points="70,-263.62 66.5,-253.62 63,-263.62 70,-263.62"/>
</g>
</g>
</svg>
