<?xml version="1.0" encoding="UTF-8" standalone="no"?>
<!DOCTYPE svg PUBLIC "-//W3C//DTD SVG 1.1//EN"
 "http://www.w3.org/Graphics/SVG/1.1/DTD/svg11.dtd">
<!-- Generated by graphviz version 12.2.1 (0)
 -->
<!-- Pages: 1 -->
<svg width="499pt" height="260pt"
 viewBox="0.00 0.00 499.38 260.00" xmlns="http://www.w3.org/2000/svg" xmlns:xlink="http://www.w3.org/1999/xlink">
<g id="graph0" class="graph" transform="scale(1 1) rotate(0) translate(4 256)">
<polygon fill="white" stroke="none" points="-4,4 -4,-256 495.38,-256 495.38,4 -4,4"/>
<!-- 0 -->
<g id="node1" class="node">
<title>0</title>
<polygon fill="none" stroke="black" points="105.25,-108 0,-108 0,-72 105.25,-72 105.25,-108"/>
<text text-anchor="middle" x="52.62" y="-85.33" font-family="Times,serif" font-size="14.00">auth&#45;domain</text>
</g>
<!-- 1 -->
<g id="node2" class="node">
<title>1</title>
<polygon fill="none" stroke="black" points="239.12,-36 172.12,-36 172.12,0 239.12,0 239.12,-36"/>
<text text-anchor="middle" x="205.62" y="-13.32" font-family="Times,serif" font-size="14.00">models</text>
</g>
<!-- 0&#45;&gt;1 -->
<g id="edge1" class="edge">
<title>0&#45;&gt;1</title>
<path fill="none" stroke="black" d="M90.84,-71.52C112.31,-61.69 139.2,-49.39 161.56,-39.16"/>
<polygon fill="black" stroke="black" points="162.79,-42.45 170.42,-35.1 159.87,-36.08 162.79,-42.45"/>
</g>
<!-- 2 -->
<g id="node3" class="node">
<title>2</title>
<polygon fill="none" stroke="black" points="177.62,-108 123.62,-108 123.62,-72 177.62,-72 177.62,-108"/>
<text text-anchor="middle" x="150.62" y="-85.33" font-family="Times,serif" font-size="14.00">cli</text>
</g>
<!-- 2&#45;&gt;1 -->
<g id="edge2" class="edge">
<title>2&#45;&gt;1</title>
<path fill="none" stroke="black" d="M164.22,-71.7C170.55,-63.64 178.21,-53.89 185.21,-44.98"/>
<polygon fill="black" stroke="black" points="187.82,-47.32 191.25,-37.29 182.32,-43 187.82,-47.32"/>
</g>
<!-- 3 -->
<g id="node4" class="node">
<title>3</title>
<polygon fill="none" stroke="black" points="259.62,-252 205.62,-252 205.62,-216 259.62,-216 259.62,-252"/>
<text text-anchor="middle" x="232.62" y="-229.32" font-family="Times,serif" font-size="14.00">grid</text>
</g>
<!-- 4 -->
<g id="node5" class="node">
<title>4</title>
<polygon fill="none" stroke="black" points="290.12,-180 175.12,-180 175.12,-144 290.12,-144 290.12,-180"/>
<text text-anchor="middle" x="232.62" y="-157.32" font-family="Times,serif" font-size="14.00">prime&#45;domain</text>
</g>
<!-- 3&#45;&gt;4 -->
<g id="edge3" class="edge">
<title>3&#45;&gt;4</title>
<path fill="none" stroke="black" d="M232.62,-215.7C232.62,-208.41 232.62,-199.73 232.62,-191.54"/>
<polygon fill="black" stroke="black" points="236.13,-191.62 232.63,-181.62 229.13,-191.62 236.13,-191.62"/>
</g>
<!-- 4&#45;&gt;1 -->
<g id="edge4" class="edge">
<title>4&#45;&gt;1</title>
<path fill="none" stroke="black" d="M229.31,-143.59C224.76,-119.61 216.49,-76.14 211.03,-47.42"/>
<polygon fill="black" stroke="black" points="214.47,-46.77 209.16,-37.6 207.59,-48.08 214.47,-46.77"/>
</g>
<!-- 5 -->
<g id="node6" class="node">
<title>5</title>
<polygon fill="none" stroke="black" points="287.62,-108 233.62,-108 233.62,-72 287.62,-72 287.62,-108"/>
<text text-anchor="middle" x="260.62" y="-85.33" font-family="Times,serif" font-size="14.00">owl</text>
</g>
<!-- 4&#45;&gt;5 -->
<g id="edge5" class="edge">
<title>4&#45;&gt;5</title>
<path fill="none" stroke="black" d="M239.55,-143.7C242.56,-136.15 246.18,-127.12 249.55,-118.68"/>
<polygon fill="black" stroke="black" points="252.76,-120.09 253.22,-109.51 246.26,-117.49 252.76,-120.09"/>
</g>
<!-- 5&#45;&gt;1 -->
<g id="edge6" class="edge">
<title>5&#45;&gt;1</title>
<path fill="none" stroke="black" d="M247.03,-71.7C240.7,-63.64 233.04,-53.89 226.04,-44.98"/>
<polygon fill="black" stroke="black" points="228.93,-43 220,-37.29 223.43,-47.32 228.93,-43"/>
</g>
<!-- 6 -->
<g id="node7" class="node">
<title>6</title>
<polygon fill="none" stroke="black" points="491.38,-108 305.88,-108 305.88,-72 491.38,-72 491.38,-108"/>
<text text-anchor="middle" x="398.62" y="-85.33" font-family="Times,serif" font-size="14.00">tower&#45;sessions&#45;db&#45;store</text>
</g>
<!-- 6&#45;&gt;1 -->
<g id="edge7" class="edge">
<title>6&#45;&gt;1</title>
<path fill="none" stroke="black" d="M350.42,-71.52C319.69,-60.37 280.17,-46.04 250.17,-35.16"/>
<polygon fill="black" stroke="black" points="251.61,-31.95 241.01,-31.84 249.22,-38.54 251.61,-31.95"/>
</g>
</g>
</svg>
