<?xml version="1.0" encoding="UTF-8" standalone="no"?>
<!DOCTYPE svg PUBLIC "-//W3C//DTD SVG 1.1//EN"
 "http://www.w3.org/Graphics/SVG/1.1/DTD/svg11.dtd">
<!-- Generated by graphviz version 12.2.1 (0)
 -->
<!-- Pages: 1 -->
<svg width="525pt" height="260pt"
 viewBox="0.00 0.00 525.12 260.00" xmlns="http://www.w3.org/2000/svg" xmlns:xlink="http://www.w3.org/1999/xlink">
<g id="graph0" class="graph" transform="scale(1 1) rotate(0) translate(4 256)">
<polygon fill="white" stroke="none" points="-4,4 -4,-256 521.12,-256 521.12,4 -4,4"/>
<!-- 0 -->
<g id="node1" class="node">
<title>0</title>
<polygon fill="none" stroke="black" points="287.62,-108 182.38,-108 182.38,-72 287.62,-72 287.62,-108"/>
<text text-anchor="middle" x="235" y="-85.33" font-family="Times,serif" font-size="14.00">auth&#45;domain</text>
</g>
<!-- 1 -->
<g id="node2" class="node">
<title>1</title>
<polygon fill="none" stroke="black" points="227.5,-36 160.5,-36 160.5,0 227.5,0 227.5,-36"/>
<text text-anchor="middle" x="194" y="-13.32" font-family="Times,serif" font-size="14.00">models</text>
</g>
<!-- 0&#45;&gt;1 -->
<g id="edge1" class="edge">
<title>0&#45;&gt;1</title>
<path fill="none" stroke="black" d="M224.87,-71.7C220.3,-63.9 214.8,-54.51 209.71,-45.83"/>
<polygon fill="black" stroke="black" points="212.86,-44.27 204.78,-37.41 206.82,-47.81 212.86,-44.27"/>
</g>
<!-- 2 -->
<g id="node3" class="node">
<title>2</title>
<polygon fill="none" stroke="black" points="54,-108 0,-108 0,-72 54,-72 54,-108"/>
<text text-anchor="middle" x="27" y="-85.33" font-family="Times,serif" font-size="14.00">cli</text>
</g>
<!-- 2&#45;&gt;1 -->
<g id="edge2" class="edge">
<title>2&#45;&gt;1</title>
<path fill="none" stroke="black" d="M54.44,-75.84C57.32,-74.52 60.21,-73.22 63,-72 91.61,-59.47 124.16,-46.29 149.66,-36.21"/>
<polygon fill="black" stroke="black" points="150.69,-39.57 158.72,-32.65 148.13,-33.06 150.69,-39.57"/>
</g>
<!-- 3 -->
<g id="node4" class="node">
<title>3</title>
<polygon fill="none" stroke="black" points="283,-252 229,-252 229,-216 283,-216 283,-252"/>
<text text-anchor="middle" x="256" y="-229.32" font-family="Times,serif" font-size="14.00">grid</text>
</g>
<!-- 3&#45;&gt;0 -->
<g id="edge3" class="edge">
<title>3&#45;&gt;0</title>
<path fill="none" stroke="black" d="M237.4,-215.76C228.47,-206.2 218.71,-193.53 214,-180 207,-159.89 213.1,-136.41 220.5,-118.62"/>
<polygon fill="black" stroke="black" points="223.58,-120.29 224.54,-109.74 217.21,-117.39 223.58,-120.29"/>
</g>
<!-- 4 -->
<g id="node5" class="node">
<title>4</title>
<polygon fill="none" stroke="black" points="166.5,-180 51.5,-180 51.5,-144 166.5,-144 166.5,-180"/>
<text text-anchor="middle" x="109" y="-157.32" font-family="Times,serif" font-size="14.00">prime&#45;domain</text>
</g>
<!-- 3&#45;&gt;4 -->
<g id="edge4" class="edge">
<title>3&#45;&gt;4</title>
<path fill="none" stroke="black" d="M228.69,-220C208.3,-210.29 179.92,-196.77 155.92,-185.34"/>
<polygon fill="black" stroke="black" points="157.49,-182.21 146.95,-181.07 154.48,-188.53 157.49,-182.21"/>
</g>
<!-- 6 -->
<g id="node7" class="node">
<title>6</title>
<polygon fill="none" stroke="black" points="499.5,-180 426.5,-180 426.5,-144 499.5,-144 499.5,-180"/>
<text text-anchor="middle" x="463" y="-157.32" font-family="Times,serif" font-size="14.00">site&#45;app</text>
</g>
<!-- 3&#45;&gt;6 -->
<g id="edge5" class="edge">
<title>3&#45;&gt;6</title>
<path fill="none" stroke="black" d="M283.36,-224.46C313.58,-214.94 363.94,-198.82 415.54,-180.8"/>
<polygon fill="black" stroke="black" points="416.51,-184.17 424.78,-177.55 414.19,-177.56 416.51,-184.17"/>
</g>
<!-- 7 -->
<g id="node8" class="node">
<title>7</title>
<polygon fill="none" stroke="black" points="408.75,-180 223.25,-180 223.25,-144 408.75,-144 408.75,-180"/>
<text text-anchor="middle" x="316" y="-157.32" font-family="Times,serif" font-size="14.00">tower&#45;sessions&#45;db&#45;store</text>
</g>
<!-- 3&#45;&gt;7 -->
<g id="edge6" class="edge">
<title>3&#45;&gt;7</title>
<path fill="none" stroke="black" d="M270.83,-215.7C277.81,-207.56 286.27,-197.69 293.97,-188.7"/>
<polygon fill="black" stroke="black" points="296.5,-191.12 300.35,-181.25 291.19,-186.57 296.5,-191.12"/>
</g>
<!-- 4&#45;&gt;1 -->
<g id="edge7" class="edge">
<title>4&#45;&gt;1</title>
<path fill="none" stroke="black" d="M119.42,-143.59C134.03,-119.18 160.73,-74.58 177.9,-45.89"/>
<polygon fill="black" stroke="black" points="180.85,-47.79 182.98,-37.41 174.84,-44.19 180.85,-47.79"/>
</g>
<!-- 5 -->
<g id="node6" class="node">
<title>5</title>
<polygon fill="none" stroke="black" points="126,-108 72,-108 72,-72 126,-72 126,-108"/>
<text text-anchor="middle" x="99" y="-85.33" font-family="Times,serif" font-size="14.00">owl</text>
</g>
<!-- 4&#45;&gt;5 -->
<g id="edge8" class="edge">
<title>4&#45;&gt;5</title>
<path fill="none" stroke="black" d="M106.53,-143.7C105.47,-136.32 104.22,-127.52 103.04,-119.25"/>
<polygon fill="black" stroke="black" points="106.54,-119.01 101.66,-109.6 99.61,-120 106.54,-119.01"/>
</g>
<!-- 5&#45;&gt;1 -->
<g id="edge9" class="edge">
<title>5&#45;&gt;1</title>
<path fill="none" stroke="black" d="M122.48,-71.7C134.24,-63.03 148.67,-52.4 161.48,-42.96"/>
<polygon fill="black" stroke="black" points="163.26,-45.99 169.24,-37.24 159.11,-40.36 163.26,-45.99"/>
</g>
<!-- 6&#45;&gt;1 -->
<g id="edge10" class="edge">
<title>6&#45;&gt;1</title>
<path fill="none" stroke="black" d="M437.42,-143.53C409.16,-124.63 361.94,-94.21 319,-72 292.95,-58.52 262.68,-45.63 238.46,-35.93"/>
<polygon fill="black" stroke="black" points="239.79,-32.69 229.2,-32.26 237.21,-39.2 239.79,-32.69"/>
</g>
<!-- 7&#45;&gt;1 -->
<g id="edge11" class="edge">
<title>7&#45;&gt;1</title>
<path fill="none" stroke="black" d="M316.52,-143.81C316.23,-124.45 313.03,-92.96 297,-72 282.43,-52.96 259.1,-40.16 238.32,-31.91"/>
<polygon fill="black" stroke="black" points="239.76,-28.71 229.16,-28.53 237.33,-35.28 239.76,-28.71"/>
</g>
<!-- 8 -->
<g id="node9" class="node">
<title>8</title>
<polygon fill="none" stroke="black" points="517.12,-252 408.88,-252 408.88,-216 517.12,-216 517.12,-252"/>
<text text-anchor="middle" x="463" y="-229.32" font-family="Times,serif" font-size="14.00">site&#45;frontend</text>
</g>
<!-- 8&#45;&gt;6 -->
<g id="edge12" class="edge">
<title>8&#45;&gt;6</title>
<path fill="none" stroke="black" d="M463,-215.7C463,-208.41 463,-199.73 463,-191.54"/>
<polygon fill="black" stroke="black" points="466.5,-191.62 463,-181.62 459.5,-191.62 466.5,-191.62"/>
</g>
</g>
</svg>
