<?xml version="1.0" encoding="UTF-8" standalone="no"?>
<!DOCTYPE svg PUBLIC "-//W3C//DTD SVG 1.1//EN"
 "http://www.w3.org/Graphics/SVG/1.1/DTD/svg11.dtd">
<!-- Generated by graphviz version 12.2.1 (0)
 -->
<!-- Pages: 1 -->
<svg width="627pt" height="332pt"
 viewBox="0.00 0.00 626.61 332.00" xmlns="http://www.w3.org/2000/svg" xmlns:xlink="http://www.w3.org/1999/xlink">
<g id="graph0" class="graph" transform="scale(1 1) rotate(0) translate(4 328)">
<polygon fill="white" stroke="none" points="-4,4 -4,-328 622.61,-328 622.61,4 -4,4"/>
<!-- 0 -->
<g id="node1" class="node">
<title>0</title>
<polygon fill="none" stroke="black" points="424.36,-180 319.11,-180 319.11,-144 424.36,-144 424.36,-180"/>
<text text-anchor="middle" x="371.74" y="-157.32" font-family="Times,serif" font-size="14.00">auth&#45;domain</text>
</g>
<!-- 1 -->
<g id="node2" class="node">
<title>1</title>
<polygon fill="none" stroke="black" points="456.24,-108 347.24,-108 347.24,-72 456.24,-72 456.24,-108"/>
<text text-anchor="middle" x="401.74" y="-85.33" font-family="Times,serif" font-size="14.00">meta&#45;domain</text>
</g>
<!-- 0&#45;&gt;1 -->
<g id="edge1" class="edge">
<title>0&#45;&gt;1</title>
<path fill="none" stroke="black" d="M379.16,-143.7C382.39,-136.15 386.26,-127.12 389.88,-118.68"/>
<polygon fill="black" stroke="black" points="393.09,-120.07 393.81,-109.5 386.66,-117.31 393.09,-120.07"/>
</g>
<!-- 2 -->
<g id="node3" class="node">
<title>2</title>
<polygon fill="none" stroke="black" points="300.24,-36 233.24,-36 233.24,0 300.24,0 300.24,-36"/>
<text text-anchor="middle" x="266.74" y="-13.32" font-family="Times,serif" font-size="14.00">models</text>
</g>
<!-- 0&#45;&gt;2 -->
<g id="edge2" class="edge">
<title>0&#45;&gt;2</title>
<path fill="none" stroke="black" d="M423.88,-143.72C440.21,-135.57 456.38,-124.01 465.74,-108 473.81,-94.18 475.49,-84.69 465.74,-72 447.07,-47.7 364.17,-32.18 311.44,-24.58"/>
<polygon fill="black" stroke="black" points="312.24,-21.15 301.85,-23.24 311.27,-28.09 312.24,-21.15"/>
</g>
<!-- 3 -->
<g id="node4" class="node">
<title>3</title>
<polygon fill="none" stroke="black" points="328.74,-108 204.74,-108 204.74,-72 328.74,-72 328.74,-108"/>
<text text-anchor="middle" x="266.74" y="-85.33" font-family="Times,serif" font-size="14.00">mutate&#45;domain</text>
</g>
<!-- 0&#45;&gt;3 -->
<g id="edge3" class="edge">
<title>0&#45;&gt;3</title>
<path fill="none" stroke="black" d="M345.51,-143.52C332.39,-134.76 316.31,-124.04 302.1,-114.58"/>
<polygon fill="black" stroke="black" points="304.15,-111.73 293.89,-109.1 300.27,-117.56 304.15,-111.73"/>
</g>
<!-- 1&#45;&gt;2 -->
<g id="edge4" class="edge">
<title>1&#45;&gt;2</title>
<path fill="none" stroke="black" d="M368.02,-71.52C350.49,-62.43 328.87,-51.22 310.11,-41.49"/>
<polygon fill="black" stroke="black" points="311.86,-38.45 301.37,-36.96 308.64,-44.67 311.86,-38.45"/>
</g>
<!-- 3&#45;&gt;2 -->
<g id="edge5" class="edge">
<title>3&#45;&gt;2</title>
<path fill="none" stroke="black" d="M266.74,-71.7C266.74,-64.41 266.74,-55.73 266.74,-47.54"/>
<polygon fill="black" stroke="black" points="270.24,-47.62 266.74,-37.62 263.24,-47.62 270.24,-47.62"/>
</g>
<!-- 4 -->
<g id="node5" class="node">
<title>4</title>
<polygon fill="none" stroke="black" points="186.74,-108 132.74,-108 132.74,-72 186.74,-72 186.74,-108"/>
<text text-anchor="middle" x="159.74" y="-85.33" font-family="Times,serif" font-size="14.00">cli</text>
</g>
<!-- 4&#45;&gt;2 -->
<g id="edge6" class="edge">
<title>4&#45;&gt;2</title>
<path fill="none" stroke="black" d="M186.46,-71.52C199.97,-62.68 216.55,-51.84 231.12,-42.3"/>
<polygon fill="black" stroke="black" points="232.64,-45.49 239.09,-37.09 228.8,-39.63 232.64,-45.49"/>
</g>
<!-- 5 -->
<g id="node6" class="node">
<title>5</title>
<polygon fill="none" stroke="black" points="300.99,-180 232.49,-180 232.49,-144 300.99,-144 300.99,-180"/>
<text text-anchor="middle" x="266.74" y="-157.32" font-family="Times,serif" font-size="14.00">domain</text>
</g>
<!-- 5&#45;&gt;1 -->
<g id="edge7" class="edge">
<title>5&#45;&gt;1</title>
<path fill="none" stroke="black" d="M300.46,-143.52C317.99,-134.43 339.61,-123.22 358.37,-113.49"/>
<polygon fill="black" stroke="black" points="359.84,-116.67 367.11,-108.96 356.62,-110.45 359.84,-116.67"/>
</g>
<!-- 5&#45;&gt;2 -->
<g id="edge8" class="edge">
<title>5&#45;&gt;2</title>
<path fill="none" stroke="black" d="M232.02,-158.94C198.06,-154.86 148.01,-142.88 123.74,-108 114.6,-94.87 114.6,-85.13 123.74,-72 145.65,-40.51 188.58,-27.68 221.71,-22.49"/>
<polygon fill="black" stroke="black" points="222.03,-25.98 231.47,-21.15 221.09,-19.04 222.03,-25.98"/>
</g>
<!-- 5&#45;&gt;3 -->
<g id="edge9" class="edge">
<title>5&#45;&gt;3</title>
<path fill="none" stroke="black" d="M266.74,-143.7C266.74,-136.41 266.74,-127.73 266.74,-119.54"/>
<polygon fill="black" stroke="black" points="270.24,-119.62 266.74,-109.62 263.24,-119.62 270.24,-119.62"/>
</g>
<!-- 6 -->
<g id="node7" class="node">
<title>6</title>
<polygon fill="none" stroke="black" points="76.74,-108 22.74,-108 22.74,-72 76.74,-72 76.74,-108"/>
<text text-anchor="middle" x="49.74" y="-85.33" font-family="Times,serif" font-size="14.00">owl</text>
</g>
<!-- 5&#45;&gt;6 -->
<g id="edge10" class="edge">
<title>5&#45;&gt;6</title>
<path fill="none" stroke="black" d="M232.01,-151.65C196.26,-141.78 139.13,-125.27 90.74,-108 89.61,-107.6 88.48,-107.18 87.33,-106.76"/>
<polygon fill="black" stroke="black" points="88.94,-103.63 78.35,-103.27 86.41,-110.15 88.94,-103.63"/>
</g>
<!-- 6&#45;&gt;2 -->
<g id="edge11" class="edge">
<title>6&#45;&gt;2</title>
<path fill="none" stroke="black" d="M76.94,-77.27C81.52,-75.43 86.24,-73.61 90.74,-72 134.81,-56.27 186.14,-41.17 221.95,-31.14"/>
<polygon fill="black" stroke="black" points="222.85,-34.53 231.54,-28.48 220.97,-27.78 222.85,-34.53"/>
</g>
<!-- 7 -->
<g id="node8" class="node">
<title>7</title>
<polygon fill="none" stroke="black" points="395.74,-324 341.74,-324 341.74,-288 395.74,-288 395.74,-324"/>
<text text-anchor="middle" x="368.74" y="-301.32" font-family="Times,serif" font-size="14.00">grid</text>
</g>
<!-- 7&#45;&gt;0 -->
<g id="edge12" class="edge">
<title>7&#45;&gt;0</title>
<path fill="none" stroke="black" d="M369.11,-287.59C369.61,-263.61 370.53,-220.14 371.14,-191.42"/>
<polygon fill="black" stroke="black" points="374.63,-191.7 371.35,-181.62 367.64,-191.55 374.63,-191.7"/>
</g>
<!-- 7&#45;&gt;5 -->
<g id="edge13" class="edge">
<title>7&#45;&gt;5</title>
<path fill="none" stroke="black" d="M359.23,-287.7C348.88,-269.34 331.41,-239.76 313.74,-216 306.77,-206.63 298.5,-196.91 290.85,-188.4"/>
<polygon fill="black" stroke="black" points="293.55,-186.16 284.22,-181.14 288.38,-190.88 293.55,-186.16"/>
</g>
<!-- 8 -->
<g id="node9" class="node">
<title>8</title>
<polygon fill="none" stroke="black" points="304.24,-252 231.24,-252 231.24,-216 304.24,-216 304.24,-252"/>
<text text-anchor="middle" x="267.74" y="-229.32" font-family="Times,serif" font-size="14.00">site&#45;app</text>
</g>
<!-- 7&#45;&gt;8 -->
<g id="edge14" class="edge">
<title>7&#45;&gt;8</title>
<path fill="none" stroke="black" d="M343.51,-287.52C330.89,-278.76 315.42,-268.04 301.76,-258.58"/>
<polygon fill="black" stroke="black" points="304.1,-255.94 293.89,-253.12 300.11,-261.7 304.1,-255.94"/>
</g>
<!-- 9 -->
<g id="node10" class="node">
<title>9</title>
<polygon fill="none" stroke="black" points="599.49,-252 413.99,-252 413.99,-216 599.49,-216 599.49,-252"/>
<text text-anchor="middle" x="506.74" y="-229.32" font-family="Times,serif" font-size="14.00">tower&#45;sessions&#45;db&#45;store</text>
</g>
<!-- 7&#45;&gt;9 -->
<g id="edge15" class="edge">
<title>7&#45;&gt;9</title>
<path fill="none" stroke="black" d="M396,-291.17C414.92,-281.57 440.55,-268.58 462.38,-257.5"/>
<polygon fill="black" stroke="black" points="463.74,-260.73 471.08,-253.09 460.58,-254.49 463.74,-260.73"/>
</g>
<!-- 8&#45;&gt;0 -->
<g id="edge16" class="edge">
<title>8&#45;&gt;0</title>
<path fill="none" stroke="black" stroke-dasharray="1,5" d="M293.71,-215.52C306.72,-206.76 322.65,-196.04 336.71,-186.58"/>
<polygon fill="black" stroke="black" points="338.5,-189.59 344.84,-181.11 334.59,-183.79 338.5,-189.59"/>
</g>
<!-- 8&#45;&gt;2 -->
<g id="edge18" class="edge">
<title>8&#45;&gt;2</title>
<path fill="none" stroke="black" d="M230.99,-225.73C145.79,-207.3 -53.08,-154.27 13.74,-72 39.43,-40.37 155.98,-26.95 221.56,-21.81"/>
<polygon fill="black" stroke="black" points="221.57,-25.32 231.28,-21.09 221.05,-18.34 221.57,-25.32"/>
</g>
<!-- 8&#45;&gt;5 -->
<g id="edge17" class="edge">
<title>8&#45;&gt;5</title>
<path fill="none" stroke="black" stroke-dasharray="1,5" d="M267.49,-215.7C267.39,-208.41 267.26,-199.73 267.15,-191.54"/>
<polygon fill="black" stroke="black" points="270.65,-191.57 267.01,-181.62 263.65,-191.67 270.65,-191.57"/>
</g>
<!-- 9&#45;&gt;2 -->
<g id="edge19" class="edge">
<title>9&#45;&gt;2</title>
<path fill="none" stroke="black" d="M509.81,-215.62C514.49,-182.98 519.38,-112.21 482.74,-72 460.05,-47.1 367.95,-31.52 311.6,-24.13"/>
<polygon fill="black" stroke="black" points="312.36,-20.7 301.99,-22.9 311.47,-27.64 312.36,-20.7"/>
</g>
<!-- 10 -->
<g id="node11" class="node">
<title>10</title>
<polygon fill="none" stroke="black" points="618.61,-108 550.86,-108 550.86,-72 618.61,-72 618.61,-108"/>
<text text-anchor="middle" x="584.74" y="-85.33" font-family="Times,serif" font-size="14.00">junk&#45;cli</text>
</g>
<!-- 10&#45;&gt;2 -->
<g id="edge20" class="edge">
<title>10&#45;&gt;2</title>
<path fill="none" stroke="black" d="M550.59,-76.22C545.96,-74.69 541.26,-73.24 536.74,-72 458.61,-50.62 365.53,-34.31 311.58,-25.74"/>
<polygon fill="black" stroke="black" points="312.27,-22.3 301.85,-24.21 311.19,-29.22 312.27,-22.3"/>
</g>
<!-- 11 -->
<g id="node12" class="node">
<title>11</title>
<polygon fill="none" stroke="black" points="321.86,-324 213.61,-324 213.61,-288 321.86,-288 321.86,-324"/>
<text text-anchor="middle" x="267.74" y="-301.32" font-family="Times,serif" font-size="14.00">site&#45;frontend</text>
</g>
<!-- 11&#45;&gt;8 -->
<g id="edge21" class="edge">
<title>11&#45;&gt;8</title>
<path fill="none" stroke="black" d="M267.74,-287.7C267.74,-280.41 267.74,-271.73 267.74,-263.54"/>
<polygon fill="black" stroke="black" points="271.24,-263.62 267.74,-253.62 264.24,-263.62 271.24,-263.62"/>
</g>
</g>
</svg>
