<?xml version="1.0" encoding="UTF-8" standalone="no"?>
<!DOCTYPE svg PUBLIC "-//W3C//DTD SVG 1.1//EN"
 "http://www.w3.org/Graphics/SVG/1.1/DTD/svg11.dtd">
<!-- Generated by graphviz version 12.2.0 (0)
 -->
<!-- Pages: 1 -->
<svg width="586pt" height="620pt"
 viewBox="0.00 0.00 585.75 620.00" xmlns="http://www.w3.org/2000/svg" xmlns:xlink="http://www.w3.org/1999/xlink">
<g id="graph0" class="graph" transform="scale(1 1) rotate(0) translate(4 616)">
<polygon fill="white" stroke="none" points="-4,4 -4,-616 581.75,-616 581.75,4 -4,4"/>
<!-- 0 -->
<g id="node1" class="node">
<title>0</title>
<polygon fill="none" stroke="black" points="264.25,-612 210.25,-612 210.25,-576 264.25,-576 264.25,-612"/>
<text text-anchor="middle" x="237.25" y="-589.33" font-family="Times,serif" font-size="14.00">api</text>
</g>
<!-- 1 -->
<g id="node2" class="node">
<title>1</title>
<polygon fill="none" stroke="black" points="251,-468 179.5,-468 179.5,-432 251,-432 251,-468"/>
<text text-anchor="middle" x="215.25" y="-445.32" font-family="Times,serif" font-size="14.00">mollusk</text>
</g>
<!-- 0&#45;&gt;1 -->
<g id="edge1" class="edge">
<title>0&#45;&gt;1</title>
<path fill="none" stroke="black" d="M234.55,-575.59C230.84,-551.61 224.1,-508.14 219.65,-479.42"/>
<polygon fill="black" stroke="black" points="223.12,-478.95 218.13,-469.61 216.21,-480.02 223.12,-478.95"/>
</g>
<!-- 6 -->
<g id="node7" class="node">
<title>6</title>
<polygon fill="none" stroke="black" points="383.75,-468 268.75,-468 268.75,-432 383.75,-432 383.75,-468"/>
<text text-anchor="middle" x="326.25" y="-445.32" font-family="Times,serif" font-size="14.00">prime&#45;domain</text>
</g>
<!-- 0&#45;&gt;6 -->
<g id="edge2" class="edge">
<title>0&#45;&gt;6</title>
<path fill="none" stroke="black" d="M248.16,-575.59C263.53,-551.08 291.66,-506.19 309.63,-477.52"/>
<polygon fill="black" stroke="black" points="312.38,-479.73 314.72,-469.39 306.45,-476.01 312.38,-479.73"/>
</g>
<!-- 15 -->
<g id="node16" class="node">
<title>15</title>
<polygon fill="none" stroke="black" points="211.25,-540 157.25,-540 157.25,-504 211.25,-504 211.25,-540"/>
<text text-anchor="middle" x="184.25" y="-517.33" font-family="Times,serif" font-size="14.00">tasks</text>
</g>
<!-- 0&#45;&gt;15 -->
<g id="edge3" class="edge">
<title>0&#45;&gt;15</title>
<path fill="none" stroke="black" d="M224.15,-575.7C218.12,-567.73 210.83,-558.1 204.14,-549.26"/>
<polygon fill="black" stroke="black" points="206.94,-547.17 198.11,-541.31 201.36,-551.4 206.94,-547.17"/>
</g>
<!-- 2 -->
<g id="node3" class="node">
<title>2</title>
<polygon fill="none" stroke="black" points="459.75,-252 392.75,-252 392.75,-216 459.75,-216 459.75,-252"/>
<text text-anchor="middle" x="426.25" y="-229.32" font-family="Times,serif" font-size="14.00">models</text>
</g>
<!-- 1&#45;&gt;2 -->
<g id="edge4" class="edge">
<title>1&#45;&gt;2</title>
<path fill="none" stroke="black" d="M251.19,-435.31C285.89,-421.87 334.18,-402.47 341.25,-396 381.63,-359.01 406.28,-298.35 418.01,-263"/>
<polygon fill="black" stroke="black" points="421.2,-264.5 420.9,-253.91 414.53,-262.38 421.2,-264.5"/>
</g>
<!-- 3 -->
<g id="node4" class="node">
<title>3</title>
<polygon fill="none" stroke="black" points="416.25,-108 362.25,-108 362.25,-72 416.25,-72 416.25,-108"/>
<text text-anchor="middle" x="389.25" y="-85.33" font-family="Times,serif" font-size="14.00">dvf</text>
</g>
<!-- 2&#45;&gt;3 -->
<g id="edge5" class="edge">
<title>2&#45;&gt;3</title>
<path fill="none" stroke="black" d="M440.19,-215.78C453.19,-197.49 468.96,-167.96 457.25,-144 450.56,-130.31 438.44,-119.13 426.27,-110.62"/>
<polygon fill="black" stroke="black" points="428.17,-107.68 417.87,-105.2 424.37,-113.56 428.17,-107.68"/>
</g>
<!-- 5 -->
<g id="node6" class="node">
<title>5</title>
<polygon fill="none" stroke="black" points="448,-180 388.5,-180 388.5,-144 448,-144 448,-180"/>
<text text-anchor="middle" x="418.25" y="-157.32" font-family="Times,serif" font-size="14.00">model</text>
</g>
<!-- 2&#45;&gt;5 -->
<g id="edge6" class="edge">
<title>2&#45;&gt;5</title>
<path fill="none" stroke="black" d="M424.27,-215.7C423.44,-208.41 422.45,-199.73 421.51,-191.54"/>
<polygon fill="black" stroke="black" points="424.99,-191.15 420.38,-181.61 418.03,-191.94 424.99,-191.15"/>
</g>
<!-- 4 -->
<g id="node5" class="node">
<title>4</title>
<polygon fill="none" stroke="black" points="304.25,-36 234.25,-36 234.25,0 304.25,0 304.25,-36"/>
<text text-anchor="middle" x="269.25" y="-13.32" font-family="Times,serif" font-size="14.00">slugger</text>
</g>
<!-- 3&#45;&gt;4 -->
<g id="edge7" class="edge">
<title>3&#45;&gt;4</title>
<path fill="none" stroke="black" d="M362.02,-73.12C346.3,-63.94 326.24,-52.25 308.81,-42.07"/>
<polygon fill="black" stroke="black" points="310.6,-39.07 300.2,-37.05 307.08,-45.12 310.6,-39.07"/>
</g>
<!-- 5&#45;&gt;3 -->
<g id="edge8" class="edge">
<title>5&#45;&gt;3</title>
<path fill="none" stroke="black" d="M411.08,-143.7C407.96,-136.15 404.21,-127.12 400.72,-118.68"/>
<polygon fill="black" stroke="black" points="403.98,-117.4 396.92,-109.5 397.51,-120.08 403.98,-117.4"/>
</g>
<!-- 6&#45;&gt;2 -->
<g id="edge10" class="edge">
<title>6&#45;&gt;2</title>
<path fill="none" stroke="black" d="M351.1,-431.65C362.74,-422.33 375.87,-409.9 384.25,-396 409.5,-354.14 419.72,-297.28 423.75,-263.53"/>
<polygon fill="black" stroke="black" points="427.21,-264.04 424.81,-253.72 420.25,-263.29 427.21,-264.04"/>
</g>
<!-- 7 -->
<g id="node8" class="node">
<title>7</title>
<polygon fill="none" stroke="black" points="150.25,-180 96.25,-180 96.25,-144 150.25,-144 150.25,-180"/>
<text text-anchor="middle" x="123.25" y="-157.32" font-family="Times,serif" font-size="14.00">hex</text>
</g>
<!-- 6&#45;&gt;7 -->
<g id="edge9" class="edge">
<title>6&#45;&gt;7</title>
<path fill="none" stroke="black" d="M268.54,-432.28C227.11,-419.8 177.37,-403.63 170.25,-396 117.31,-339.25 116.79,-240.14 120.24,-191.53"/>
<polygon fill="black" stroke="black" points="123.71,-192.08 121.05,-181.82 116.73,-191.5 123.71,-192.08"/>
</g>
<!-- 9 -->
<g id="node10" class="node">
<title>9</title>
<polygon fill="none" stroke="black" points="332.12,-396 276.38,-396 276.38,-360 332.12,-360 332.12,-396"/>
<text text-anchor="middle" x="304.25" y="-373.32" font-family="Times,serif" font-size="14.00">repos</text>
</g>
<!-- 6&#45;&gt;9 -->
<g id="edge11" class="edge">
<title>6&#45;&gt;9</title>
<path fill="none" stroke="black" d="M320.81,-431.7C318.47,-424.24 315.67,-415.32 313.04,-406.97"/>
<polygon fill="black" stroke="black" points="316.42,-406.04 310.08,-397.55 309.74,-408.14 316.42,-406.04"/>
</g>
<!-- 8 -->
<g id="node9" class="node">
<title>8</title>
<polygon fill="none" stroke="black" points="149.75,-108 88.75,-108 88.75,-72 149.75,-72 149.75,-108"/>
<text text-anchor="middle" x="119.25" y="-85.33" font-family="Times,serif" font-size="14.00">health</text>
</g>
<!-- 7&#45;&gt;8 -->
<g id="edge12" class="edge">
<title>7&#45;&gt;8</title>
<path fill="none" stroke="black" d="M122.26,-143.7C121.84,-136.41 121.35,-127.73 120.88,-119.54"/>
<polygon fill="black" stroke="black" points="124.38,-119.4 120.31,-109.62 117.39,-119.8 124.38,-119.4"/>
</g>
<!-- 9&#45;&gt;2 -->
<g id="edge15" class="edge">
<title>9&#45;&gt;2</title>
<path fill="none" stroke="black" d="M311.86,-359.63C320.72,-340.67 336.65,-310.09 356.25,-288 365.73,-277.31 377.66,-267.34 388.97,-259"/>
<polygon fill="black" stroke="black" points="390.9,-261.92 397.02,-253.27 386.84,-256.22 390.9,-261.92"/>
</g>
<!-- 9&#45;&gt;7 -->
<g id="edge14" class="edge">
<title>9&#45;&gt;7</title>
<path fill="none" stroke="black" d="M276.14,-363.57C245.53,-348.86 200.45,-326.96 197.25,-324 158.18,-287.88 138.13,-227.08 129.23,-191.44"/>
<polygon fill="black" stroke="black" points="132.67,-190.79 126.97,-181.86 125.86,-192.39 132.67,-190.79"/>
</g>
<!-- 10 -->
<g id="node11" class="node">
<title>10</title>
<polygon fill="none" stroke="black" points="260.25,-324 206.25,-324 206.25,-288 260.25,-288 260.25,-324"/>
<text text-anchor="middle" x="233.25" y="-301.32" font-family="Times,serif" font-size="14.00">db</text>
</g>
<!-- 9&#45;&gt;10 -->
<g id="edge13" class="edge">
<title>9&#45;&gt;10</title>
<path fill="none" stroke="black" d="M286.7,-359.7C278.27,-351.39 268.02,-341.28 258.75,-332.14"/>
<polygon fill="black" stroke="black" points="261.25,-329.7 251.68,-325.17 256.34,-334.68 261.25,-329.7"/>
</g>
<!-- 13 -->
<g id="node14" class="node">
<title>13</title>
<polygon fill="none" stroke="black" points="336.25,-252 266.25,-252 266.25,-216 336.25,-216 336.25,-252"/>
<text text-anchor="middle" x="301.25" y="-229.32" font-family="Times,serif" font-size="14.00">storage</text>
</g>
<!-- 9&#45;&gt;13 -->
<g id="edge16" class="edge">
<title>9&#45;&gt;13</title>
<path fill="none" stroke="black" d="M303.88,-359.59C303.38,-335.61 302.46,-292.14 301.85,-263.42"/>
<polygon fill="black" stroke="black" points="305.35,-263.55 301.64,-253.62 298.36,-263.7 305.35,-263.55"/>
</g>
<!-- 10&#45;&gt;2 -->
<g id="edge20" class="edge">
<title>10&#45;&gt;2</title>
<path fill="none" stroke="black" stroke-dasharray="1,5" d="M260.49,-295.12C291.99,-283.7 344.28,-264.73 381.71,-251.16"/>
<polygon fill="black" stroke="black" points="382.69,-254.52 390.9,-247.82 380.31,-247.94 382.69,-254.52"/>
</g>
<!-- 10&#45;&gt;5 -->
<g id="edge19" class="edge">
<title>10&#45;&gt;5</title>
<path fill="none" stroke="black" d="M260.45,-296C284.37,-287.23 319.31,-272.26 345.25,-252 367.65,-234.51 387.69,-208.99 401.08,-189.75"/>
<polygon fill="black" stroke="black" points="403.89,-191.84 406.6,-181.6 398.1,-187.91 403.89,-191.84"/>
</g>
<!-- 10&#45;&gt;7 -->
<g id="edge17" class="edge">
<title>10&#45;&gt;7</title>
<path fill="none" stroke="black" d="M216.67,-287.82C207.14,-277.68 195.14,-264.43 185.25,-252 169.2,-231.83 152.58,-207.78 140.6,-189.77"/>
<polygon fill="black" stroke="black" points="143.54,-187.88 135.12,-181.46 137.7,-191.73 143.54,-187.88"/>
</g>
<!-- 11 -->
<g id="node12" class="node">
<title>11</title>
<polygon fill="none" stroke="black" points="248.25,-252 194.25,-252 194.25,-216 248.25,-216 248.25,-252"/>
<text text-anchor="middle" x="221.25" y="-229.32" font-family="Times,serif" font-size="14.00">kv</text>
</g>
<!-- 10&#45;&gt;11 -->
<g id="edge18" class="edge">
<title>10&#45;&gt;11</title>
<path fill="none" stroke="black" d="M230.28,-287.7C229.02,-280.32 227.51,-271.52 226.09,-263.25"/>
<polygon fill="black" stroke="black" points="229.58,-262.86 224.44,-253.6 222.68,-264.04 229.58,-262.86"/>
</g>
<!-- 11&#45;&gt;4 -->
<g id="edge22" class="edge">
<title>11&#45;&gt;4</title>
<path fill="none" stroke="black" d="M211.05,-215.5C205.79,-205.47 199.94,-192.44 197.25,-180 193.87,-164.36 193.12,-159.46 197.25,-144 207.14,-107 230.91,-69.6 248.45,-45.48"/>
<polygon fill="black" stroke="black" points="251.21,-47.62 254.38,-37.51 245.6,-43.44 251.21,-47.62"/>
</g>
<!-- 11&#45;&gt;7 -->
<g id="edge21" class="edge">
<title>11&#45;&gt;7</title>
<path fill="none" stroke="black" d="M196.77,-215.52C184.64,-206.85 169.8,-196.25 156.64,-186.85"/>
<polygon fill="black" stroke="black" points="158.82,-184.1 148.65,-181.14 154.75,-189.8 158.82,-184.1"/>
</g>
<!-- 12 -->
<g id="node13" class="node">
<title>12</title>
<polygon fill="none" stroke="black" points="260.25,-180 206.25,-180 206.25,-144 260.25,-144 260.25,-180"/>
<text text-anchor="middle" x="233.25" y="-157.32" font-family="Times,serif" font-size="14.00">starc</text>
</g>
<!-- 11&#45;&gt;12 -->
<g id="edge23" class="edge">
<title>11&#45;&gt;12</title>
<path fill="none" stroke="black" d="M224.22,-215.7C225.48,-208.32 226.99,-199.52 228.41,-191.25"/>
<polygon fill="black" stroke="black" points="231.82,-192.04 230.06,-181.6 224.92,-190.86 231.82,-192.04"/>
</g>
<!-- 13&#45;&gt;3 -->
<g id="edge25" class="edge">
<title>13&#45;&gt;3</title>
<path fill="none" stroke="black" d="M315.27,-215.81C323.28,-205.67 333.28,-192.42 341.25,-180 354.11,-159.96 366.82,-136.18 375.92,-118.24"/>
<polygon fill="black" stroke="black" points="378.94,-120.03 380.29,-109.52 372.68,-116.89 378.94,-120.03"/>
</g>
<!-- 13&#45;&gt;7 -->
<g id="edge26" class="edge">
<title>13&#45;&gt;7</title>
<path fill="none" stroke="black" d="M266.08,-219.17C235.72,-207.23 191.97,-190.03 160.91,-177.81"/>
<polygon fill="black" stroke="black" points="162.48,-174.67 151.9,-174.27 159.92,-181.18 162.48,-174.67"/>
</g>
<!-- 14 -->
<g id="node15" class="node">
<title>14</title>
<polygon fill="none" stroke="black" points="332.25,-180 278.25,-180 278.25,-144 332.25,-144 332.25,-180"/>
<text text-anchor="middle" x="305.25" y="-157.32" font-family="Times,serif" font-size="14.00">belt</text>
</g>
<!-- 13&#45;&gt;14 -->
<g id="edge24" class="edge">
<title>13&#45;&gt;14</title>
<path fill="none" stroke="black" d="M302.24,-215.7C302.66,-208.41 303.15,-199.73 303.62,-191.54"/>
<polygon fill="black" stroke="black" points="307.11,-191.8 304.19,-181.62 300.12,-191.4 307.11,-191.8"/>
</g>
<!-- 15&#45;&gt;1 -->
<g id="edge27" class="edge">
<title>15&#45;&gt;1</title>
<path fill="none" stroke="black" d="M191.91,-503.7C195.29,-496.07 199.34,-486.92 203.12,-478.4"/>
<polygon fill="black" stroke="black" points="206.21,-480.05 207.06,-469.49 199.81,-477.21 206.21,-480.05"/>
</g>
<!-- 15&#45;&gt;6 -->
<g id="edge28" class="edge">
<title>15&#45;&gt;6</title>
<path fill="none" stroke="black" d="M211.63,-507.5C231.2,-497.86 257.99,-484.65 280.74,-473.43"/>
<polygon fill="black" stroke="black" points="282.1,-476.67 289.52,-469.11 279,-470.39 282.1,-476.67"/>
</g>
<!-- 16 -->
<g id="node17" class="node">
<title>16</title>
<polygon fill="none" stroke="black" points="156.25,-468 102.25,-468 102.25,-432 156.25,-432 156.25,-468"/>
<text text-anchor="middle" x="129.25" y="-445.32" font-family="Times,serif" font-size="14.00">rope</text>
</g>
<!-- 15&#45;&gt;16 -->
<g id="edge29" class="edge">
<title>15&#45;&gt;16</title>
<path fill="none" stroke="black" d="M170.65,-503.7C164.33,-495.64 156.67,-485.89 149.66,-476.98"/>
<polygon fill="black" stroke="black" points="152.55,-475 143.62,-469.29 147.05,-479.32 152.55,-475"/>
</g>
<!-- 17 -->
<g id="node18" class="node">
<title>17</title>
<polygon fill="none" stroke="black" points="62.5,-396 0,-396 0,-360 62.5,-360 62.5,-396"/>
<text text-anchor="middle" x="31.25" y="-373.32" font-family="Times,serif" font-size="14.00">names</text>
</g>
<!-- 16&#45;&gt;17 -->
<g id="edge30" class="edge">
<title>16&#45;&gt;17</title>
<path fill="none" stroke="black" d="M104.77,-431.52C92.64,-422.85 77.8,-412.25 64.64,-402.85"/>
<polygon fill="black" stroke="black" points="66.82,-400.1 56.65,-397.14 62.75,-405.8 66.82,-400.1"/>
</g>
<!-- 18 -->
<g id="node19" class="node">
<title>18</title>
<polygon fill="none" stroke="black" points="460.88,-540 385.62,-540 385.62,-504 460.88,-504 460.88,-540"/>
<text text-anchor="middle" x="423.25" y="-517.33" font-family="Times,serif" font-size="14.00">cart&#45;app</text>
</g>
<!-- 18&#45;&gt;2 -->
<g id="edge31" class="edge">
<title>18&#45;&gt;2</title>
<path fill="none" stroke="black" d="M424.57,-503.75C427.34,-465.11 433.29,-368.68 430.25,-288 429.95,-280.04 429.4,-271.42 428.8,-263.49"/>
<polygon fill="black" stroke="black" points="432.3,-263.36 428,-253.68 425.32,-263.93 432.3,-263.36"/>
</g>
<!-- 18&#45;&gt;6 -->
<g id="edge32" class="edge">
<title>18&#45;&gt;6</title>
<path fill="none" stroke="black" stroke-dasharray="1,5" d="M399.27,-503.7C387.26,-495.03 372.53,-484.4 359.46,-474.96"/>
<polygon fill="black" stroke="black" points="361.67,-472.25 351.52,-469.23 357.58,-477.92 361.67,-472.25"/>
</g>
<!-- 19 -->
<g id="node20" class="node">
<title>19</title>
<polygon fill="none" stroke="black" points="505.5,-612 395,-612 395,-576 505.5,-576 505.5,-612"/>
<text text-anchor="middle" x="450.25" y="-589.33" font-family="Times,serif" font-size="14.00">cart&#45;frontend</text>
</g>
<!-- 19&#45;&gt;18 -->
<g id="edge33" class="edge">
<title>19&#45;&gt;18</title>
<path fill="none" stroke="black" d="M443.58,-575.7C440.67,-568.15 437.18,-559.12 433.93,-550.68"/>
<polygon fill="black" stroke="black" points="437.26,-549.59 430.39,-541.52 430.73,-552.11 437.26,-549.59"/>
</g>
<!-- 20 -->
<g id="node21" class="node">
<title>20</title>
<polygon fill="none" stroke="black" points="376.62,-612 281.88,-612 281.88,-576 376.62,-576 376.62,-612"/>
<text text-anchor="middle" x="329.25" y="-589.33" font-family="Times,serif" font-size="14.00">cart&#45;server</text>
</g>
<!-- 20&#45;&gt;6 -->
<g id="edge35" class="edge">
<title>20&#45;&gt;6</title>
<path fill="none" stroke="black" d="M328.88,-575.59C328.38,-551.61 327.46,-508.14 326.85,-479.42"/>
<polygon fill="black" stroke="black" points="330.35,-479.55 326.64,-469.62 323.36,-479.7 330.35,-479.55"/>
</g>
<!-- 20&#45;&gt;18 -->
<g id="edge34" class="edge">
<title>20&#45;&gt;18</title>
<path fill="none" stroke="black" d="M352.49,-575.7C364.12,-567.03 378.4,-556.4 391.07,-546.96"/>
<polygon fill="black" stroke="black" points="392.81,-550.03 398.74,-541.25 388.63,-544.42 392.81,-550.03"/>
</g>
<!-- 21 -->
<g id="node22" class="node">
<title>21</title>
<polygon fill="none" stroke="black" points="577.25,-612 523.25,-612 523.25,-576 577.25,-576 577.25,-612"/>
<text text-anchor="middle" x="550.25" y="-589.33" font-family="Times,serif" font-size="14.00">cli</text>
</g>
<!-- 22 -->
<g id="node23" class="node">
<title>22</title>
<polygon fill="none" stroke="black" points="577.75,-540 522.75,-540 522.75,-504 577.75,-504 577.75,-540"/>
<text text-anchor="middle" x="550.25" y="-517.33" font-family="Times,serif" font-size="14.00">nasty</text>
</g>
<!-- 21&#45;&gt;22 -->
<g id="edge36" class="edge">
<title>21&#45;&gt;22</title>
<path fill="none" stroke="black" d="M550.25,-575.7C550.25,-568.41 550.25,-559.73 550.25,-551.54"/>
<polygon fill="black" stroke="black" points="553.75,-551.62 550.25,-541.62 546.75,-551.62 553.75,-551.62"/>
</g>
<!-- 23 -->
<g id="node24" class="node">
<title>23</title>
<polygon fill="none" stroke="black" points="183.38,-612 111.12,-612 111.12,-576 183.38,-576 183.38,-612"/>
<text text-anchor="middle" x="147.25" y="-589.33" font-family="Times,serif" font-size="14.00">daemon</text>
</g>
<!-- 23&#45;&gt;15 -->
<g id="edge38" class="edge">
<title>23&#45;&gt;15</title>
<path fill="none" stroke="black" d="M156.4,-575.7C160.47,-567.98 165.37,-558.71 169.92,-550.11"/>
<polygon fill="black" stroke="black" points="172.92,-551.92 174.5,-541.44 166.73,-548.65 172.92,-551.92"/>
</g>
<!-- 23&#45;&gt;16 -->
<g id="edge37" class="edge">
<title>23&#45;&gt;16</title>
<path fill="none" stroke="black" d="M145.04,-575.59C142,-551.61 136.49,-508.14 132.85,-479.42"/>
<polygon fill="black" stroke="black" points="136.34,-479.09 131.61,-469.61 129.39,-479.97 136.34,-479.09"/>
</g>
<!-- 24 -->
<g id="node25" class="node">
<title>24</title>
<polygon fill="none" stroke="black" points="258.75,-396 179.75,-396 179.75,-360 258.75,-360 258.75,-396"/>
<text text-anchor="middle" x="219.25" y="-373.32" font-family="Times,serif" font-size="14.00">migrator</text>
</g>
<!-- 24&#45;&gt;10 -->
<g id="edge39" class="edge">
<title>24&#45;&gt;10</title>
<path fill="none" stroke="black" d="M222.71,-359.7C224.19,-352.32 225.95,-343.52 227.6,-335.25"/>
<polygon fill="black" stroke="black" points="231,-336.08 229.53,-325.59 224.14,-334.71 231,-336.08"/>
</g>
</g>
</svg>
