<?xml version="1.0" encoding="UTF-8" standalone="no"?>
<!DOCTYPE svg PUBLIC "-//W3C//DTD SVG 1.1//EN"
 "http://www.w3.org/Graphics/SVG/1.1/DTD/svg11.dtd">
<!-- Generated by graphviz version 12.2.1 (0)
 -->
<!-- Pages: 1 -->
<svg width="421pt" height="332pt"
 viewBox="0.00 0.00 420.75 332.00" xmlns="http://www.w3.org/2000/svg" xmlns:xlink="http://www.w3.org/1999/xlink">
<g id="graph0" class="graph" transform="scale(1 1) rotate(0) translate(4 328)">
<polygon fill="white" stroke="none" points="-4,4 -4,-328 416.75,-328 416.75,4 -4,4"/>
<!-- 0 -->
<g id="node1" class="node">
<title>0</title>
<polygon fill="none" stroke="black" points="105.25,-180 0,-180 0,-144 105.25,-144 105.25,-180"/>
<text text-anchor="middle" x="52.62" y="-157.32" font-family="Times,serif" font-size="14.00">auth&#45;domain</text>
</g>
<!-- 1 -->
<g id="node2" class="node">
<title>1</title>
<polygon fill="none" stroke="black" points="223.12,-36 156.12,-36 156.12,0 223.12,0 223.12,-36"/>
<text text-anchor="middle" x="189.62" y="-13.32" font-family="Times,serif" font-size="14.00">models</text>
</g>
<!-- 0&#45;&gt;1 -->
<g id="edge1" class="edge">
<title>0&#45;&gt;1</title>
<path fill="none" stroke="black" d="M51.91,-143.65C52.01,-124.15 55.04,-92.52 71.62,-72 89.88,-49.4 119.82,-36.11 144.97,-28.49"/>
<polygon fill="black" stroke="black" points="145.62,-31.94 154.31,-25.87 143.73,-25.2 145.62,-31.94"/>
</g>
<!-- 2 -->
<g id="node3" class="node">
<title>2</title>
<polygon fill="none" stroke="black" points="134.62,-108 80.62,-108 80.62,-72 134.62,-72 134.62,-108"/>
<text text-anchor="middle" x="107.62" y="-85.33" font-family="Times,serif" font-size="14.00">cli</text>
</g>
<!-- 2&#45;&gt;1 -->
<g id="edge2" class="edge">
<title>2&#45;&gt;1</title>
<path fill="none" stroke="black" d="M127.89,-71.7C137.75,-63.28 149.78,-53.02 160.58,-43.79"/>
<polygon fill="black" stroke="black" points="162.82,-46.48 168.15,-37.33 158.28,-41.16 162.82,-46.48"/>
</g>
<!-- 3 -->
<g id="node4" class="node">
<title>3</title>
<polygon fill="none" stroke="black" points="178.62,-324 124.62,-324 124.62,-288 178.62,-288 178.62,-324"/>
<text text-anchor="middle" x="151.62" y="-301.32" font-family="Times,serif" font-size="14.00">grid</text>
</g>
<!-- 3&#45;&gt;0 -->
<g id="edge3" class="edge">
<title>3&#45;&gt;0</title>
<path fill="none" stroke="black" d="M132.86,-287.93C122.61,-278.04 110.11,-265 100.62,-252 86.5,-232.65 73.8,-208.64 65.01,-190.44"/>
<polygon fill="black" stroke="black" points="68.27,-189.13 60.84,-181.58 61.94,-192.12 68.27,-189.13"/>
</g>
<!-- 4 -->
<g id="node5" class="node">
<title>4</title>
<polygon fill="none" stroke="black" points="241.12,-180 126.12,-180 126.12,-144 241.12,-144 241.12,-180"/>
<text text-anchor="middle" x="183.62" y="-157.32" font-family="Times,serif" font-size="14.00">prime&#45;domain</text>
</g>
<!-- 3&#45;&gt;4 -->
<g id="edge4" class="edge">
<title>3&#45;&gt;4</title>
<path fill="none" stroke="black" d="M133.02,-287.76C124.09,-278.2 114.33,-265.53 109.62,-252 104.36,-236.89 102.31,-230.23 109.62,-216 115.66,-204.26 125.63,-194.54 136.33,-186.77"/>
<polygon fill="black" stroke="black" points="138.2,-189.73 144.58,-181.28 134.32,-183.9 138.2,-189.73"/>
</g>
<!-- 6 -->
<g id="node7" class="node">
<title>6</title>
<polygon fill="none" stroke="black" points="395.12,-252 322.12,-252 322.12,-216 395.12,-216 395.12,-252"/>
<text text-anchor="middle" x="358.62" y="-229.32" font-family="Times,serif" font-size="14.00">site&#45;app</text>
</g>
<!-- 3&#45;&gt;6 -->
<g id="edge5" class="edge">
<title>3&#45;&gt;6</title>
<path fill="none" stroke="black" d="M178.98,-296.46C209.21,-286.94 259.56,-270.82 311.16,-252.8"/>
<polygon fill="black" stroke="black" points="312.13,-256.17 320.41,-249.55 309.81,-249.56 312.13,-256.17"/>
</g>
<!-- 7 -->
<g id="node8" class="node">
<title>7</title>
<polygon fill="none" stroke="black" points="304.38,-252 118.88,-252 118.88,-216 304.38,-216 304.38,-252"/>
<text text-anchor="middle" x="211.62" y="-229.32" font-family="Times,serif" font-size="14.00">tower&#45;sessions&#45;db&#45;store</text>
</g>
<!-- 3&#45;&gt;7 -->
<g id="edge6" class="edge">
<title>3&#45;&gt;7</title>
<path fill="none" stroke="black" d="M166.46,-287.7C173.43,-279.56 181.89,-269.69 189.6,-260.7"/>
<polygon fill="black" stroke="black" points="192.13,-263.12 195.98,-253.25 186.81,-258.57 192.13,-263.12"/>
</g>
<!-- 4&#45;&gt;1 -->
<g id="edge7" class="edge">
<title>4&#45;&gt;1</title>
<path fill="none" stroke="black" d="M182.23,-143.58C181.03,-125.62 179.76,-96.81 181.62,-72 182.23,-63.99 183.33,-55.35 184.53,-47.43"/>
<polygon fill="black" stroke="black" points="187.98,-48.04 186.13,-37.61 181.07,-46.91 187.98,-48.04"/>
</g>
<!-- 5 -->
<g id="node6" class="node">
<title>5</title>
<polygon fill="none" stroke="black" points="244.62,-108 190.62,-108 190.62,-72 244.62,-72 244.62,-108"/>
<text text-anchor="middle" x="217.62" y="-85.33" font-family="Times,serif" font-size="14.00">owl</text>
</g>
<!-- 4&#45;&gt;5 -->
<g id="edge8" class="edge">
<title>4&#45;&gt;5</title>
<path fill="none" stroke="black" d="M192.03,-143.7C195.74,-136.07 200.18,-126.92 204.32,-118.4"/>
<polygon fill="black" stroke="black" points="207.44,-119.99 208.66,-109.47 201.14,-116.93 207.44,-119.99"/>
</g>
<!-- 5&#45;&gt;1 -->
<g id="edge9" class="edge">
<title>5&#45;&gt;1</title>
<path fill="none" stroke="black" d="M210.7,-71.7C207.69,-64.15 204.07,-55.12 200.7,-46.68"/>
<polygon fill="black" stroke="black" points="203.99,-45.49 197.03,-37.51 197.49,-48.09 203.99,-45.49"/>
</g>
<!-- 6&#45;&gt;1 -->
<g id="edge10" class="edge">
<title>6&#45;&gt;1</title>
<path fill="none" stroke="black" d="M352.9,-215.7C341.77,-184.12 314.64,-116.3 273.62,-72 262.11,-59.56 247.05,-48.86 232.87,-40.39"/>
<polygon fill="black" stroke="black" points="234.98,-37.57 224.56,-35.65 231.5,-43.65 234.98,-37.57"/>
</g>
<!-- 6&#45;&gt;4 -->
<g id="edge11" class="edge">
<title>6&#45;&gt;4</title>
<path fill="none" stroke="black" stroke-dasharray="1,5" d="M321.94,-218.33C297.52,-208.56 265.02,-195.56 237.66,-184.61"/>
<polygon fill="black" stroke="black" points="239.05,-181.4 228.47,-180.94 236.45,-187.9 239.05,-181.4"/>
</g>
<!-- 7&#45;&gt;1 -->
<g id="edge12" class="edge">
<title>7&#45;&gt;1</title>
<path fill="none" stroke="black" d="M228.29,-215.92C236.63,-206.22 245.93,-193.36 250.62,-180 266.55,-134.7 274.06,-115.45 253.62,-72 248.31,-60.71 239.28,-50.99 229.65,-43.08"/>
<polygon fill="black" stroke="black" points="232.02,-40.48 221.94,-37.24 227.8,-46.07 232.02,-40.48"/>
</g>
<!-- 8 -->
<g id="node9" class="node">
<title>8</title>
<polygon fill="none" stroke="black" points="412.75,-324 304.5,-324 304.5,-288 412.75,-288 412.75,-324"/>
<text text-anchor="middle" x="358.62" y="-301.32" font-family="Times,serif" font-size="14.00">site&#45;frontend</text>
</g>
<!-- 8&#45;&gt;6 -->
<g id="edge13" class="edge">
<title>8&#45;&gt;6</title>
<path fill="none" stroke="black" d="M358.62,-287.7C358.62,-280.41 358.62,-271.73 358.62,-263.54"/>
<polygon fill="black" stroke="black" points="362.13,-263.62 358.63,-253.62 355.13,-263.62 362.13,-263.62"/>
</g>
</g>
</svg>
