<?xml version="1.0" encoding="UTF-8" standalone="no"?>
<!DOCTYPE svg PUBLIC "-//W3C//DTD SVG 1.1//EN"
 "http://www.w3.org/Graphics/SVG/1.1/DTD/svg11.dtd">
<!-- Generated by graphviz version 12.2.1 (0)
 -->
<!-- Pages: 1 -->
<svg width="585pt" height="260pt"
 viewBox="0.00 0.00 585.12 260.00" xmlns="http://www.w3.org/2000/svg" xmlns:xlink="http://www.w3.org/1999/xlink">
<g id="graph0" class="graph" transform="scale(1 1) rotate(0) translate(4 256)">
<polygon fill="white" stroke="none" points="-4,4 -4,-256 581.12,-256 581.12,4 -4,4"/>
<!-- 0 -->
<g id="node1" class="node">
<title>0</title>
<polygon fill="none" stroke="black" points="177.62,-108 72.38,-108 72.38,-72 177.62,-72 177.62,-108"/>
<text text-anchor="middle" x="125" y="-85.33" font-family="Times,serif" font-size="14.00">auth&#45;domain</text>
</g>
<!-- 1 -->
<g id="node2" class="node">
<title>1</title>
<polygon fill="none" stroke="black" points="239.5,-36 172.5,-36 172.5,0 239.5,0 239.5,-36"/>
<text text-anchor="middle" x="206" y="-13.32" font-family="Times,serif" font-size="14.00">models</text>
</g>
<!-- 0&#45;&gt;1 -->
<g id="edge1" class="edge">
<title>0&#45;&gt;1</title>
<path fill="none" stroke="black" d="M145.02,-71.7C154.76,-63.28 166.64,-53.02 177.31,-43.79"/>
<polygon fill="black" stroke="black" points="179.5,-46.52 184.78,-37.34 174.93,-41.23 179.5,-46.52"/>
</g>
<!-- 2 -->
<g id="node3" class="node">
<title>2</title>
<polygon fill="none" stroke="black" points="54,-108 0,-108 0,-72 54,-72 54,-108"/>
<text text-anchor="middle" x="27" y="-85.33" font-family="Times,serif" font-size="14.00">cli</text>
</g>
<!-- 2&#45;&gt;1 -->
<g id="edge2" class="edge">
<title>2&#45;&gt;1</title>
<path fill="none" stroke="black" d="M54.41,-75.76C57.29,-74.45 60.2,-73.18 63,-72 95.54,-58.32 132.96,-44.51 161.36,-34.43"/>
<polygon fill="black" stroke="black" points="162.47,-37.75 170.74,-31.12 160.14,-31.15 162.47,-37.75"/>
</g>
<!-- 3 -->
<g id="node4" class="node">
<title>3</title>
<polygon fill="none" stroke="black" points="319,-252 265,-252 265,-216 319,-216 319,-252"/>
<text text-anchor="middle" x="292" y="-229.32" font-family="Times,serif" font-size="14.00">grid</text>
</g>
<!-- 3&#45;&gt;0 -->
<g id="edge3" class="edge">
<title>3&#45;&gt;0</title>
<path fill="none" stroke="black" d="M264.5,-231.44C230.17,-227.93 172.17,-216.59 141,-180 126.9,-163.45 123.38,-138.77 123.11,-119.59"/>
<polygon fill="black" stroke="black" points="126.6,-119.78 123.28,-109.72 119.61,-119.65 126.6,-119.78"/>
</g>
<!-- 4 -->
<g id="node5" class="node">
<title>4</title>
<polygon fill="none" stroke="black" points="265.5,-180 150.5,-180 150.5,-144 265.5,-144 265.5,-180"/>
<text text-anchor="middle" x="208" y="-157.32" font-family="Times,serif" font-size="14.00">prime&#45;domain</text>
</g>
<!-- 3&#45;&gt;4 -->
<g id="edge4" class="edge">
<title>3&#45;&gt;4</title>
<path fill="none" stroke="black" d="M271.24,-215.7C261.04,-207.2 248.58,-196.81 237.42,-187.51"/>
<polygon fill="black" stroke="black" points="239.9,-185.03 229.98,-181.32 235.42,-190.41 239.9,-185.03"/>
</g>
<!-- 6 -->
<g id="node7" class="node">
<title>6</title>
<polygon fill="none" stroke="black" points="559.5,-180 486.5,-180 486.5,-144 559.5,-144 559.5,-180"/>
<text text-anchor="middle" x="523" y="-157.32" font-family="Times,serif" font-size="14.00">site&#45;app</text>
</g>
<!-- 3&#45;&gt;6 -->
<g id="edge5" class="edge">
<title>3&#45;&gt;6</title>
<path fill="none" stroke="black" d="M319.32,-225.98C353.71,-216.98 414.78,-200.46 475.35,-180.75"/>
<polygon fill="black" stroke="black" points="476.41,-184.09 484.81,-177.64 474.22,-177.44 476.41,-184.09"/>
</g>
<!-- 7 -->
<g id="node8" class="node">
<title>7</title>
<polygon fill="none" stroke="black" points="468.75,-180 283.25,-180 283.25,-144 468.75,-144 468.75,-180"/>
<text text-anchor="middle" x="376" y="-157.32" font-family="Times,serif" font-size="14.00">tower&#45;sessions&#45;db&#45;store</text>
</g>
<!-- 3&#45;&gt;7 -->
<g id="edge6" class="edge">
<title>3&#45;&gt;7</title>
<path fill="none" stroke="black" d="M312.76,-215.7C322.96,-207.2 335.42,-196.81 346.58,-187.51"/>
<polygon fill="black" stroke="black" points="348.58,-190.41 354.02,-181.32 344.1,-185.03 348.58,-190.41"/>
</g>
<!-- 4&#45;&gt;1 -->
<g id="edge7" class="edge">
<title>4&#45;&gt;1</title>
<path fill="none" stroke="black" d="M207.75,-143.59C207.42,-119.61 206.8,-76.14 206.4,-47.42"/>
<polygon fill="black" stroke="black" points="209.9,-47.57 206.26,-37.62 202.9,-47.67 209.9,-47.57"/>
</g>
<!-- 5 -->
<g id="node6" class="node">
<title>5</title>
<polygon fill="none" stroke="black" points="288,-108 234,-108 234,-72 288,-72 288,-108"/>
<text text-anchor="middle" x="261" y="-85.33" font-family="Times,serif" font-size="14.00">owl</text>
</g>
<!-- 4&#45;&gt;5 -->
<g id="edge8" class="edge">
<title>4&#45;&gt;5</title>
<path fill="none" stroke="black" d="M221.1,-143.7C227.13,-135.73 234.42,-126.1 241.11,-117.26"/>
<polygon fill="black" stroke="black" points="243.89,-119.4 247.14,-109.31 238.31,-115.17 243.89,-119.4"/>
</g>
<!-- 5&#45;&gt;1 -->
<g id="edge9" class="edge">
<title>5&#45;&gt;1</title>
<path fill="none" stroke="black" d="M247.4,-71.7C241.08,-63.64 233.42,-53.89 226.41,-44.98"/>
<polygon fill="black" stroke="black" points="229.3,-43 220.37,-37.29 223.8,-47.32 229.3,-43"/>
</g>
<!-- 7&#45;&gt;1 -->
<g id="edge10" class="edge">
<title>7&#45;&gt;1</title>
<path fill="none" stroke="black" d="M363.41,-143.79C348.87,-124.7 323.54,-93.73 297,-72 282.61,-60.22 265.29,-49.43 249.64,-40.71"/>
<polygon fill="black" stroke="black" points="251.43,-37.7 240.97,-36.01 248.09,-43.85 251.43,-37.7"/>
</g>
<!-- 8 -->
<g id="node9" class="node">
<title>8</title>
<polygon fill="none" stroke="black" points="577.12,-252 468.88,-252 468.88,-216 577.12,-216 577.12,-252"/>
<text text-anchor="middle" x="523" y="-229.32" font-family="Times,serif" font-size="14.00">site&#45;frontend</text>
</g>
<!-- 8&#45;&gt;6 -->
<g id="edge11" class="edge">
<title>8&#45;&gt;6</title>
<path fill="none" stroke="black" d="M523,-215.7C523,-208.41 523,-199.73 523,-191.54"/>
<polygon fill="black" stroke="black" points="526.5,-191.62 523,-181.62 519.5,-191.62 526.5,-191.62"/>
</g>
</g>
</svg>
