<?xml version="1.0" encoding="UTF-8" standalone="no"?>
<!DOCTYPE svg PUBLIC "-//W3C//DTD SVG 1.1//EN"
 "http://www.w3.org/Graphics/SVG/1.1/DTD/svg11.dtd">
<!-- Generated by graphviz version 12.2.1 (0)
 -->
<!-- Pages: 1 -->
<svg width="175pt" height="260pt"
 viewBox="0.00 0.00 174.50 260.00" xmlns="http://www.w3.org/2000/svg" xmlns:xlink="http://www.w3.org/1999/xlink">
<g id="graph0" class="graph" transform="scale(1 1) rotate(0) translate(4 256)">
<polygon fill="white" stroke="none" points="-4,4 -4,-256 170.5,-256 170.5,4 -4,4"/>
<!-- 0 -->
<g id="node1" class="node">
<title>0</title>
<polygon fill="none" stroke="black" points="54,-108 0,-108 0,-72 54,-72 54,-108"/>
<text text-anchor="middle" x="27" y="-85.33" font-family="Times,serif" font-size="14.00">cli</text>
</g>
<!-- 1 -->
<g id="node2" class="node">
<title>1</title>
<polygon fill="none" stroke="black" points="115.5,-36 48.5,-36 48.5,0 115.5,0 115.5,-36"/>
<text text-anchor="middle" x="82" y="-13.32" font-family="Times,serif" font-size="14.00">models</text>
</g>
<!-- 0&#45;&gt;1 -->
<g id="edge1" class="edge">
<title>0&#45;&gt;1</title>
<path fill="none" stroke="black" d="M40.6,-71.7C46.92,-63.64 54.58,-53.89 61.59,-44.98"/>
<polygon fill="black" stroke="black" points="64.2,-47.32 67.63,-37.29 58.7,-43 64.2,-47.32"/>
</g>
<!-- 2 -->
<g id="node3" class="node">
<title>2</title>
<polygon fill="none" stroke="black" points="136,-252 82,-252 82,-216 136,-216 136,-252"/>
<text text-anchor="middle" x="109" y="-229.32" font-family="Times,serif" font-size="14.00">grid</text>
</g>
<!-- 3 -->
<g id="node4" class="node">
<title>3</title>
<polygon fill="none" stroke="black" points="166.5,-180 51.5,-180 51.5,-144 166.5,-144 166.5,-180"/>
<text text-anchor="middle" x="109" y="-157.32" font-family="Times,serif" font-size="14.00">prime&#45;domain</text>
</g>
<!-- 2&#45;&gt;3 -->
<g id="edge2" class="edge">
<title>2&#45;&gt;3</title>
<path fill="none" stroke="black" d="M109,-215.7C109,-208.41 109,-199.73 109,-191.54"/>
<polygon fill="black" stroke="black" points="112.5,-191.62 109,-181.62 105.5,-191.62 112.5,-191.62"/>
</g>
<!-- 3&#45;&gt;1 -->
<g id="edge3" class="edge">
<title>3&#45;&gt;1</title>
<path fill="none" stroke="black" d="M105.69,-143.59C101.13,-119.61 92.87,-76.14 87.4,-47.42"/>
<polygon fill="black" stroke="black" points="90.84,-46.77 85.54,-37.6 83.97,-48.08 90.84,-46.77"/>
</g>
<!-- 4 -->
<g id="node5" class="node">
<title>4</title>
<polygon fill="none" stroke="black" points="164,-108 110,-108 110,-72 164,-72 164,-108"/>
<text text-anchor="middle" x="137" y="-85.33" font-family="Times,serif" font-size="14.00">owl</text>
</g>
<!-- 3&#45;&gt;4 -->
<g id="edge4" class="edge">
<title>3&#45;&gt;4</title>
<path fill="none" stroke="black" d="M115.92,-143.7C118.94,-136.15 122.55,-127.12 125.93,-118.68"/>
<polygon fill="black" stroke="black" points="129.13,-120.09 129.6,-109.51 122.63,-117.49 129.13,-120.09"/>
</g>
<!-- 4&#45;&gt;1 -->
<g id="edge5" class="edge">
<title>4&#45;&gt;1</title>
<path fill="none" stroke="black" d="M123.4,-71.7C117.08,-63.64 109.42,-53.89 102.41,-44.98"/>
<polygon fill="black" stroke="black" points="105.3,-43 96.37,-37.29 99.8,-47.32 105.3,-43"/>
</g>
</g>
</svg>
