<?xml version="1.0" encoding="UTF-8" standalone="no"?>
<!DOCTYPE svg PUBLIC "-//W3C//DTD SVG 1.1//EN"
 "http://www.w3.org/Graphics/SVG/1.1/DTD/svg11.dtd">
<!-- Generated by graphviz version 12.2.1 (0)
 -->
<!-- Pages: 1 -->
<svg width="890pt" height="404pt"
 viewBox="0.00 0.00 890.25 404.00" xmlns="http://www.w3.org/2000/svg" xmlns:xlink="http://www.w3.org/1999/xlink">
<g id="graph0" class="graph" transform="scale(1 1) rotate(0) translate(4 400)">
<polygon fill="white" stroke="none" points="-4,4 -4,-400 886.25,-400 886.25,4 -4,4"/>
<!-- 0 -->
<g id="node1" class="node">
<title>0</title>
<polygon fill="none" stroke="black" points="569,-252 463.75,-252 463.75,-216 569,-216 569,-252"/>
<text text-anchor="middle" x="516.38" y="-229.32" font-family="Times,serif" font-size="14.00">auth&#45;domain</text>
</g>
<!-- 1 -->
<g id="node2" class="node">
<title>1</title>
<polygon fill="none" stroke="black" points="450.38,-180 332.38,-180 332.38,-144 450.38,-144 450.38,-180"/>
<text text-anchor="middle" x="391.38" y="-157.32" font-family="Times,serif" font-size="14.00">billing&#45;domain</text>
</g>
<!-- 0&#45;&gt;1 -->
<g id="edge1" class="edge">
<title>0&#45;&gt;1</title>
<path fill="none" stroke="black" d="M485.15,-215.52C469.08,-206.51 449.27,-195.42 432.02,-185.76"/>
<polygon fill="black" stroke="black" points="433.95,-182.83 423.52,-181 430.53,-188.94 433.95,-182.83"/>
</g>
<!-- 2 -->
<g id="node3" class="node">
<title>2</title>
<polygon fill="none" stroke="black" points="424.88,-108 357.88,-108 357.88,-72 424.88,-72 424.88,-108"/>
<text text-anchor="middle" x="391.38" y="-85.33" font-family="Times,serif" font-size="14.00">models</text>
</g>
<!-- 0&#45;&gt;2 -->
<g id="edge3" class="edge">
<title>0&#45;&gt;2</title>
<path fill="none" stroke="black" d="M569.45,-229.08C647.01,-221.38 777.18,-199.89 729.38,-144 692.21,-100.56 519.84,-92.48 436.6,-91.15"/>
<polygon fill="black" stroke="black" points="436.79,-87.65 426.74,-91.02 436.7,-94.65 436.79,-87.65"/>
</g>
<!-- 4 -->
<g id="node5" class="node">
<title>4</title>
<polygon fill="none" stroke="black" points="577.88,-180 468.88,-180 468.88,-144 577.88,-144 577.88,-180"/>
<text text-anchor="middle" x="523.38" y="-157.32" font-family="Times,serif" font-size="14.00">meta&#45;domain</text>
</g>
<!-- 0&#45;&gt;4 -->
<g id="edge2" class="edge">
<title>0&#45;&gt;4</title>
<path fill="none" stroke="black" d="M518.11,-215.7C518.83,-208.41 519.7,-199.73 520.52,-191.54"/>
<polygon fill="black" stroke="black" points="524,-191.91 521.51,-181.61 517.04,-191.21 524,-191.91"/>
</g>
<!-- 5 -->
<g id="node6" class="node">
<title>5</title>
<polygon fill="none" stroke="black" points="720.38,-180 596.38,-180 596.38,-144 720.38,-144 720.38,-180"/>
<text text-anchor="middle" x="658.38" y="-157.32" font-family="Times,serif" font-size="14.00">mutate&#45;domain</text>
</g>
<!-- 0&#45;&gt;5 -->
<g id="edge4" class="edge">
<title>0&#45;&gt;5</title>
<path fill="none" stroke="black" d="M551.84,-215.52C570.45,-206.34 593.44,-195.01 613.3,-185.22"/>
<polygon fill="black" stroke="black" points="614.58,-188.49 622,-180.93 611.49,-182.21 614.58,-188.49"/>
</g>
<!-- 1&#45;&gt;2 -->
<g id="edge5" class="edge">
<title>1&#45;&gt;2</title>
<path fill="none" stroke="black" d="M391.38,-143.7C391.38,-136.41 391.38,-127.73 391.38,-119.54"/>
<polygon fill="black" stroke="black" points="394.88,-119.62 391.38,-109.62 387.88,-119.62 394.88,-119.62"/>
</g>
<!-- 3 -->
<g id="node4" class="node">
<title>3</title>
<polygon fill="none" stroke="black" points="442.88,-36 339.88,-36 339.88,0 442.88,0 442.88,-36"/>
<text text-anchor="middle" x="391.38" y="-13.32" font-family="Times,serif" font-size="14.00">model&#45;types</text>
</g>
<!-- 2&#45;&gt;3 -->
<g id="edge6" class="edge">
<title>2&#45;&gt;3</title>
<path fill="none" stroke="black" d="M391.38,-71.7C391.38,-64.41 391.38,-55.73 391.38,-47.54"/>
<polygon fill="black" stroke="black" points="394.88,-47.62 391.38,-37.62 387.88,-47.62 394.88,-47.62"/>
</g>
<!-- 4&#45;&gt;2 -->
<g id="edge7" class="edge">
<title>4&#45;&gt;2</title>
<path fill="none" stroke="black" d="M490.41,-143.52C473.35,-134.47 452.32,-123.32 434.04,-113.62"/>
<polygon fill="black" stroke="black" points="435.74,-110.56 425.26,-108.97 432.46,-116.75 435.74,-110.56"/>
</g>
<!-- 5&#45;&gt;2 -->
<g id="edge8" class="edge">
<title>5&#45;&gt;2</title>
<path fill="none" stroke="black" d="M596.11,-144.68C547.07,-131.82 479.88,-114.2 436.06,-102.71"/>
<polygon fill="black" stroke="black" points="437.2,-99.39 426.63,-100.24 435.42,-106.17 437.2,-99.39"/>
</g>
<!-- 6 -->
<g id="node7" class="node">
<title>6</title>
<polygon fill="none" stroke="black" points="314.38,-180 260.38,-180 260.38,-144 314.38,-144 314.38,-180"/>
<text text-anchor="middle" x="287.38" y="-157.32" font-family="Times,serif" font-size="14.00">cli</text>
</g>
<!-- 6&#45;&gt;2 -->
<g id="edge9" class="edge">
<title>6&#45;&gt;2</title>
<path fill="none" stroke="black" d="M313.35,-143.52C326.35,-134.76 342.28,-124.04 356.35,-114.58"/>
<polygon fill="black" stroke="black" points="358.13,-117.59 364.48,-109.11 354.22,-111.79 358.13,-117.59"/>
</g>
<!-- 7 -->
<g id="node8" class="node">
<title>7</title>
<polygon fill="none" stroke="black" points="438.62,-252 370.12,-252 370.12,-216 438.62,-216 438.62,-252"/>
<text text-anchor="middle" x="404.38" y="-229.32" font-family="Times,serif" font-size="14.00">domain</text>
</g>
<!-- 7&#45;&gt;1 -->
<g id="edge10" class="edge">
<title>7&#45;&gt;1</title>
<path fill="none" stroke="black" d="M401.16,-215.7C399.79,-208.32 398.16,-199.52 396.62,-191.25"/>
<polygon fill="black" stroke="black" points="400.1,-190.79 394.83,-181.59 393.21,-192.06 400.1,-190.79"/>
</g>
<!-- 7&#45;&gt;2 -->
<g id="edge12" class="edge">
<title>7&#45;&gt;2</title>
<path fill="none" stroke="black" d="M369.66,-231.94C333.38,-228.75 278.11,-217.56 251.38,-180 242.1,-166.97 242.28,-157.17 251.38,-144 272.65,-113.2 314.29,-100.28 346.66,-94.87"/>
<polygon fill="black" stroke="black" points="346.79,-98.39 356.17,-93.48 345.77,-91.47 346.79,-98.39"/>
</g>
<!-- 7&#45;&gt;4 -->
<g id="edge11" class="edge">
<title>7&#45;&gt;4</title>
<path fill="none" stroke="black" d="M434.1,-215.52C449.26,-206.6 467.9,-195.63 484.22,-186.03"/>
<polygon fill="black" stroke="black" points="485.88,-189.11 492.73,-181.03 482.33,-183.08 485.88,-189.11"/>
</g>
<!-- 7&#45;&gt;5 -->
<g id="edge13" class="edge">
<title>7&#45;&gt;5</title>
<path fill="none" stroke="black" d="M438.97,-220.87C444.11,-219.17 449.37,-217.5 454.38,-216 497.38,-203.12 546.01,-190.42 585.01,-180.67"/>
<polygon fill="black" stroke="black" points="585.67,-184.12 594.53,-178.31 583.98,-177.32 585.67,-184.12"/>
</g>
<!-- 8 -->
<g id="node9" class="node">
<title>8</title>
<polygon fill="none" stroke="black" points="204.38,-180 150.38,-180 150.38,-144 204.38,-144 204.38,-180"/>
<text text-anchor="middle" x="177.38" y="-157.32" font-family="Times,serif" font-size="14.00">owl</text>
</g>
<!-- 7&#45;&gt;8 -->
<g id="edge14" class="edge">
<title>7&#45;&gt;8</title>
<path fill="none" stroke="black" d="M369.72,-224.41C332.08,-214.78 270.37,-198.12 218.38,-180 217.25,-179.61 216.11,-179.2 214.96,-178.78"/>
<polygon fill="black" stroke="black" points="216.56,-175.65 205.97,-175.33 214.05,-182.18 216.56,-175.65"/>
</g>
<!-- 8&#45;&gt;2 -->
<g id="edge15" class="edge">
<title>8&#45;&gt;2</title>
<path fill="none" stroke="black" d="M204.58,-149.29C209.16,-147.45 213.88,-145.62 218.38,-144 261.45,-128.51 311.55,-113.48 346.71,-103.41"/>
<polygon fill="black" stroke="black" points="347.46,-106.83 356.12,-100.73 345.54,-100.1 347.46,-106.83"/>
</g>
<!-- 9 -->
<g id="node10" class="node">
<title>9</title>
<polygon fill="none" stroke="black" points="532.38,-396 478.38,-396 478.38,-360 532.38,-360 532.38,-396"/>
<text text-anchor="middle" x="505.38" y="-373.32" font-family="Times,serif" font-size="14.00">grid</text>
</g>
<!-- 9&#45;&gt;0 -->
<g id="edge16" class="edge">
<title>9&#45;&gt;0</title>
<path fill="none" stroke="black" d="M506.72,-359.59C508.58,-335.61 511.95,-292.14 514.17,-263.42"/>
<polygon fill="black" stroke="black" points="517.65,-263.86 514.93,-253.62 510.67,-263.32 517.65,-263.86"/>
</g>
<!-- 9&#45;&gt;7 -->
<g id="edge17" class="edge">
<title>9&#45;&gt;7</title>
<path fill="none" stroke="black" d="M495.82,-359.74C485.42,-341.41 467.92,-311.85 450.38,-288 443.52,-278.68 435.41,-268.97 427.93,-260.46"/>
<polygon fill="black" stroke="black" points="430.73,-258.33 421.45,-253.21 425.51,-262.99 430.73,-258.33"/>
</g>
<!-- 10 -->
<g id="node11" class="node">
<title>10</title>
<polygon fill="none" stroke="black" points="440.88,-324 367.88,-324 367.88,-288 440.88,-288 440.88,-324"/>
<text text-anchor="middle" x="404.38" y="-301.32" font-family="Times,serif" font-size="14.00">site&#45;app</text>
</g>
<!-- 9&#45;&gt;10 -->
<g id="edge18" class="edge">
<title>9&#45;&gt;10</title>
<path fill="none" stroke="black" d="M480.15,-359.52C467.52,-350.76 452.05,-340.04 438.39,-330.58"/>
<polygon fill="black" stroke="black" points="440.74,-327.94 430.52,-325.12 436.75,-333.7 440.74,-327.94"/>
</g>
<!-- 12 -->
<g id="node13" class="node">
<title>12</title>
<polygon fill="none" stroke="black" points="807.12,-324 621.62,-324 621.62,-288 807.12,-288 807.12,-324"/>
<text text-anchor="middle" x="714.38" y="-301.32" font-family="Times,serif" font-size="14.00">tower&#45;sessions&#45;db&#45;store</text>
</g>
<!-- 9&#45;&gt;12 -->
<g id="edge19" class="edge">
<title>9&#45;&gt;12</title>
<path fill="none" stroke="black" d="M532.7,-367.85C562.64,-357.82 611.67,-341.4 651.25,-328.14"/>
<polygon fill="black" stroke="black" points="652.34,-331.47 660.71,-324.98 650.11,-324.83 652.34,-331.47"/>
</g>
<!-- 10&#45;&gt;0 -->
<g id="edge20" class="edge">
<title>10&#45;&gt;0</title>
<path fill="none" stroke="black" stroke-dasharray="1,5" d="M432.35,-287.52C446.49,-278.68 463.84,-267.84 479.09,-258.3"/>
<polygon fill="black" stroke="black" points="480.85,-261.33 487.47,-253.06 477.14,-255.39 480.85,-261.33"/>
</g>
<!-- 10&#45;&gt;2 -->
<g id="edge22" class="edge">
<title>10&#45;&gt;2</title>
<path fill="none" stroke="black" d="M367.4,-298.21C279.94,-280.58 72.71,-228.75 141.38,-144 166.74,-112.7 281.92,-99.14 346.72,-93.9"/>
<polygon fill="black" stroke="black" points="346.61,-97.42 356.31,-93.16 346.07,-90.44 346.61,-97.42"/>
</g>
<!-- 10&#45;&gt;7 -->
<g id="edge21" class="edge">
<title>10&#45;&gt;7</title>
<path fill="none" stroke="black" stroke-dasharray="1,5" d="M404.38,-287.7C404.38,-280.41 404.38,-271.73 404.38,-263.54"/>
<polygon fill="black" stroke="black" points="407.88,-263.62 404.38,-253.62 400.88,-263.62 407.88,-263.62"/>
</g>
<!-- 11 -->
<g id="node12" class="node">
<title>11</title>
<polygon fill="none" stroke="black" points="94.75,-252 0,-252 0,-216 94.75,-216 94.75,-252"/>
<text text-anchor="middle" x="47.38" y="-229.32" font-family="Times,serif" font-size="14.00">site&#45;paddle</text>
</g>
<!-- 10&#45;&gt;11 -->
<g id="edge23" class="edge">
<title>10&#45;&gt;11</title>
<path fill="none" stroke="black" d="M367.69,-299.58C311.54,-291.02 201.01,-273.15 108.38,-252 107.71,-251.85 107.03,-251.69 106.36,-251.53"/>
<polygon fill="black" stroke="black" points="107.23,-248.14 96.69,-249.16 105.56,-254.94 107.23,-248.14"/>
</g>
<!-- 11&#45;&gt;2 -->
<g id="edge24" class="edge">
<title>11&#45;&gt;2</title>
<path fill="none" stroke="black" d="M54.37,-215.5C63.55,-194.93 81.7,-161.39 108.38,-144 147,-118.83 276.92,-102.41 346.5,-95.2"/>
<polygon fill="black" stroke="black" points="346.43,-98.73 356.02,-94.24 345.72,-91.77 346.43,-98.73"/>
</g>
<!-- 12&#45;&gt;2 -->
<g id="edge25" class="edge">
<title>12&#45;&gt;2</title>
<path fill="none" stroke="black" d="M726.4,-287.63C747.16,-255.33 784.2,-185.54 748.38,-144 708.61,-97.9 523.52,-91.25 436.64,-90.72"/>
<polygon fill="black" stroke="black" points="436.83,-87.22 426.82,-90.69 436.81,-94.22 436.83,-87.22"/>
</g>
<!-- 13 -->
<g id="node14" class="node">
<title>13</title>
<polygon fill="none" stroke="black" points="882.25,-180 814.5,-180 814.5,-144 882.25,-144 882.25,-180"/>
<text text-anchor="middle" x="848.38" y="-157.32" font-family="Times,serif" font-size="14.00">junk&#45;cli</text>
</g>
<!-- 13&#45;&gt;2 -->
<g id="edge26" class="edge">
<title>13&#45;&gt;2</title>
<path fill="none" stroke="black" d="M814.03,-147.86C809.48,-146.4 804.85,-145.07 800.38,-144 670.22,-112.89 512.1,-98.95 436.23,-93.7"/>
<polygon fill="black" stroke="black" points="436.93,-90.24 426.72,-93.06 436.46,-97.22 436.93,-90.24"/>
</g>
<!-- 14 -->
<g id="node15" class="node">
<title>14</title>
<polygon fill="none" stroke="black" points="458.5,-396 350.25,-396 350.25,-360 458.5,-360 458.5,-396"/>
<text text-anchor="middle" x="404.38" y="-373.32" font-family="Times,serif" font-size="14.00">site&#45;frontend</text>
</g>
<!-- 14&#45;&gt;10 -->
<g id="edge27" class="edge">
<title>14&#45;&gt;10</title>
<path fill="none" stroke="black" d="M404.38,-359.7C404.38,-352.41 404.38,-343.73 404.38,-335.54"/>
<polygon fill="black" stroke="black" points="407.88,-335.62 404.38,-325.62 400.88,-335.62 407.88,-335.62"/>
</g>
</g>
</svg>
