<?xml version="1.0" encoding="UTF-8" standalone="no"?>
<!DOCTYPE svg PUBLIC "-//W3C//DTD SVG 1.1//EN"
 "http://www.w3.org/Graphics/SVG/1.1/DTD/svg11.dtd">
<!-- Generated by graphviz version 12.2.0 (0)
 -->
<!-- Pages: 1 -->
<svg width="575pt" height="620pt"
 viewBox="0.00 0.00 574.75 620.00" xmlns="http://www.w3.org/2000/svg" xmlns:xlink="http://www.w3.org/1999/xlink">
<g id="graph0" class="graph" transform="scale(1 1) rotate(0) translate(4 616)">
<polygon fill="white" stroke="none" points="-4,4 -4,-616 570.75,-616 570.75,4 -4,4"/>
<!-- 0 -->
<g id="node1" class="node">
<title>0</title>
<polygon fill="none" stroke="black" points="161.25,-612 107.25,-612 107.25,-576 161.25,-576 161.25,-612"/>
<text text-anchor="middle" x="134.25" y="-589.33" font-family="Times,serif" font-size="14.00">api</text>
</g>
<!-- 1 -->
<g id="node2" class="node">
<title>1</title>
<polygon fill="none" stroke="black" points="183,-396 111.5,-396 111.5,-360 183,-360 183,-396"/>
<text text-anchor="middle" x="147.25" y="-373.32" font-family="Times,serif" font-size="14.00">mollusk</text>
</g>
<!-- 0&#45;&gt;1 -->
<g id="edge1" class="edge">
<title>0&#45;&gt;1</title>
<path fill="none" stroke="black" d="M135.29,-575.85C137.52,-539.14 142.78,-452.66 145.52,-407.53"/>
<polygon fill="black" stroke="black" points="149,-407.94 146.11,-397.74 142.01,-407.51 149,-407.94"/>
</g>
<!-- 6 -->
<g id="node7" class="node">
<title>6</title>
<polygon fill="none" stroke="black" points="279.75,-468 164.75,-468 164.75,-432 279.75,-432 279.75,-468"/>
<text text-anchor="middle" x="222.25" y="-445.32" font-family="Times,serif" font-size="14.00">prime&#45;domain</text>
</g>
<!-- 0&#45;&gt;6 -->
<g id="edge2" class="edge">
<title>0&#45;&gt;6</title>
<path fill="none" stroke="black" d="M145.04,-575.59C160.16,-551.18 187.8,-506.58 205.58,-477.89"/>
<polygon fill="black" stroke="black" points="208.56,-479.74 210.85,-469.4 202.61,-476.05 208.56,-479.74"/>
</g>
<!-- 15 -->
<g id="node16" class="node">
<title>15</title>
<polygon fill="none" stroke="black" points="108.25,-540 54.25,-540 54.25,-504 108.25,-504 108.25,-540"/>
<text text-anchor="middle" x="81.25" y="-517.33" font-family="Times,serif" font-size="14.00">tasks</text>
</g>
<!-- 0&#45;&gt;15 -->
<g id="edge3" class="edge">
<title>0&#45;&gt;15</title>
<path fill="none" stroke="black" d="M121.15,-575.7C115.12,-567.73 107.83,-558.1 101.14,-549.26"/>
<polygon fill="black" stroke="black" points="103.94,-547.17 95.11,-541.31 98.36,-551.4 103.94,-547.17"/>
</g>
<!-- 2 -->
<g id="node3" class="node">
<title>2</title>
<polygon fill="none" stroke="black" points="262.75,-252 195.75,-252 195.75,-216 262.75,-216 262.75,-252"/>
<text text-anchor="middle" x="229.25" y="-229.32" font-family="Times,serif" font-size="14.00">models</text>
</g>
<!-- 1&#45;&gt;2 -->
<g id="edge4" class="edge">
<title>1&#45;&gt;2</title>
<path fill="none" stroke="black" d="M157.3,-359.59C171.4,-335.18 197.15,-290.58 213.72,-261.89"/>
<polygon fill="black" stroke="black" points="216.64,-263.83 218.61,-253.42 210.58,-260.33 216.64,-263.83"/>
</g>
<!-- 3 -->
<g id="node4" class="node">
<title>3</title>
<polygon fill="none" stroke="black" points="293.25,-108 239.25,-108 239.25,-72 293.25,-72 293.25,-108"/>
<text text-anchor="middle" x="266.25" y="-85.33" font-family="Times,serif" font-size="14.00">dvf</text>
</g>
<!-- 2&#45;&gt;3 -->
<g id="edge5" class="edge">
<title>2&#45;&gt;3</title>
<path fill="none" stroke="black" d="M215.31,-215.78C202.31,-197.49 186.54,-167.96 198.25,-144 204.94,-130.31 217.06,-119.13 229.23,-110.62"/>
<polygon fill="black" stroke="black" points="231.13,-113.56 237.63,-105.2 227.33,-107.68 231.13,-113.56"/>
</g>
<!-- 5 -->
<g id="node6" class="node">
<title>5</title>
<polygon fill="none" stroke="black" points="267,-180 207.5,-180 207.5,-144 267,-144 267,-180"/>
<text text-anchor="middle" x="237.25" y="-157.32" font-family="Times,serif" font-size="14.00">model</text>
</g>
<!-- 2&#45;&gt;5 -->
<g id="edge6" class="edge">
<title>2&#45;&gt;5</title>
<path fill="none" stroke="black" d="M231.23,-215.7C232.06,-208.41 233.05,-199.73 233.99,-191.54"/>
<polygon fill="black" stroke="black" points="237.47,-191.94 235.12,-181.61 230.51,-191.15 237.47,-191.94"/>
</g>
<!-- 4 -->
<g id="node5" class="node">
<title>4</title>
<polygon fill="none" stroke="black" points="392.25,-36 322.25,-36 322.25,0 392.25,0 392.25,-36"/>
<text text-anchor="middle" x="357.25" y="-13.32" font-family="Times,serif" font-size="14.00">slugger</text>
</g>
<!-- 3&#45;&gt;4 -->
<g id="edge7" class="edge">
<title>3&#45;&gt;4</title>
<path fill="none" stroke="black" d="M288.74,-71.7C299.9,-63.11 313.56,-52.61 325.74,-43.24"/>
<polygon fill="black" stroke="black" points="327.71,-46.14 333.5,-37.27 323.44,-40.59 327.71,-46.14"/>
</g>
<!-- 5&#45;&gt;3 -->
<g id="edge8" class="edge">
<title>5&#45;&gt;3</title>
<path fill="none" stroke="black" d="M244.42,-143.7C247.54,-136.15 251.29,-127.12 254.78,-118.68"/>
<polygon fill="black" stroke="black" points="257.99,-120.08 258.58,-109.5 251.52,-117.4 257.99,-120.08"/>
</g>
<!-- 6&#45;&gt;1 -->
<g id="edge11" class="edge">
<title>6&#45;&gt;1</title>
<path fill="none" stroke="black" d="M203.71,-431.7C194.79,-423.37 183.92,-413.22 174.11,-404.07"/>
<polygon fill="black" stroke="black" points="176.64,-401.64 166.94,-397.38 171.86,-406.76 176.64,-401.64"/>
</g>
<!-- 6&#45;&gt;2 -->
<g id="edge10" class="edge">
<title>6&#45;&gt;2</title>
<path fill="none" stroke="black" d="M222.81,-431.85C224.01,-395.14 226.84,-308.66 228.32,-263.53"/>
<polygon fill="black" stroke="black" points="231.81,-263.85 228.64,-253.75 224.81,-263.63 231.81,-263.85"/>
</g>
<!-- 7 -->
<g id="node8" class="node">
<title>7</title>
<polygon fill="none" stroke="black" points="559.25,-180 505.25,-180 505.25,-144 559.25,-144 559.25,-180"/>
<text text-anchor="middle" x="532.25" y="-157.32" font-family="Times,serif" font-size="14.00">hex</text>
</g>
<!-- 6&#45;&gt;7 -->
<g id="edge9" class="edge">
<title>6&#45;&gt;7</title>
<path fill="none" stroke="black" d="M280.25,-445.62C353.2,-440.14 472.64,-426.64 503.25,-396 557.68,-341.52 547.57,-240.55 538.53,-191.38"/>
<polygon fill="black" stroke="black" points="542.01,-190.95 536.65,-181.82 535.14,-192.31 542.01,-190.95"/>
</g>
<!-- 9 -->
<g id="node10" class="node">
<title>9</title>
<polygon fill="none" stroke="black" points="397.12,-396 341.38,-396 341.38,-360 397.12,-360 397.12,-396"/>
<text text-anchor="middle" x="369.25" y="-373.32" font-family="Times,serif" font-size="14.00">repos</text>
</g>
<!-- 6&#45;&gt;9 -->
<g id="edge12" class="edge">
<title>6&#45;&gt;9</title>
<path fill="none" stroke="black" d="M258.97,-431.52C280.99,-421.03 308.95,-407.71 331.21,-397.12"/>
<polygon fill="black" stroke="black" points="332.42,-400.42 339.94,-392.96 329.41,-394.1 332.42,-400.42"/>
</g>
<!-- 8 -->
<g id="node9" class="node">
<title>8</title>
<polygon fill="none" stroke="black" points="566.75,-108 505.75,-108 505.75,-72 566.75,-72 566.75,-108"/>
<text text-anchor="middle" x="536.25" y="-85.33" font-family="Times,serif" font-size="14.00">health</text>
</g>
<!-- 7&#45;&gt;8 -->
<g id="edge13" class="edge">
<title>7&#45;&gt;8</title>
<path fill="none" stroke="black" d="M533.24,-143.7C533.66,-136.41 534.15,-127.73 534.62,-119.54"/>
<polygon fill="black" stroke="black" points="538.11,-119.8 535.19,-109.62 531.12,-119.4 538.11,-119.8"/>
</g>
<!-- 9&#45;&gt;2 -->
<g id="edge16" class="edge">
<title>9&#45;&gt;2</title>
<path fill="none" stroke="black" d="M362.22,-359.57C353.79,-340.29 338.12,-309.14 317.25,-288 304.51,-275.09 288,-264.07 272.73,-255.48"/>
<polygon fill="black" stroke="black" points="274.72,-252.57 264.25,-250.91 271.39,-258.73 274.72,-252.57"/>
</g>
<!-- 9&#45;&gt;7 -->
<g id="edge15" class="edge">
<title>9&#45;&gt;7</title>
<path fill="none" stroke="black" d="M397.43,-363.48C425.4,-349.87 464.88,-330.03 470.25,-324 504.37,-285.68 520.59,-226.56 527.59,-191.63"/>
<polygon fill="black" stroke="black" points="531.02,-192.31 529.41,-181.84 524.14,-191.03 531.02,-192.31"/>
</g>
<!-- 10 -->
<g id="node11" class="node">
<title>10</title>
<polygon fill="none" stroke="black" points="461.25,-324 407.25,-324 407.25,-288 461.25,-288 461.25,-324"/>
<text text-anchor="middle" x="434.25" y="-301.32" font-family="Times,serif" font-size="14.00">db</text>
</g>
<!-- 9&#45;&gt;10 -->
<g id="edge14" class="edge">
<title>9&#45;&gt;10</title>
<path fill="none" stroke="black" d="M385.32,-359.7C392.95,-351.47 402.23,-341.48 410.65,-332.42"/>
<polygon fill="black" stroke="black" points="413.1,-334.92 417.34,-325.21 407.97,-330.16 413.1,-334.92"/>
</g>
<!-- 13 -->
<g id="node14" class="node">
<title>13</title>
<polygon fill="none" stroke="black" points="389.25,-252 319.25,-252 319.25,-216 389.25,-216 389.25,-252"/>
<text text-anchor="middle" x="354.25" y="-229.32" font-family="Times,serif" font-size="14.00">storage</text>
</g>
<!-- 9&#45;&gt;13 -->
<g id="edge17" class="edge">
<title>9&#45;&gt;13</title>
<path fill="none" stroke="black" d="M367.41,-359.59C364.88,-335.61 360.29,-292.14 357.25,-263.42"/>
<polygon fill="black" stroke="black" points="360.75,-263.19 356.22,-253.62 353.79,-263.93 360.75,-263.19"/>
</g>
<!-- 10&#45;&gt;2 -->
<g id="edge21" class="edge">
<title>10&#45;&gt;2</title>
<path fill="none" stroke="black" stroke-dasharray="1,5" d="M406.98,-295.93C375.63,-285.47 322.65,-267.7 277.25,-252 276.1,-251.6 274.94,-251.2 273.76,-250.79"/>
<polygon fill="black" stroke="black" points="275.08,-247.54 264.49,-247.54 272.77,-254.15 275.08,-247.54"/>
</g>
<!-- 10&#45;&gt;5 -->
<g id="edge20" class="edge">
<title>10&#45;&gt;5</title>
<path fill="none" stroke="black" d="M406.91,-297.49C380.39,-289.28 339.93,-274.28 310.25,-252 287.38,-234.84 267.28,-209.06 253.99,-189.66"/>
<polygon fill="black" stroke="black" points="256.97,-187.82 248.52,-181.44 251.14,-191.7 256.97,-187.82"/>
</g>
<!-- 10&#45;&gt;7 -->
<g id="edge18" class="edge">
<title>10&#45;&gt;7</title>
<path fill="none" stroke="black" d="M446.27,-287.59C463.18,-263.08 494.16,-218.19 513.95,-189.52"/>
<polygon fill="black" stroke="black" points="516.78,-191.57 519.58,-181.36 511.02,-187.6 516.78,-191.57"/>
</g>
<!-- 11 -->
<g id="node12" class="node">
<title>11</title>
<polygon fill="none" stroke="black" points="461.25,-252 407.25,-252 407.25,-216 461.25,-216 461.25,-252"/>
<text text-anchor="middle" x="434.25" y="-229.32" font-family="Times,serif" font-size="14.00">kv</text>
</g>
<!-- 10&#45;&gt;11 -->
<g id="edge19" class="edge">
<title>10&#45;&gt;11</title>
<path fill="none" stroke="black" d="M434.25,-287.7C434.25,-280.41 434.25,-271.73 434.25,-263.54"/>
<polygon fill="black" stroke="black" points="437.75,-263.62 434.25,-253.62 430.75,-263.62 437.75,-263.62"/>
</g>
<!-- 11&#45;&gt;4 -->
<g id="edge23" class="edge">
<title>11&#45;&gt;4</title>
<path fill="none" stroke="black" d="M445.08,-215.7C454.98,-197.59 466.89,-168.44 458.25,-144 444.03,-103.76 410.74,-66.98 386.25,-43.89"/>
<polygon fill="black" stroke="black" points="388.85,-41.53 379.12,-37.34 384.11,-46.68 388.85,-41.53"/>
</g>
<!-- 11&#45;&gt;7 -->
<g id="edge22" class="edge">
<title>11&#45;&gt;7</title>
<path fill="none" stroke="black" d="M458.73,-215.52C470.86,-206.85 485.7,-196.25 498.86,-186.85"/>
<polygon fill="black" stroke="black" points="500.75,-189.8 506.85,-181.14 496.68,-184.1 500.75,-189.8"/>
</g>
<!-- 12 -->
<g id="node13" class="node">
<title>12</title>
<polygon fill="none" stroke="black" points="449.25,-180 395.25,-180 395.25,-144 449.25,-144 449.25,-180"/>
<text text-anchor="middle" x="422.25" y="-157.32" font-family="Times,serif" font-size="14.00">starc</text>
</g>
<!-- 11&#45;&gt;12 -->
<g id="edge24" class="edge">
<title>11&#45;&gt;12</title>
<path fill="none" stroke="black" d="M431.28,-215.7C430.02,-208.32 428.51,-199.52 427.09,-191.25"/>
<polygon fill="black" stroke="black" points="430.58,-190.86 425.44,-181.6 423.68,-192.04 430.58,-190.86"/>
</g>
<!-- 13&#45;&gt;3 -->
<g id="edge26" class="edge">
<title>13&#45;&gt;3</title>
<path fill="none" stroke="black" d="M340.23,-215.81C332.22,-205.67 322.22,-192.42 314.25,-180 301.39,-159.96 288.68,-136.18 279.58,-118.24"/>
<polygon fill="black" stroke="black" points="282.82,-116.89 275.21,-109.52 276.56,-120.03 282.82,-116.89"/>
</g>
<!-- 13&#45;&gt;7 -->
<g id="edge27" class="edge">
<title>13&#45;&gt;7</title>
<path fill="none" stroke="black" d="M389.42,-219.17C419.78,-207.23 463.53,-190.03 494.59,-177.81"/>
<polygon fill="black" stroke="black" points="495.58,-181.18 503.6,-174.27 493.02,-174.67 495.58,-181.18"/>
</g>
<!-- 14 -->
<g id="node15" class="node">
<title>14</title>
<polygon fill="none" stroke="black" points="377.25,-180 323.25,-180 323.25,-144 377.25,-144 377.25,-180"/>
<text text-anchor="middle" x="350.25" y="-157.32" font-family="Times,serif" font-size="14.00">belt</text>
</g>
<!-- 13&#45;&gt;14 -->
<g id="edge25" class="edge">
<title>13&#45;&gt;14</title>
<path fill="none" stroke="black" d="M353.26,-215.7C352.84,-208.41 352.35,-199.73 351.88,-191.54"/>
<polygon fill="black" stroke="black" points="355.38,-191.4 351.31,-181.62 348.39,-191.8 355.38,-191.4"/>
</g>
<!-- 15&#45;&gt;1 -->
<g id="edge28" class="edge">
<title>15&#45;&gt;1</title>
<path fill="none" stroke="black" d="M89.22,-503.58C97.44,-485.63 110.68,-456.82 122.25,-432 126.14,-423.67 130.39,-414.61 134.28,-406.38"/>
<polygon fill="black" stroke="black" points="137.35,-408.07 138.46,-397.54 131.02,-405.08 137.35,-408.07"/>
</g>
<!-- 15&#45;&gt;6 -->
<g id="edge29" class="edge">
<title>15&#45;&gt;6</title>
<path fill="none" stroke="black" d="M108.44,-507.5C127.87,-497.86 154.47,-484.65 177.06,-473.43"/>
<polygon fill="black" stroke="black" points="178.37,-476.69 185.77,-469.11 175.26,-470.42 178.37,-476.69"/>
</g>
<!-- 16 -->
<g id="node17" class="node">
<title>16</title>
<polygon fill="none" stroke="black" points="58.25,-468 4.25,-468 4.25,-432 58.25,-432 58.25,-468"/>
<text text-anchor="middle" x="31.25" y="-445.32" font-family="Times,serif" font-size="14.00">rope</text>
</g>
<!-- 15&#45;&gt;16 -->
<g id="edge30" class="edge">
<title>15&#45;&gt;16</title>
<path fill="none" stroke="black" d="M68.89,-503.7C63.2,-495.73 56.32,-486.1 50.01,-477.26"/>
<polygon fill="black" stroke="black" points="53.01,-475.44 44.35,-469.34 47.31,-479.51 53.01,-475.44"/>
</g>
<!-- 17 -->
<g id="node18" class="node">
<title>17</title>
<polygon fill="none" stroke="black" points="62.5,-396 0,-396 0,-360 62.5,-360 62.5,-396"/>
<text text-anchor="middle" x="31.25" y="-373.32" font-family="Times,serif" font-size="14.00">names</text>
</g>
<!-- 16&#45;&gt;17 -->
<g id="edge31" class="edge">
<title>16&#45;&gt;17</title>
<path fill="none" stroke="black" d="M31.25,-431.7C31.25,-424.41 31.25,-415.73 31.25,-407.54"/>
<polygon fill="black" stroke="black" points="34.75,-407.62 31.25,-397.62 27.75,-407.62 34.75,-407.62"/>
</g>
<!-- 18 -->
<g id="node19" class="node">
<title>18</title>
<polygon fill="none" stroke="black" points="337.88,-540 262.62,-540 262.62,-504 337.88,-504 337.88,-540"/>
<text text-anchor="middle" x="300.25" y="-517.33" font-family="Times,serif" font-size="14.00">cart&#45;app</text>
</g>
<!-- 18&#45;&gt;2 -->
<g id="edge32" class="edge">
<title>18&#45;&gt;2</title>
<path fill="none" stroke="black" d="M299.01,-503.79C297.5,-485.76 294.49,-456.67 289.25,-432 276.22,-370.67 252.89,-300.93 239.48,-263.07"/>
<polygon fill="black" stroke="black" points="242.84,-262.05 236.17,-253.82 236.24,-264.41 242.84,-262.05"/>
</g>
<!-- 18&#45;&gt;6 -->
<g id="edge33" class="edge">
<title>18&#45;&gt;6</title>
<path fill="none" stroke="black" stroke-dasharray="1,5" d="M280.97,-503.7C271.59,-495.28 260.16,-485.02 249.87,-475.79"/>
<polygon fill="black" stroke="black" points="252.49,-473.43 242.71,-469.36 247.81,-478.64 252.49,-473.43"/>
</g>
<!-- 19 -->
<g id="node20" class="node">
<title>19</title>
<polygon fill="none" stroke="black" points="402.5,-612 292,-612 292,-576 402.5,-576 402.5,-612"/>
<text text-anchor="middle" x="347.25" y="-589.33" font-family="Times,serif" font-size="14.00">cart&#45;frontend</text>
</g>
<!-- 19&#45;&gt;18 -->
<g id="edge34" class="edge">
<title>19&#45;&gt;18</title>
<path fill="none" stroke="black" d="M335.63,-575.7C330.34,-567.81 323.95,-558.3 318.07,-549.55"/>
<polygon fill="black" stroke="black" points="321.06,-547.71 312.58,-541.36 315.25,-551.61 321.06,-547.71"/>
</g>
<!-- 20 -->
<g id="node21" class="node">
<title>20</title>
<polygon fill="none" stroke="black" points="273.62,-612 178.88,-612 178.88,-576 273.62,-576 273.62,-612"/>
<text text-anchor="middle" x="226.25" y="-589.33" font-family="Times,serif" font-size="14.00">cart&#45;server</text>
</g>
<!-- 20&#45;&gt;6 -->
<g id="edge36" class="edge">
<title>20&#45;&gt;6</title>
<path fill="none" stroke="black" d="M225.76,-575.59C225.08,-551.61 223.86,-508.14 223.05,-479.42"/>
<polygon fill="black" stroke="black" points="226.55,-479.52 222.77,-469.62 219.56,-479.72 226.55,-479.52"/>
</g>
<!-- 20&#45;&gt;18 -->
<g id="edge35" class="edge">
<title>20&#45;&gt;18</title>
<path fill="none" stroke="black" d="M244.54,-575.7C253.35,-567.37 264.07,-557.22 273.75,-548.07"/>
<polygon fill="black" stroke="black" points="275.95,-550.8 280.81,-541.39 271.14,-545.72 275.95,-550.8"/>
</g>
<!-- 21 -->
<g id="node22" class="node">
<title>21</title>
<polygon fill="none" stroke="black" points="474.25,-612 420.25,-612 420.25,-576 474.25,-576 474.25,-612"/>
<text text-anchor="middle" x="447.25" y="-589.33" font-family="Times,serif" font-size="14.00">cli</text>
</g>
<!-- 22 -->
<g id="node23" class="node">
<title>22</title>
<polygon fill="none" stroke="black" points="474.75,-540 419.75,-540 419.75,-504 474.75,-504 474.75,-540"/>
<text text-anchor="middle" x="447.25" y="-517.33" font-family="Times,serif" font-size="14.00">nasty</text>
</g>
<!-- 21&#45;&gt;22 -->
<g id="edge37" class="edge">
<title>21&#45;&gt;22</title>
<path fill="none" stroke="black" d="M447.25,-575.7C447.25,-568.41 447.25,-559.73 447.25,-551.54"/>
<polygon fill="black" stroke="black" points="450.75,-551.62 447.25,-541.62 443.75,-551.62 450.75,-551.62"/>
</g>
<!-- 23 -->
<g id="node24" class="node">
<title>23</title>
<polygon fill="none" stroke="black" points="78.38,-612 6.12,-612 6.12,-576 78.38,-576 78.38,-612"/>
<text text-anchor="middle" x="42.25" y="-589.33" font-family="Times,serif" font-size="14.00">daemon</text>
</g>
<!-- 23&#45;&gt;15 -->
<g id="edge39" class="edge">
<title>23&#45;&gt;15</title>
<path fill="none" stroke="black" d="M51.89,-575.7C56.19,-567.98 61.35,-558.71 66.14,-550.11"/>
<polygon fill="black" stroke="black" points="69.17,-551.87 70.98,-541.43 63.06,-548.46 69.17,-551.87"/>
</g>
<!-- 23&#45;&gt;16 -->
<g id="edge38" class="edge">
<title>23&#45;&gt;16</title>
<path fill="none" stroke="black" d="M40.9,-575.59C39.04,-551.61 35.68,-508.14 33.45,-479.42"/>
<polygon fill="black" stroke="black" points="36.95,-479.32 32.69,-469.62 29.98,-479.86 36.95,-479.32"/>
</g>
<!-- 24 -->
<g id="node25" class="node">
<title>24</title>
<polygon fill="none" stroke="black" points="493.75,-396 414.75,-396 414.75,-360 493.75,-360 493.75,-396"/>
<text text-anchor="middle" x="454.25" y="-373.32" font-family="Times,serif" font-size="14.00">migrator</text>
</g>
<!-- 24&#45;&gt;10 -->
<g id="edge40" class="edge">
<title>24&#45;&gt;10</title>
<path fill="none" stroke="black" d="M449.31,-359.7C447.17,-352.24 444.63,-343.32 442.24,-334.97"/>
<polygon fill="black" stroke="black" points="445.67,-334.21 439.55,-325.56 438.93,-336.14 445.67,-334.21"/>
</g>
</g>
</svg>
