<?xml version="1.0" encoding="UTF-8" standalone="no"?>
<!DOCTYPE svg PUBLIC "-//W3C//DTD SVG 1.1//EN"
 "http://www.w3.org/Graphics/SVG/1.1/DTD/svg11.dtd">
<!-- Generated by graphviz version 12.2.1 (0)
 -->
<!-- Pages: 1 -->
<svg width="196pt" height="188pt"
 viewBox="0.00 0.00 195.50 188.00" xmlns="http://www.w3.org/2000/svg" xmlns:xlink="http://www.w3.org/1999/xlink">
<g id="graph0" class="graph" transform="scale(1 1) rotate(0) translate(4 184)">
<polygon fill="white" stroke="none" points="-4,4 -4,-184 191.5,-184 191.5,4 -4,4"/>
<!-- 0 -->
<g id="node1" class="node">
<title>0</title>
<polygon fill="none" stroke="black" points="84.5,-180 30.5,-180 30.5,-144 84.5,-144 84.5,-180"/>
<text text-anchor="middle" x="57.5" y="-157.32" font-family="Times,serif" font-size="14.00">app</text>
</g>
<!-- 1 -->
<g id="node2" class="node">
<title>1</title>
<polygon fill="none" stroke="black" points="115,-108 0,-108 0,-72 115,-72 115,-108"/>
<text text-anchor="middle" x="57.5" y="-85.33" font-family="Times,serif" font-size="14.00">prime&#45;domain</text>
</g>
<!-- 0&#45;&gt;1 -->
<g id="edge1" class="edge">
<title>0&#45;&gt;1</title>
<path fill="none" stroke="black" d="M57.5,-143.7C57.5,-136.41 57.5,-127.73 57.5,-119.54"/>
<polygon fill="black" stroke="black" points="61,-119.62 57.5,-109.62 54,-119.62 61,-119.62"/>
</g>
<!-- 2 -->
<g id="node3" class="node">
<title>2</title>
<polygon fill="none" stroke="black" points="142,-36 75,-36 75,0 142,0 142,-36"/>
<text text-anchor="middle" x="108.5" y="-13.32" font-family="Times,serif" font-size="14.00">models</text>
</g>
<!-- 1&#45;&gt;2 -->
<g id="edge2" class="edge">
<title>1&#45;&gt;2</title>
<path fill="none" stroke="black" d="M70.11,-71.7C75.91,-63.73 82.93,-54.1 89.36,-45.26"/>
<polygon fill="black" stroke="black" points="92.09,-47.47 95.15,-37.33 86.43,-43.35 92.09,-47.47"/>
</g>
<!-- 3 -->
<g id="node4" class="node">
<title>3</title>
<polygon fill="none" stroke="black" points="187.5,-108 133.5,-108 133.5,-72 187.5,-72 187.5,-108"/>
<text text-anchor="middle" x="160.5" y="-85.33" font-family="Times,serif" font-size="14.00">cli</text>
</g>
<!-- 3&#45;&gt;2 -->
<g id="edge3" class="edge">
<title>3&#45;&gt;2</title>
<path fill="none" stroke="black" d="M147.65,-71.7C141.73,-63.73 134.57,-54.1 128.01,-45.26"/>
<polygon fill="black" stroke="black" points="130.88,-43.26 122.11,-37.32 125.26,-47.43 130.88,-43.26"/>
</g>
</g>
</svg>
