<?xml version="1.0" encoding="UTF-8" standalone="no"?>
<!-- Created with Inkscape (http://www.inkscape.org/) -->

<svg
   width="256"
   height="256"
   viewBox="0 0 67.733332 67.733333"
   version="1.1"
   id="svg1"
   inkscape:export-filename="favicon.svg"
   inkscape:export-xdpi="96"
   inkscape:export-ydpi="96"
   inkscape:version="1.4.2 (ebf0e940d0, 2025-05-08)"
   sodipodi:docname="rambit_logo.svg"
   xmlns:inkscape="http://www.inkscape.org/namespaces/inkscape"
   xmlns:sodipodi="http://sodipodi.sourceforge.net/DTD/sodipodi-0.dtd"
   xmlns="http://www.w3.org/2000/svg"
   xmlns:svg="http://www.w3.org/2000/svg">
  <sodipodi:namedview
     id="namedview1"
     pagecolor="#ffffff"
     bordercolor="#000000"
     borderopacity="0.25"
     inkscape:showpageshadow="2"
     inkscape:pageopacity="0.0"
     inkscape:pagecheckerboard="0"
     inkscape:deskcolor="#d1d1d1"
     inkscape:document-units="mm"
     inkscape:zoom="3.4819851"
     inkscape:cx="119.90287"
     inkscape:cy="126.65189"
     inkscape:window-width="2268"
     inkscape:window-height="1401"
     inkscape:window-x="0"
     inkscape:window-y="0"
     inkscape:window-maximized="1"
     inkscape:current-layer="svg1" />
  <defs
     id="defs1">
    <rect
       x="0"
       y="0.2871925"
       width="255.60133"
       height="255.31413"
       id="rect3" />
    <rect
       x="0"
       y="0.574385"
       width="256.4629"
       height="255.88852"
       id="rect2" />
    <rect
       x="0.2871925"
       y="-0.574385"
       width="255.88852"
       height="255.60133"
       id="rect1" />
  </defs>
  <path
     d="M 15.111087,197.62013 V 53.620358 h 74.48877 q 23.111073,0 36.088833,10.488872 13.15553,10.311094 13.15553,28.622176 0,11.555534 -5.5111,19.733304 -5.33332,8.17776 -15.11109,11.55554 v 0.88888 q 9.77777,0 15.11109,5.33333 5.5111,5.15554 5.5111,15.64442 v 51.73325 H 108.62205 V 142.86466 H 45.155483 v 54.75547 z m 30.044396,-80.88876 h 42.488821 q 10.311095,0 15.822196,-4.79999 5.68888,-4.8 5.68888,-13.688872 0,-8.888874 -5.68888,-13.688867 -5.511101,-4.799992 -15.822196,-4.799992 H 45.155483 Z"
     id="text2"
     style="font-weight:bold;font-size:213.333px;font-family:'Funnel Display';-inkscape-font-specification:'Funnel Display Bold';letter-spacing:3px;white-space:pre;fill:#f76b15;stroke:#000000;stroke-width:6.39308;stroke-linecap:round"
     transform="matrix(0.39104846,0,0,0.39104767,3.7648191,-15.256868)"
     aria-label="R" />
</svg>
